<?xml version="1.0" encoding="UTF-8"?>
<svg width="230px" height="66px" viewBox="0 0 230 66" version="1.1" xmlns="http://www.w3.org/2000/svg" xmlns:xlink="http://www.w3.org/1999/xlink">
    <!-- Generator: Sketch 49 (51002) - http://www.bohemiancoding.com/sketch -->
    <title>icons/logo_ini</title>
    <desc>Created with Sketch.</desc>
    <defs>
        <polygon id="path-1" points="0.491991579 26.9473684 16.9015916 26.9473684 16.9015916 0.333608421 0.491991579 0.333608421"></polygon>
        <polygon id="path-3" points="16.1111579 19.9094568 16.1111579 0.261456842 0.262197895 0.261456842 0.262197895 19.9094568 16.1111579 19.9094568"></polygon>
    </defs>
    <g id="icons/logo_ini" stroke="none" stroke-width="1" fill="none" fill-rule="evenodd">
        <g id="Page-1" transform="translate(1.000000, 1.000000)">
            <path d="M70.8075789,56.3276126 C69.7337263,56.3276126 68.7541895,56.2642863 67.8676211,56.1383074 C66.9810526,56.0109811 66.1881263,55.8607495 65.4881684,55.6855916 C64.7888842,55.5104337 64.1973895,55.3298863 63.7157053,55.1426021 C63.2326737,54.9559916 62.8648421,54.8017179 62.6115368,54.6818021 L63.6611368,51.6960337 C64.0107789,51.8772547 64.5746526,52.0941811 65.3527579,52.3474863 C66.1308632,52.6007916 66.9655579,52.8002021 67.8588632,52.9450442 C68.7508211,53.0892126 69.5834947,53.1619705 70.3555368,53.1619705 C71.9232,53.1619705 73.1445895,52.9356126 74.0190316,52.4835705 C74.8934737,52.0308547 75.4485895,51.4730442 75.6830316,50.8101389 C75.9188211,50.14656 76.0360421,49.5132968 76.0360421,48.9096758 C76.0360421,47.8964547 75.7045895,47.0792758 75.0410105,46.4588126 C74.3774316,45.8376758 73.5784421,45.3425179 72.6440421,44.9746863 C71.7089684,44.6075284 70.8621474,44.2780968 70.1022316,43.9890863 C69.3780211,43.7357811 68.6935579,43.4703495 68.0481684,43.1927916 C67.4034526,42.9159074 66.752,42.5568337 66.0944842,42.1162442 C65.4369684,41.6763284 64.8825263,41.1515284 64.4298105,40.5425179 C63.9777684,39.9335074 63.6793263,39.3244968 63.5344842,38.7148126 C63.3896421,38.1058021 63.3175579,37.4637811 63.3175579,36.7880758 C63.3175579,35.7027705 63.5223579,34.7198653 63.9326316,33.83936 C64.3422316,32.9588547 64.9276632,32.2110653 65.6875789,31.5959916 C66.4474947,30.9809179 67.3731368,30.5073179 68.4645053,30.1758653 C69.5565474,29.8437389 70.7833263,29.6780126 72.1461895,29.6780126 C73.1836632,29.6780126 74.1483789,29.7413389 75.0410105,29.8686653 C75.9336421,29.9946442 76.6726737,30.1394863 77.2574316,30.3025179 C77.8421895,30.4648758 78.2612211,30.5767074 78.5145263,30.6366653 L78.5145263,33.9121179 C77.8994526,33.6830653 77.2358737,33.4802863 76.5244632,33.3058021 C75.8130526,33.1306442 75.0800842,32.9952337 74.3269053,32.8988968 C73.5723789,32.8018863 72.8340211,32.7540547 72.1104842,32.7540547 C70.4936421,32.7540547 69.2365474,33.0855074 68.3378526,33.7484126 C67.4391579,34.4126653 66.9898105,35.3652547 66.9898105,36.6075284 C66.9898105,37.2347284 67.1319579,37.7649179 67.4155789,38.1994442 C67.6985263,38.6332968 68.0993684,39.0166232 68.6181053,39.3487495 C69.1368421,39.6802021 69.7519158,39.9847074 70.464,40.2615916 C71.1754105,40.5391495 71.9589053,40.8288337 72.8158316,41.1299705 C73.7562947,41.4802863 74.6610526,41.8481179 75.5294316,42.2341389 C76.3978105,42.62016 77.1610947,43.0991495 77.8179368,43.6724547 C78.4754526,44.2450863 79.0036211,44.9477389 79.4010947,45.7804126 C79.7992421,46.6124126 79.9986526,47.6431495 79.9986526,48.8739705 C79.9986526,50.0677389 79.7904842,51.1294653 79.3741474,52.0578021 C78.9584842,52.9868126 78.3548632,53.7676126 77.5646316,54.4015495 C76.7750737,55.0341389 75.8130526,55.5138021 74.6792421,55.8391916 C73.5454316,56.1652547 72.2546526,56.3276126 70.8075789,56.3276126" id="Fill-1" fill="#FFFFFF"></path>
            <g id="Group-5" transform="translate(84.210526, 36.418088)">
                <mask id="mask-2" fill="white">
                    <use xlink:href="#path-1"></use>
                </mask>
                <g id="Clip-4"></g>
                <path d="M8.09047579,16.90624 C8.95885474,16.90624 9.72146526,16.7378189 10.3789811,16.3996295 C11.0364968,16.0621137 11.5215495,15.6397137 11.8354863,15.1331032 C12.1487495,14.6264926 12.3845389,14.1266189 12.5408337,13.6321347 C12.7099284,13.0891453 12.8365811,12.5043874 12.9207916,11.8765137 C13.0050021,11.2499874 13.0474442,10.5924716 13.0474442,9.90464 C13.0474442,8.42118737 12.8668968,7.17015579 12.5051284,6.15087158 C12.14336,5.13091368 11.6124968,4.41411368 10.9125389,3.99777684 C10.2132547,3.58211368 9.45333895,3.37327158 8.63346526,3.37327158 C7.90925474,3.37327158 7.26386526,3.54573474 6.69729684,3.88931368 C6.13005474,4.23289263 5.65376,4.71188211 5.26841263,5.32762947 C4.88171789,5.94270316 4.59001263,6.67836632 4.39060211,7.53461895 C4.19186526,8.39087158 4.09216,9.32594526 4.09216,10.3391663 L4.09216,15.1519663 C4.63514947,15.6942821 5.23203368,16.1227453 5.88348632,16.4360084 C6.53426526,16.7499453 7.26992842,16.90624 8.09047579,16.90624 Z M0.491991579,26.9475032 L0.491991579,0.71424 L3.92912842,0.71424 L4.00188632,3.44602947 C4.32727579,2.81882947 4.78538105,2.25495579 5.37687579,1.75440842 C5.96769684,1.25386105 6.62790737,0.892092632 7.35750737,0.668429474 C8.08778105,0.44544 8.83826526,0.333608421 9.61030737,0.333608421 C11.3470653,0.333608421 12.7880758,0.789018947 13.9340126,1.70051368 C15.0799495,2.61066105 15.8607495,3.81116632 16.2770863,5.30000842 C16.6934232,6.78952421 16.9015916,8.30127158 16.9015916,9.83255579 C16.9015916,11.4130189 16.7264337,12.8237137 16.3767916,14.0659874 C16.0264758,15.3082611 15.5111074,16.3551663 14.8300126,17.2046821 C14.1482442,18.0555453 13.3041179,18.7036295 12.29696,19.1496084 C11.2898021,19.5955874 10.1351074,19.8192505 8.83220211,19.8192505 C7.77047579,19.8192505 6.85426526,19.68384 6.08222316,19.4123453 C5.31018105,19.1408505 4.64660211,18.7757137 4.09216,18.3176084 L4.09216,26.9475032 L0.491991579,26.9475032 Z" id="Fill-3" fill="#FFFFFF" mask="url(#mask-2)"></path>
            </g>
            <path d="M111.822349,53.4691032 C112.461676,53.4691032 113.103697,53.3673768 113.749086,53.1619032 C114.394476,52.9564295 114.903781,52.7246821 115.277676,52.4653137 C115.651571,52.2059453 115.947318,51.9620716 116.164244,51.7323453 L116.164244,46.6487242 L114.825634,46.6487242 C113.776034,46.6487242 112.865213,46.7120505 112.093844,46.8387032 C111.321802,46.9653558 110.679781,47.1795874 110.166434,47.4807242 C109.654434,47.7825347 109.271107,48.1746189 109.017802,48.6563032 C108.764497,49.1393347 108.637844,49.7301558 108.637844,50.42944 C108.637844,51.0445137 108.764497,51.6023242 109.017802,52.1035453 C109.271107,52.6040926 109.651065,52.9564295 110.157676,53.1619032 C110.664286,53.3673768 111.218728,53.4691032 111.822349,53.4691032 M110.827318,56.2372716 C110.043149,56.2372716 109.298055,56.1348716 108.593381,55.9293979 C107.88736,55.7252716 107.272286,55.39584 106.747486,54.9437979 C106.222686,54.4917558 105.807023,53.9063242 105.499149,53.1888505 C105.191949,52.4713768 105.037676,51.6003032 105.037676,50.5742821 C105.037676,49.1514611 105.363739,47.9785768 106.014518,47.0556295 C106.665971,46.1326821 107.625297,45.4185768 108.891149,44.9119663 C109.603234,44.6344084 110.402223,44.4296084 111.288792,44.2968926 C112.17536,44.1635032 113.167023,44.0853558 114.264455,44.0611032 C114.31296,44.0611032 114.430855,44.0584084 114.617465,44.0523453 C114.804749,44.0462821 115.000118,44.0435874 115.205592,44.0435874 C115.410392,44.0435874 115.606434,44.0402189 115.793718,44.0341558 C115.980328,44.0280926 116.103613,44.0247242 116.164244,44.0247242 L116.164244,43.0121768 C116.164244,42.07104 115.992455,41.3448084 115.648876,40.8321347 C115.304623,40.3187874 114.777128,39.9698189 114.065718,39.7832084 C113.353634,39.5952505 112.594392,39.5022821 111.785971,39.5022821 C110.772749,39.5022821 109.838349,39.6046821 108.982097,39.8101558 C108.125171,40.0149558 107.305297,40.2561347 106.521128,40.5336926 L106.521128,37.6024926 C107.534349,37.3377347 108.270013,37.1625768 108.728792,37.0776926 C109.186897,36.9934821 109.771655,36.9180295 110.483739,36.8520084 C111.195149,36.7853137 111.864118,36.7523032 112.491992,36.7523032 C113.733592,36.7523032 114.810813,36.8728926 115.721634,37.1140716 C116.631781,37.3552505 117.382265,37.7291453 117.97376,38.2357558 C118.564581,38.7423663 119.001802,39.3877558 119.285423,40.1719242 C119.569044,40.9560926 119.710518,41.8904926 119.710518,42.9757979 L119.710518,55.8755032 L116.309086,55.8755032 L116.237002,54.2835874 C115.875234,54.6453558 115.41376,54.97344 114.853255,55.2698611 C114.292076,55.5649347 113.640623,55.8000505 112.898897,55.9752084 C112.157171,56.1496926 111.466644,56.2372716 110.827318,56.2372716" id="Fill-6" fill="#FFFFFF"></path>
            <path d="M125.680909,55.8756379 L125.680909,37.1323958 L129.11872,37.1323958 L129.190804,40.6779958 C129.612531,39.8217432 130.125204,39.1103326 130.728825,38.5430905 C131.331773,37.9765221 131.958973,37.5817432 132.610425,37.3587537 C133.261204,37.1350905 133.888404,37.0239326 134.492025,37.0239326 C135.107099,37.0239326 135.577331,37.0596379 135.90272,37.1323958 L135.90272,40.5338274 C135.613709,40.4610695 135.185246,40.4246905 134.618678,40.4246905 C133.71392,40.4246905 132.929752,40.5910905 132.266173,40.9225432 C131.603267,41.2539958 131.048152,41.6797642 130.602173,42.1978274 C130.15552,42.7165642 129.824067,43.2891958 129.607141,43.9163958 C129.389541,44.5442695 129.281078,45.1465432 129.281078,45.7259116 L129.281078,55.8756379 L125.680909,55.8756379 Z" id="Fill-8" fill="#FFFFFF"></path>
            <path d="M139.430939,55.8756379 L139.430939,28.6466695 L143.031107,28.6466695 L143.031107,44.3866274 L150.032707,37.1323958 L154.357086,37.1323958 L146.468918,45.2374905 C147.240286,45.9131958 148.018392,46.6731116 148.80256,47.5172379 C149.586728,48.3613642 150.349339,49.2445642 151.091739,50.1675116 C151.832792,51.0897853 152.550939,52.0369853 153.24416,53.0077642 C153.938055,53.9792168 154.592202,54.9351747 155.207276,55.8756379 L150.702349,55.8756379 C149.942434,54.7903326 149.094939,53.6497853 148.160539,52.4560168 C147.225465,51.2615747 146.321381,50.1762695 145.446939,49.1994274 C144.571823,48.2225853 143.766771,47.3723958 143.031107,46.6488589 L143.031107,55.8756379 L139.430939,55.8756379 Z" id="Fill-10" fill="#FFFFFF"></path>
            <path d="M163.72864,53.4691032 C164.367966,53.4691032 165.009987,53.3673768 165.655377,53.1619032 C166.300766,52.9564295 166.810072,52.7246821 167.183966,52.4653137 C167.557861,52.2059453 167.853608,51.9620716 168.070535,51.7323453 L168.070535,46.6487242 L166.731924,46.6487242 C165.682324,46.6487242 164.771503,46.7120505 164.000135,46.8387032 C163.228093,46.9653558 162.586072,47.1795874 162.072724,47.4807242 C161.560724,47.7825347 161.177398,48.1746189 160.924093,48.6563032 C160.670787,49.1393347 160.544135,49.7301558 160.544135,50.42944 C160.544135,51.0445137 160.670787,51.6023242 160.924093,52.1035453 C161.177398,52.6040926 161.557356,52.9564295 162.063966,53.1619032 C162.570577,53.3673768 163.125019,53.4691032 163.72864,53.4691032 M162.733608,56.2372716 C161.94944,56.2372716 161.204345,56.1348716 160.499672,55.9293979 C159.793651,55.7252716 159.178577,55.39584 158.653777,54.9437979 C158.128977,54.4917558 157.713314,53.9063242 157.40544,53.1888505 C157.09824,52.4713768 156.943966,51.6003032 156.943966,50.5742821 C156.943966,49.1514611 157.270029,47.9785768 157.920808,47.0556295 C158.572261,46.1326821 159.531587,45.4185768 160.79744,44.9119663 C161.509524,44.6344084 162.308514,44.4296084 163.195082,44.2968926 C164.081651,44.1635032 165.073314,44.0853558 166.170745,44.0611032 C166.219251,44.0611032 166.337145,44.0584084 166.523756,44.0523453 C166.71104,44.0462821 166.906408,44.0435874 167.111882,44.0435874 C167.316682,44.0435874 167.512724,44.0402189 167.700008,44.0341558 C167.886619,44.0280926 168.009903,44.0247242 168.070535,44.0247242 L168.070535,43.0121768 C168.070535,42.07104 167.898745,41.3448084 167.555166,40.8321347 C167.210914,40.3187874 166.683419,39.9698189 165.972008,39.7832084 C165.259924,39.5952505 164.500682,39.5022821 163.692261,39.5022821 C162.67904,39.5022821 161.74464,39.6046821 160.888387,39.8101558 C160.031461,40.0149558 159.211587,40.2561347 158.427419,40.5336926 L158.427419,37.6024926 C159.44064,37.3377347 160.176303,37.1625768 160.635082,37.0776926 C161.093187,36.9934821 161.677945,36.9180295 162.390029,36.8520084 C163.10144,36.7853137 163.770408,36.7523032 164.398282,36.7523032 C165.639882,36.7523032 166.717103,36.8728926 167.627924,37.1140716 C168.538072,37.3552505 169.288556,37.7291453 169.880051,38.2357558 C170.470872,38.7423663 170.908093,39.3877558 171.191714,40.1719242 C171.475335,40.9560926 171.616808,41.8904926 171.616808,42.9757979 L171.616808,55.8755032 L168.215377,55.8755032 L168.143293,54.2835874 C167.781524,54.6453558 167.320051,54.97344 166.759545,55.2698611 C166.198366,55.5649347 165.546914,55.8000505 164.805187,55.9752084 C164.063461,56.1496926 163.372935,56.2372716 162.733608,56.2372716" id="Fill-12" fill="#FFFFFF"></path>
            <path d="M182.815798,56.2374737 C181.971672,56.2374737 181.196261,56.1923368 180.490914,56.1020632 C179.784893,56.0111158 179.152303,55.8992842 178.591124,55.7672421 C178.030619,55.6338526 177.544893,55.4950737 177.134619,55.3509053 C176.724345,55.2060632 176.392893,55.0733474 176.139587,54.9527579 L177.098914,52.2384842 C177.72544,52.4917895 178.292682,52.6938947 178.799293,52.8454737 C179.305903,52.9957053 179.894029,53.1196632 180.563672,53.216 C181.23264,53.3123368 181.904977,53.3601684 182.580682,53.3601684 C183.665987,53.3601684 184.531672,53.2368842 185.176387,52.9903158 C185.821777,52.7430737 186.244177,52.4136421 186.442914,52.0040421 C186.642324,51.5937684 186.742029,51.1895579 186.742029,50.7914105 C186.742029,50.1399579 186.491419,49.6185263 185.990872,49.2271158 C185.490324,48.8350316 184.860429,48.5184 184.100514,48.2772211 C183.340598,48.0353684 182.64064,47.8009263 182.001987,47.5712 C181.242072,47.3178947 180.539419,47.0524632 179.894029,46.7749053 C179.24864,46.4980211 178.688135,46.1598316 178.21184,45.7616842 C177.734872,45.3635368 177.363672,44.8818526 177.098914,44.3146105 C176.833482,43.7480421 176.700766,43.0548211 176.700766,42.2342737 C176.700766,41.3537684 176.866493,40.5696 177.198619,39.8824421 C177.530072,39.1946105 177.996935,38.6219789 178.600556,38.1632 C179.203503,37.7050947 179.933103,37.3554526 180.789356,37.1136 C181.645608,36.8730947 182.592135,36.7518316 183.629608,36.7518316 C184.860429,36.7518316 185.927545,36.8245895 186.832303,36.9687579 C187.737061,37.1136 188.532682,37.2887579 189.220514,37.4942316 L189.220514,40.4611368 C188.436345,40.1957053 187.60704,39.9875368 186.732598,39.8366316 C185.858156,39.6864 184.896135,39.6102737 183.847208,39.6102737 C182.604935,39.6102737 181.688051,39.8036211 181.097229,40.1896421 C180.505735,40.5756632 180.210661,41.1604211 180.210661,41.9445895 C180.210661,42.3427368 180.316429,42.6802526 180.527293,42.9578105 C180.738156,43.2353684 181.036598,43.4819368 181.422619,43.6995368 C181.80864,43.9164632 182.28224,44.1185684 182.843419,44.3058526 C183.403924,44.4924632 184.033819,44.6945684 184.733777,44.9114947 C186.180851,45.3581474 187.318029,45.8283789 188.143966,46.3228632 C188.969903,46.8180211 189.554661,47.4330947 189.898914,48.1680842 C190.242493,48.9037474 190.414282,49.7061053 190.414282,50.5744842 C190.414282,51.5277474 190.233735,52.3597474 189.871966,53.0711579 C189.510198,53.7825684 188.996851,54.3733895 188.333945,54.8442947 C187.670366,55.3145263 186.871377,55.6641684 185.936303,55.8932211 C185.001903,56.1222737 183.961735,56.2374737 182.815798,56.2374737" id="Fill-14" fill="#FFFFFF"></path>
            <path d="M200.202307,56.2374737 C199.358181,56.2374737 198.582771,56.1923368 197.877423,56.1020632 C197.171402,56.0111158 196.538813,55.8992842 195.977634,55.7672421 C195.417128,55.6338526 194.931402,55.4950737 194.521128,55.3509053 C194.110855,55.2060632 193.779402,55.0733474 193.526097,54.9527579 L194.485423,52.2384842 C195.111949,52.4917895 195.679192,52.6938947 196.185802,52.8454737 C196.692413,52.9957053 197.280539,53.1196632 197.950181,53.216 C198.619149,53.3123368 199.291486,53.3601684 199.967192,53.3601684 C201.052497,53.3601684 201.918181,53.2368842 202.562897,52.9903158 C203.208286,52.7430737 203.630686,52.4136421 203.829423,52.0040421 C204.028834,51.5937684 204.128539,51.1895579 204.128539,50.7914105 C204.128539,50.1399579 203.877928,49.6185263 203.377381,49.2271158 C202.876834,48.8350316 202.246939,48.5184 201.487023,48.2772211 C200.727107,48.0353684 200.027149,47.8009263 199.388497,47.5712 C198.628581,47.3178947 197.925928,47.0524632 197.280539,46.7749053 C196.635149,46.4980211 196.074644,46.1598316 195.598349,45.7616842 C195.121381,45.3635368 194.750181,44.8818526 194.485423,44.3146105 C194.219992,43.7480421 194.087276,43.0548211 194.087276,42.2342737 C194.087276,41.3537684 194.253002,40.5696 194.585128,39.8824421 C194.916581,39.1946105 195.383444,38.6219789 195.987065,38.1632 C196.590013,37.7050947 197.319613,37.3554526 198.175865,37.1136 C199.032118,36.8730947 199.978644,36.7518316 201.016118,36.7518316 C202.246939,36.7518316 203.314055,36.8245895 204.218813,36.9687579 C205.123571,37.1136 205.919192,37.2887579 206.607023,37.4942316 L206.607023,40.4611368 C205.822855,40.1957053 204.993549,39.9875368 204.119107,39.8366316 C203.244665,39.6864 202.282644,39.6102737 201.233718,39.6102737 C199.991444,39.6102737 199.07456,39.8036211 198.483739,40.1896421 C197.892244,40.5756632 197.597171,41.1604211 197.597171,41.9445895 C197.597171,42.3427368 197.702939,42.6802526 197.913802,42.9578105 C198.124665,43.2353684 198.423107,43.4819368 198.809128,43.6995368 C199.195149,43.9164632 199.668749,44.1185684 200.229928,44.3058526 C200.790434,44.4924632 201.420328,44.6945684 202.120286,44.9114947 C203.56736,45.3581474 204.704539,45.8283789 205.530476,46.3228632 C206.356413,46.8180211 206.941171,47.4330947 207.285423,48.1680842 C207.629002,48.9037474 207.800792,49.7061053 207.800792,50.5744842 C207.800792,51.5277474 207.620244,52.3597474 207.258476,53.0711579 C206.896707,53.7825684 206.38336,54.3733895 205.720455,54.8442947 C205.056876,55.3145263 204.257886,55.6641684 203.322813,55.8932211 C202.388413,56.1222737 201.348244,56.2374737 200.202307,56.2374737" id="Fill-16" fill="#FFFFFF"></path>
            <g id="Group-20" transform="translate(211.536842, 36.418088)">
                <mask id="mask-4" fill="white">
                    <use xlink:href="#path-3"></use>
                </mask>
                <g id="Clip-19"></g>
                <path d="M12.3299032,8.60166737 L4.00720842,8.60166737 C4.11634526,6.80495158 4.53807158,5.40570947 5.27373474,4.40461474 C6.00939789,3.40352 7.07718737,2.90297263 8.47642947,2.90297263 C9.80291368,2.90297263 10.7770611,3.32537263 11.3981979,4.16949895 C12.0193347,5.01362526 12.3299032,6.20739368 12.3299032,7.75147789 L12.3299032,8.60166737 Z M16.1112926,8.99981474 C16.1112926,6.18987789 15.4780295,4.03072 14.2115032,2.52301474 C12.9449768,1.01530947 11.0633768,0.261456842 8.56670316,0.261456842 C7.22809263,0.261456842 6.03971368,0.499941053 5.00291368,0.976235789 C3.96476632,1.45253053 3.09638737,2.12486737 2.39710316,2.99324632 C1.69781895,3.86162526 1.16695579,4.90179368 0.805187368,6.11442526 C0.443418947,7.32570947 0.262197895,8.66229895 0.262197895,10.1214989 C0.262197895,11.6177516 0.461608421,12.9678147 0.859755789,14.1737095 C1.25722947,15.3809516 1.83929263,16.40832 2.60527158,17.2591832 C3.37125053,18.1086989 4.30901895,18.76352 5.41857684,19.2222989 C6.52813474,19.6797305 7.79466105,19.9094568 9.21815579,19.9094568 C10.4240505,19.9094568 11.4824084,19.8521937 12.3932295,19.7369937 C13.3040505,19.6224674 14.1508716,19.4452884 14.93504,19.2034358 L14.2296926,16.4534568 C13.6381979,16.6225516 12.95104,16.7640253 12.1668716,16.8785516 C11.3827032,16.9937516 10.5749558,17.0510147 9.74295579,17.0510147 C7.94556632,17.0510147 6.58876632,16.5470989 5.67188211,15.5399411 C4.75499789,14.5334568 4.22480842,13.0823411 4.07996632,11.1892884 L16.0385347,11.1892884 C16.08704,10.5620884 16.1112926,9.83181474 16.1112926,8.99981474 Z" id="Fill-18" fill="#FFFFFF" mask="url(#mask-4)"></path>
            </g>
            <path d="M16.4144505,12.2085726 C17.0564716,12.8633937 17.8157137,13.3753937 18.6928505,13.74592 C19.5699874,14.11712 20.5023663,14.3017095 21.4906611,14.3017095 C22.4782821,14.3017095 23.4045979,14.11712 24.2696084,13.74592 C25.1339453,13.3753937 25.8931874,12.8633937 26.5480084,12.2085726 C27.2021558,11.5544253 27.7155032,10.7945095 28.0860295,9.92949895 C28.4565558,9.06583579 28.6418189,8.13952 28.6418189,7.15055158 C28.6418189,6.16293053 28.4565558,5.23661474 28.0860295,4.37160421 C27.7155032,3.50794105 27.2021558,2.74802526 26.5480084,2.09320421 C25.8931874,1.43905684 25.1339453,0.926383158 24.2696084,0.555183158 C23.4045979,0.184656842 22.4782821,6.7368421e-05 21.4906611,6.7368421e-05 C20.5023663,6.7368421e-05 19.5699874,0.184656842 18.6928505,0.555183158 C17.8157137,0.926383158 17.0564716,1.43905684 16.4144505,2.09320421 C15.7717558,2.74802526 15.2590821,3.50794105 14.8764295,4.37160421 C14.4931032,5.23661474 14.3024505,6.16293053 14.3024505,7.15055158 C14.3024505,8.13952 14.4931032,9.06583579 14.8764295,9.92949895 C15.2590821,10.7945095 15.7717558,11.5544253 16.4144505,12.2085726" id="Fill-21" fill="#FFFFFF"></path>
            <path d="M43.0181053,28.6414147 L43.0181053,25.7883621 C43.0181053,24.8007411 42.8328421,23.8744253 42.4623158,23.0094147 C42.0917895,22.1450779 41.5851789,21.3851621 40.9431579,20.7310147 C40.3004632,20.0761937 39.5405474,19.56352 38.6647579,19.1929937 C37.7869474,18.8224674 36.8545684,18.6372042 35.8669474,18.6372042 L7.15115789,18.6372042 C6.16286316,18.6372042 5.23654737,18.8224674 4.37221053,19.1929937 C3.5072,19.56352 2.74795789,20.0761937 2.09313684,20.7310147 C1.43898947,21.3851621 0.926315789,22.1450779 0.555789474,23.0094147 C0.185263158,23.8744253 0,24.8007411 0,25.7883621 L0,41.5727832 L32.9397895,41.5727832 L32.9397895,45.8708884 L0,45.8708884 L0,48.7239411 C0,49.7122358 0.185263158,50.6385516 0.555789474,51.5028884 C0.926315789,52.3678989 1.43898947,53.1278147 2.09313684,53.7812884 C2.74795789,54.4361095 3.5072,54.9487832 4.37221053,55.3193095 C5.23654737,55.6898358 6.16286316,55.8750989 7.15115789,55.8750989 L35.8669474,55.8750989 C36.8545684,55.8750989 37.7869474,55.6898358 38.6647579,55.3193095 C39.5405474,54.9487832 40.3004632,54.4361095 40.9431579,53.7812884 C41.5851789,53.1278147 42.0917895,52.3678989 42.4623158,51.5028884 C42.8328421,50.6385516 43.0181053,49.7122358 43.0181053,48.7239411 L43.0181053,32.93952 L10.0042105,32.93952 L10.0042105,28.6414147 L43.0181053,28.6414147 Z" id="Fill-23" fill="#FFFFFF"></path>
        </g>
    </g>
</svg>