<?xml version="1.0" encoding="UTF-8" standalone="no"?>
<!DOCTYPE svg PUBLIC "-//W3C//DTD SVG 1.1//EN" "http://www.w3.org/Graphics/SVG/1.1/DTD/svg11.dtd">
<svg xmlns="http://www.w3.org/2000/svg">
<metadata/>
<defs>
<font id="sparkasse_rgbold_italic" horiz-adv-x="1182">
<font-face units-per-em="2048" ascent="1638" descent="-410"/>
<missing-glyph horiz-adv-x="471"/>
<glyph unicode=" " horiz-adv-x="471"/>
<glyph unicode="&#9;" horiz-adv-x="471"/>
<glyph unicode=" " horiz-adv-x="471"/>
<glyph unicode="!" horiz-adv-x="600" d="M336 -20q-41 0 -75 13t-58 35.5t-37.5 53t-13.5 65.5q0 54 29 95.5t71.5 58t83.5 16.5q62 0 106 -27.5t62 -67t18 -75.5q0 -54 -29.5 -94.5t-72.5 -56.5t-84 -16zM246 506l137 917h295l-154 -917h-278z"/>
<glyph unicode="&quot;" horiz-adv-x="1004" d="M266 936l111 569h258l-111 -569h-258zM727 936l111 569h258l-111 -569h-258z"/>
<glyph unicode="#" horiz-adv-x="1282" d="M164 0l117 375h-166l32 209h199l82 258h-182l33 209h215l116 372h236l-117 -372h252l117 372h235l-116 -372h155l-33 -209h-188l-82 -258h172l-33 -209h-204l-117 -375h-236l117 375h-252l-117 -375h-235zM582 584h252l81 258h-251z"/>
<glyph unicode="$" horiz-adv-x="1139" d="M481 -127l19 117q-83 3 -171 20t-130 32.5t-70 29.5l78 219q42 -21 88.5 -38t111 -28t130.5 -12l67 410l-43 20q-62 30 -116.5 61.5t-94.5 73t-63 96t-23 130.5q0 98 36 175t99 131t149 85t187 37l17 94h106l-14 -92q90 -6 190.5 -23t149.5 -35l-37 -221q-51 16 -98.5 26 t-114 18t-127.5 9l-59 -362l86 -41q51 -25 100.5 -55t88 -71.5t62 -97.5t23.5 -132q0 -105 -37 -187.5t-103.5 -140.5t-158.5 -91t-203 -40l-18 -117h-107zM645 221q75 17 121.5 63.5t46.5 121.5q0 44 -13 73.5t-39 52t-59 41.5zM647 891l51 309q-64 -8 -100 -36.5 t-47.5 -63.5t-11.5 -64q0 -51 28 -84t80 -61z"/>
<glyph unicode="%" horiz-adv-x="2150" d="M1667 -14q-87 0 -151 28t-105.5 77t-61.5 116.5t-20 146.5q0 108 25 209t78 179t135.5 125.5t197.5 47.5q127 0 206.5 -57.5t105.5 -144.5t26 -170q0 -108 -25 -208.5t-78 -178t-135.5 -124t-197.5 -46.5zM492 0l1107 1505h269l-1108 -1505h-268zM1679 180q67 0 105.5 64 t53.5 153t15 164q0 49 -10 86t-34 56.5t-56 19.5q-55 0 -91.5 -44.5t-55.5 -116t-23 -128.5t-4 -92q0 -27 3.5 -55.5t14 -52.5t30.5 -39t52 -15zM594 590q-88 0 -151.5 28t-105 77.5t-61.5 116.5t-20 146q0 108 25 209t78 179.5t135.5 126t197.5 47.5q128 0 207 -58.5 t105 -145t26 -169.5q0 -108 -25 -208.5t-78 -178t-135.5 -124t-197.5 -46.5zM606 784q67 0 105.5 64t53.5 153t15 164q0 49 -10 86t-34.5 56.5t-55.5 19.5q-55 0 -91.5 -44.5t-55.5 -116t-23 -128.5t-4 -92q0 -27 3.5 -55.5t14 -52.5t30.5 -39t52 -15z"/>
<glyph unicode="&amp;" horiz-adv-x="1454" d="M623 -20q-92 0 -178 21t-152 66t-106 115.5t-40 169.5q0 141 63 240t148 148t156 79q-42 50 -66.5 97.5t-31 89t-6.5 84.5q0 92 35 159t93 111t133 65t156 21q112 0 199.5 -35.5t127.5 -104t40 -149.5q0 -109 -53.5 -189.5t-126 -126t-133.5 -75.5q113 -137 223 -295 q30 40 50.5 92.5t27 93.5t6.5 70h227q0 -82 -25.5 -168.5t-68.5 -159.5t-86 -125q96 -154 162 -274h-291q-17 28 -32.5 54t-31.5 50q-89 -57 -194 -90.5t-225 -33.5zM647 199q88 0 157 23t122 65q-67 99 -111.5 160t-89 117.5t-80.5 99.5q-82 -37 -136 -82t-74.5 -94 t-20.5 -99q0 -54 21 -90t55 -58.5t75 -32t82 -9.5zM748 913q73 32 122.5 69.5t68.5 79t19 85.5q0 46 -25 74t-59 37.5t-63 9.5q-51 0 -93 -27.5t-57.5 -64t-15.5 -70.5q0 -37 14.5 -71.5t38.5 -64.5t50 -57z"/>
<glyph unicode="'" horiz-adv-x="569" d="M287 936l110 569h258l-110 -569h-258z"/>
<glyph unicode="(" horiz-adv-x="758" d="M401 -207q-71 93 -116.5 217.5t-57.5 232t-12 191.5q0 154 29.5 301t87 283t143.5 259t199 228h295q-96 -107 -178.5 -229t-143 -254.5t-95 -274t-34.5 -288.5q0 -177 45 -345.5t133 -320.5h-295z"/>
<glyph unicode=")" horiz-adv-x="758" d="M-12 -207q154 174 258 360t148 363t44 324q0 176 -45 345t-135 320h295q74 -99 118 -219.5t57 -228.5t13 -193q0 -235 -65.5 -445.5t-173 -365.5t-219.5 -260h-295z"/>
<glyph unicode="*" horiz-adv-x="926" d="M469 705l-174 124l168 213l-260 76l71 201l250 -90l-10 276h217l-10 -276l250 90l71 -201l-260 -76l168 -213l-174 -124l-153 219z"/>
<glyph unicode="+" d="M483 219l60 375h-350l38 242h351l57 372h283l-58 -372h350l-38 -242h-351l-59 -375h-283z"/>
<glyph unicode="," horiz-adv-x="553" d="M221 -274l-125 114q34 48 56 86.5t37.5 87t15.5 90.5q0 28 -11.5 56t-43.5 45l28 112h299q5 -18 7.5 -48.5t2.5 -55.5q0 -107 -47 -204.5t-105 -165t-114 -117.5z"/>
<glyph unicode="-" horiz-adv-x="766" d="M233 750h537l-43 -265h-537z"/>
<glyph unicode="." horiz-adv-x="561" d="M303 -20q-41 0 -74.5 13t-58 35.5t-38 53t-13.5 65.5q0 54 29 95.5t71.5 58t83.5 16.5q62 0 106 -27.5t62 -67t18 -75.5q0 -54 -30 -94.5t-72 -56.5t-84 -16z"/>
<glyph unicode="/" horiz-adv-x="662" d="M-8 0l655 1505h260l-655 -1505h-260z"/>
<glyph unicode="0" d="M594 -20q-122 0 -199 43t-120.5 110.5t-59.5 148.5t-16 158q0 256 51 444.5t136 313t195.5 185.5t229.5 61q101 0 175.5 -33.5t119.5 -89t65.5 -118t27.5 -120.5t7 -100q0 -260 -51 -449t-136 -312t-195.5 -182.5t-229.5 -59.5zM616 213q84 0 142.5 91.5t91.5 221.5 t49 263.5t16 201.5q0 77 -11 125t-43 71t-73 23q-71 0 -124.5 -67t-88.5 -172.5t-54.5 -223.5t-25.5 -198.5t-6 -116.5q0 -45 4 -84.5t17.5 -69.5t38.5 -47.5t67 -17.5z"/>
<glyph unicode="1" d="M231 0l35 219h248l145 928q-16 -4 -41.5 -11t-55 -15.5t-60 -17t-56.5 -16.5t-46 -14t-27 -8l37 233l333 125h242l-190 -1204h243l-34 -219h-773z"/>
<glyph unicode="2" d="M115 0l28 229q59 60 406 385q53 50 109.5 104t103 110.5t76.5 115.5t30 119q0 45 -18.5 79t-62 50t-101.5 16q-86 0 -180.5 -38t-151.5 -76l41 266q55 27 117 46t125 28.5t123 9.5q152 0 247.5 -52t126.5 -128.5t31 -147.5q0 -103 -38 -191.5t-94 -163t-119 -135 t-113 -106.5q-85 -77 -165.5 -146.5t-156.5 -137.5h588l-39 -236h-913z"/>
<glyph unicode="3" d="M514 -20q-121 0 -220 24t-137.5 46t-47.5 28l102 215q13 -7 37.5 -19t60 -24t80 -20.5t98.5 -8.5q95 0 164 33t97 88.5t28 118.5q0 54 -22 92t-83.5 59t-150.5 21h-90l37 237h88q88 0 158 29.5t97.5 76.5t27.5 97q0 41 -21 71.5t-67 48t-107 17.5q-68 0 -132.5 -16 t-115.5 -38t-76 -36l39 252q63 25 117 39.5t122 23.5t128 9q158 0 253 -56.5t121.5 -130.5t26.5 -131q0 -79 -26.5 -141.5t-67 -108.5t-88.5 -76.5t-90 -45.5q74 -24 123 -70t69.5 -105.5t20.5 -117.5q0 -105 -39.5 -193t-112.5 -152t-175 -100t-226 -36z"/>
<glyph unicode="4" d="M672 0l49 313h-600l33 217q162 218 353.5 441t405.5 452h254l-141 -886h139l-35 -224h-139l-49 -313h-270zM420 537h336l78 499q-109 -116 -219.5 -248.5t-194.5 -250.5z"/>
<glyph unicode="5" d="M500 -20q-77 0 -139 9.5t-109 23t-79 28.5t-48 25l94 213q29 -15 72 -29t94.5 -22.5t93.5 -8.5q56 0 114.5 15.5t106 51t77.5 92.5t30 140q0 74 -36 120t-101.5 63.5t-139.5 17.5q-82 0 -254 -39l170 743h721l-37 -237h-501l-60 -258q40 10 107 10q215 0 319.5 -99 t104.5 -276q0 -125 -42 -231.5t-120 -184.5t-189 -122.5t-249 -44.5z"/>
<glyph unicode="6" d="M629 -20q-127 0 -209.5 42t-130.5 110t-67 153.5t-19 173.5q0 87 16 189.5t52.5 208.5t93.5 202.5t132.5 174t177.5 130.5t180 66.5t163 13.5q55 0 105.5 -6.5t76.5 -12.5l-35 -217q-75 15 -135 15q-167 0 -276.5 -82t-173.5 -258q27 22 66 41t88.5 30t101.5 11 q124 0 207.5 -56.5t113 -140.5t29.5 -162q0 -169 -50.5 -296t-140 -203t-184.5 -101.5t-182 -25.5zM653 205q75 0 132 51t81.5 139.5t24.5 182.5q0 60 -21.5 100t-64 59t-92.5 19q-56 0 -99.5 -27t-73.5 -75t-45.5 -113t-15.5 -140q0 -38 9 -73.5t29.5 -62.5t54 -43.5 t81.5 -16.5z"/>
<glyph unicode="7" d="M229 0q70 141 173 329.5t176 313.5q121 207 340 545h-629l37 235h923l-35 -229q-19 -24 -97 -146.5t-191 -310.5q-85 -143 -204 -359t-202 -378h-291z"/>
<glyph unicode="8" d="M602 -25q-113 0 -198.5 28t-143 77t-86.5 115t-29 141q0 107 57.5 197t132 137t136.5 71q-74 54 -113 113t-47 105t-8 85q0 96 38 171t105 127t158 79t197 27q152 0 251.5 -52.5t134 -122t34.5 -128.5q0 -105 -40.5 -184t-104.5 -129t-126 -84q79 -52 125 -110t59 -112 t13 -96q0 -105 -41.5 -189t-115 -143.5t-173 -91t-215.5 -31.5zM633 197q69 0 126.5 32.5t81 79.5t23.5 92q0 50 -18 89.5t-62.5 75.5t-107.5 65q-135 -57 -194.5 -122.5t-59.5 -141.5q0 -36 12 -67.5t38 -54t65.5 -35.5t95.5 -13zM752 856q71 36 116.5 76t66.5 84t21 86 q0 44 -23.5 76.5t-65.5 47.5t-91 15q-51 0 -90.5 -14.5t-66.5 -39t-41.5 -56.5t-14.5 -66q0 -26 8 -51.5t29.5 -51.5t58 -52.5t93.5 -53.5z"/>
<glyph unicode="9" d="M393 -18q-75 0 -123 7t-69 15l51 211q40 -10 117 -10q88 0 158 19t125 60.5t97 106t74 156.5q-14 -9 -35 -22t-50.5 -25t-67 -20.5t-84.5 -8.5q-90 0 -157.5 26t-113 74t-68 116t-22.5 151q0 164 47 279.5t124 188.5t175 106.5t201 33.5q130 0 214.5 -42t134 -110 t68.5 -154t19 -173q0 -93 -18.5 -202t-58.5 -218.5t-104 -211.5t-154.5 -180.5t-209.5 -125.5t-270 -47zM696 680q80 0 136.5 54.5t77 136.5t20.5 157q0 65 -22.5 109t-63.5 64t-88 20q-50 0 -93.5 -22t-75.5 -67t-50.5 -113t-18.5 -159q0 -38 9 -71t29.5 -57t54.5 -38 t85 -14z"/>
<glyph unicode=":" horiz-adv-x="561" d="M303 -20q-41 0 -74.5 13t-58 35.5t-38 53t-13.5 65.5q0 54 29 95.5t71.5 58t83.5 16.5q62 0 106 -27.5t62 -67t18 -75.5q0 -54 -30 -94.5t-72 -56.5t-84 -16zM420 707q-41 0 -75 13t-58 35.5t-37.5 53t-13.5 65.5q0 54 29 95.5t71 58t84 16.5q62 0 106 -27.5t62 -67 t18 -75.5q0 -54 -29.5 -94.5t-72.5 -56.5t-84 -16z"/>
<glyph unicode=";" horiz-adv-x="557" d="M92 -170q35 49 68.5 113t42.5 118q8 47 -1.5 84.5t-49.5 59.5l36 112h297q7 -40 8 -85t-6 -82q-12 -79 -51 -159.5t-97.5 -149t-113.5 -115.5zM422 707q-41 0 -75 13t-58 35.5t-37.5 53t-13.5 65.5q0 36 13.5 67.5t37.5 54t58 35.5t75 13q40 0 84 -17t73 -58t29 -95 q0 -35 -18 -74.5t-64 -66t-104 -26.5z"/>
<glyph unicode="&lt;" d="M1116 219l-923 375l38 242l1041 372l-41 -270l-711 -236l637 -233z"/>
<glyph unicode="=" d="M154 350l39 242h983l-39 -242h-983zM231 836l37 241h983l-37 -241h-983z"/>
<glyph unicode="&gt;" d="M135 219l41 270l711 236l-637 233l41 250l923 -374l-38 -242z"/>
<glyph unicode="?" horiz-adv-x="1065" d="M502 -20q-37 0 -70.5 11.5t-59 33.5t-40.5 53t-15 69q0 56 30.5 97.5t73.5 57t81 15.5q56 0 101.5 -26t65 -65.5t19.5 -78.5q0 -56 -31.5 -96t-74.5 -55.5t-80 -15.5zM412 477l14 92q16 98 59 163.5t95.5 102t91.5 60.5q67 41 96.5 67t43 56t13.5 63q0 58 -31 87 t-71 35.5t-70 6.5q-85 0 -165.5 -29t-170.5 -75l23 252q99 43 196 64.5t205 21.5q120 0 210 -40t131.5 -113.5t41.5 -157.5q0 -95 -34.5 -168t-83 -119t-88.5 -76q-38 -28 -74.5 -52.5t-66.5 -53t-51.5 -64t-29.5 -84.5l-6 -39h-278z"/>
<glyph unicode="@" horiz-adv-x="1860" d="M1081 -436q-207 0 -369.5 64t-274 178.5t-170 273.5t-58.5 350q0 190 70 355t198.5 282t283 167t306.5 50q179 0 324 -54.5t247 -151t157.5 -230t55.5 -291.5q0 -135 -40 -241.5t-105 -181t-148.5 -113.5t-171.5 -39q-90 0 -144.5 34.5t-80.5 89.5q-50 -58 -114 -91 t-158 -33q-65 0 -121 23t-97 68t-64 113t-23 158q0 187 77 319.5t179 180t186 47.5q61 0 104.5 -15t69.5 -35t37 -32l12 63h205l-100 -567q-8 -59 -8 -80q0 -16 7.5 -30t22.5 -19.5t37 -5.5q60 0 114.5 58t80.5 147t26 186q0 168 -85 293t-216 176t-262 51 q-141 0 -258.5 -47.5t-202.5 -134t-132.5 -208.5t-47.5 -271q0 -158 48 -280.5t133 -206t201.5 -126.5t254.5 -43q108 0 210 19.5t165.5 40t79.5 26.5l67 -180q-67 -27 -161.5 -52.5t-186.5 -39.5t-160 -14zM956 172q64 0 108 45.5t61.5 104t23.5 98.5l37 231 q-5 6 -14.5 15.5t-25.5 18.5t-39 15.5t-54 6.5q-49 0 -91.5 -28t-73.5 -76.5t-49 -114.5t-18 -142q0 -41 6.5 -73.5t22.5 -55t42 -34t64 -11.5z"/>
<glyph unicode="A" horiz-adv-x="1282" d="M16 0q45 107 97.5 227.5t111 246.5t121.5 254t127.5 250.5t129.5 235.5t128 209h268q31 -96 60 -209t54.5 -235.5t48 -250.5t42 -254t35 -246.5t27.5 -227.5h-287q-14 149 -31 299h-522q-34 -78 -64 -151.5t-61 -147.5h-285zM528 530h394q-14 140 -39.5 287t-63.5 316 q-62 -111 -135.5 -264.5t-155.5 -338.5z"/>
<glyph unicode="B" horiz-adv-x="1298" d="M178 0l225 1423h467q117 0 192.5 -30.5t119.5 -76t61 -97.5t17 -95q0 -100 -40.5 -178.5t-87 -115t-79.5 -50.5q79 -32 125 -84t59.5 -109.5t13.5 -105.5q0 -114 -40.5 -203t-113.5 -151t-173.5 -94.5t-221.5 -32.5h-524zM492 227h184q130 0 201 62t71 180q0 60 -25 98 t-73 54t-105 16h-190zM592 864h135q84 0 141.5 31t77 78.5t19.5 91.5q0 40 -18 70.5t-60 45.5t-99 15h-145z"/>
<glyph unicode="C" horiz-adv-x="1192" d="M776 -20q-135 0 -237.5 37.5t-167 102t-99.5 150.5t-43 156t-8 129q0 119 21.5 231.5t64 211t106.5 180.5t149 141.5t191 92t232 32.5q77 0 150.5 -10.5t124 -24t65.5 -20.5l-39 -248q-23 11 -72 24t-110.5 23t-122.5 10q-114 0 -199.5 -49.5t-141.5 -135t-84 -199.5 t-28 -243q0 -71 17 -133t55 -107.5t99.5 -71.5t150.5 -26q72 0 143.5 13t128.5 35l68 -228q-47 -20 -128.5 -39t-154.5 -26.5t-131 -7.5z"/>
<glyph unicode="D" horiz-adv-x="1399" d="M178 0l225 1423h428q161 0 270 -44.5t176 -120t95.5 -175t28.5 -209.5q0 -207 -53 -369.5t-150 -274.5t-234 -171t-305 -59h-481zM504 231h170q87 0 163.5 38t133.5 116.5t90 197.5t33 281q0 105 -35.5 181.5t-102 111.5t-145.5 35h-156z"/>
<glyph unicode="E" horiz-adv-x="1147" d="M178 0l225 1423h854l-36 -235h-566l-51 -322h479l-36 -235h-480l-63 -395h598l-37 -236h-887z"/>
<glyph unicode="F" horiz-adv-x="1044" d="M178 0l225 1423h828l-37 -235h-539l-51 -320h426l-37 -235h-426l-100 -633h-289z"/>
<glyph unicode="G" horiz-adv-x="1339" d="M825 -18q-118 0 -208.5 21.5t-157.5 59.5t-112.5 91t-73.5 116.5t-40 134.5t-12 146q0 226 63 394t169.5 280t248 167.5t297.5 55.5q115 0 214 -17t159 -36l-39 -242q-44 14 -95.5 25.5t-107 18.5t-112.5 7q-128 0 -220.5 -51.5t-152.5 -140t-88.5 -207.5t-28.5 -254 q0 -68 15 -127.5t52.5 -103t100.5 -68.5t160 -25q50 0 98 4l56 351h-205l39 239h487l-131 -821q-162 -17 -375 -18z"/>
<glyph unicode="H" horiz-adv-x="1405" d="M178 0l225 1423h289l-84 -524h471l84 524h289l-225 -1423h-289l104 664h-471l-104 -664h-289z"/>
<glyph unicode="I" horiz-adv-x="645" d="M178 0l225 1423h289l-225 -1423h-289z"/>
<glyph unicode="J" horiz-adv-x="1020" d="M403 -25q-77 0 -136 13.5t-101.5 31.5t-69.5 37t-41 31l111 211q34 -25 61.5 -41t72 -27.5t89.5 -11.5q87 0 142.5 40.5t80 103t33.5 122.5l146 938h288l-157 -993q-16 -103 -56 -187t-104.5 -143.5t-154 -92t-204.5 -32.5z"/>
<glyph unicode="K" horiz-adv-x="1319" d="M178 0l225 1423h289l-88 -561l533 561h346l-647 -661q109 -121 199.5 -260.5t155 -268t107.5 -233.5h-337q-52 118 -120 238t-140 227t-132 186l-102 -651h-289z"/>
<glyph unicode="L" horiz-adv-x="1042" d="M178 0l225 1423h289l-188 -1187h549l-37 -236h-838z"/>
<glyph unicode="M" horiz-adv-x="1690" d="M162 0q17 106 38 228t45.5 250t51 258t53.5 253t53.5 234t51.5 200h278l189 -919l477 919h287q-4 -88 -13 -201t-21.5 -239t-28 -259.5t-31.5 -262.5t-32.5 -247t-31.5 -214h-264q47 296 127 971l-430 -817h-185l-172 827q-23 -131 -91 -495t-87 -486h-264z"/>
<glyph unicode="N" horiz-adv-x="1405" d="M178 0l225 1423h256q23 -39 71 -136.5t81.5 -174t91.5 -219t86.5 -225.5t46.5 -138l142 893h274l-225 -1423h-246q-42 124 -84.5 252t-87.5 257t-93 259t-102 260l-161 -1028h-275z"/>
<glyph unicode="O" horiz-adv-x="1438" d="M723 -29q-139 0 -235.5 48.5t-156.5 127.5t-87 177.5t-27 199.5q0 117 19.5 231.5t58.5 217.5t98.5 191t139.5 152t180.5 100t222.5 36q141 0 242.5 -51t163.5 -141.5t82 -184t20 -174.5q0 -159 -35 -308.5t-107.5 -276t-175 -208.5t-202 -109.5t-201.5 -27.5zM741 205 q86 0 159.5 49.5t127 142.5t83.5 225.5t30 297.5q0 89 -24.5 158t-77.5 105t-121 36q-86 0 -159.5 -50t-127 -142.5t-83.5 -225t-30 -297.5q0 -49 9 -102t34 -96.5t68.5 -72t111.5 -28.5z"/>
<glyph unicode="P" horiz-adv-x="1217" d="M178 0l225 1423h449q112 0 194 -26t136 -72.5t80 -110.5t26 -141q0 -125 -39.5 -224t-114.5 -168t-183 -105.5t-244 -36.5h-164l-86 -539h-279zM578 766h127q102 0 168.5 34t92 98.5t25.5 135.5q0 50 -24.5 87.5t-72.5 56t-106 18.5h-143z"/>
<glyph unicode="Q" horiz-adv-x="1438" d="M1163 -215q-52 49 -100.5 108.5t-93.5 122.5q-56 -21 -116.5 -33t-129.5 -12q-139 0 -235.5 48.5t-156.5 127.5t-87 177.5t-27 199.5q0 117 19.5 231.5t58.5 217.5t98.5 191t139.5 152t180.5 100t222.5 36q141 0 242.5 -51t163.5 -141.5t82 -184t20 -174.5 q0 -111 -17.5 -219.5t-52.5 -207.5t-89 -185.5t-126 -153.5q128 -156 174 -196zM741 205q49 0 99 18q-41 71 -66.5 126t-36.5 83l166 90q16 -37 40.5 -80t55.5 -90q66 93 104 236t38 332q0 89 -24.5 158t-77.5 105t-121 36q-86 0 -159.5 -50t-127 -142.5t-83.5 -225 t-30 -297.5q0 -49 9 -102t34 -96.5t68.5 -72t111.5 -28.5z"/>
<glyph unicode="R" horiz-adv-x="1331" d="M178 0l225 1423h424q171 0 275.5 -55t137 -136t32.5 -155q0 -103 -40.5 -194.5t-100.5 -146.5t-119 -89q66 -99 120.5 -218t92 -229t63.5 -200h-313q-43 129 -80 226t-80 189t-78 142h-194l-88 -557h-277zM580 784h120q95 0 160 36t90 94.5t25 117.5q0 54 -20.5 90.5 t-69.5 55t-113 18.5h-129z"/>
<glyph unicode="S" horiz-adv-x="1128" d="M512 -25q-121 0 -231.5 23.5t-152 41.5t-52.5 23l90 236q12 -9 81 -33.5t135.5 -36.5t127.5 -12q117 0 189 30.5t92 77.5t20 89q0 59 -39.5 97t-106 68t-130.5 60q-51 23 -102 51t-91.5 68t-66 96.5t-25.5 136.5q0 154 90.5 264.5t221 151.5t251.5 41q110 0 208 -16.5 t165 -36.5l-39 -238q-35 10 -92 24.5t-124.5 22.5t-121.5 8q-99 0 -164.5 -29t-85.5 -71t-20 -82q0 -41 23 -69.5t61 -50t86.5 -41t99.5 -42.5q118 -53 181.5 -102t92.5 -121t29 -158q0 -109 -39.5 -196t-116 -148t-188.5 -94t-256 -33z"/>
<glyph unicode="T" horiz-adv-x="1090" d="M401 0l187 1180h-375l39 243h1036l-39 -243h-372l-187 -1180h-289z"/>
<glyph unicode="U" horiz-adv-x="1378" d="M700 -25q-100 0 -184 25t-145.5 74.5t-96 122.5t-34.5 170v38q0 49 14 150l137 868h289l-145 -915q-7 -41 -7 -88q0 -52 14 -89t39.5 -60.5t62.5 -34.5t83 -11q52 0 97 13t80 43t59.5 79.5t35.5 122.5l150 940h289l-156 -981q-19 -123 -70 -211t-127 -145t-174 -84 t-211 -27z"/>
<glyph unicode="V" horiz-adv-x="1292" d="M532 0q-42 144 -84 317.5t-80.5 359.5t-72 376.5t-57.5 369.5h299q27 -206 72.5 -480t101.5 -544q98 190 186 376.5t171 371t126 276.5h311q-53 -119 -112.5 -244t-123 -251t-129 -251t-130.5 -243t-128 -228t-122 -206h-228z"/>
<glyph unicode="W" horiz-adv-x="1819" d="M424 0q-29 146 -57.5 320.5t-53.5 360.5t-44.5 375.5t-30.5 366.5h292q7 -114 25.5 -332t32.5 -351.5t28 -270.5l385 920h254l97 -928q127 284 213.5 503.5t167.5 458.5h299q-58 -162 -140 -365t-169 -398t-178 -375t-150 -285h-250l-84 971l-389 -971h-248z"/>
<glyph unicode="X" horiz-adv-x="1321" d="M27 0l585 727q-111 233 -184.5 406.5t-112.5 289.5h301q23 -72 57 -163t68.5 -175t57.5 -135q89 114 195 258t153 215h303q-84 -131 -194 -278.5t-332 -429.5l368 -715h-327l-232 487l-385 -487h-321z"/>
<glyph unicode="Y" horiz-adv-x="1262" d="M485 0l101 639q-59 101 -132 250.5t-126 284t-90 249.5h286q42 -112 99.5 -249.5t140.5 -303.5q111 132 209 264.5t205 288.5h297q-104 -161 -220.5 -316.5t-215 -274t-162.5 -191.5l-103 -641h-289z"/>
<glyph unicode="Z" horiz-adv-x="1126" d="M53 0l37 229q96 132 224 294t221 274q120 145 344 391h-609l37 235h961l-35 -229q-16 -16 -142.5 -155.5t-277.5 -315.5q-95 -111 -219.5 -264t-177.5 -223h694l-37 -236h-1020z"/>
<glyph unicode="[" horiz-adv-x="725" d="M123 -207l270 1712h504l-35 -221h-225l-201 -1270h226l-35 -221h-504z"/>
<glyph unicode="\" horiz-adv-x="655" d="M371 0l-158 1505h258l158 -1505h-258z"/>
<glyph unicode="]" horiz-adv-x="725" d="M12 -207l35 221h225l201 1270h-225l35 221h503l-270 -1712h-504z"/>
<glyph unicode="^" horiz-adv-x="1198" d="M162 598l526 825h246l266 -825h-285l-153 496l-309 -496h-291z"/>
<glyph unicode="_" horiz-adv-x="1024" d="M0 -434v102h1024v-102h-1024z"/>
<glyph unicode="`" horiz-adv-x="889" d="M551 1141l-178 282h301l131 -282h-254z"/>
<glyph unicode="a" horiz-adv-x="1221" d="M537 -20q-75 0 -139 23.5t-110.5 74t-73 128.5t-26.5 187q0 166 42 292t112 210.5t161 127t189 42.5q69 0 121 -19.5t82 -46.5t43 -45l27 90h260l-109 -682q-16 -99 -16 -128v-27q0 -67 11.5 -120t23.5 -87h-281q-8 25 -14.5 66.5t-8.5 56.5q-30 -43 -85 -79t-110.5 -50 t-98.5 -14zM645 203q81 0 134 68t73 198l47 297q-15 17 -34 30.5t-49 24t-60 10.5q-62 0 -111 -31t-84 -85.5t-53.5 -130t-18.5 -164.5q0 -49 9 -89t28 -68.5t48.5 -44t70.5 -15.5z"/>
<glyph unicode="b" horiz-adv-x="1202" d="M668 -20q-69 0 -124.5 23t-76 43.5t-25.5 29.5l-20 -76h-264l237 1505h281l-88 -557q31 37 72.5 64t94 40t109.5 13q123 0 201 -64.5t101.5 -154.5t23.5 -168q0 -168 -42 -298t-114 -219t-166.5 -135t-199.5 -46zM635 203q88 0 150 74t84 174.5t22 187.5 q0 60 -15.5 103.5t-50.5 66t-80 22.5q-83 0 -142.5 -80.5t-84.5 -238.5l-37 -238q23 -34 58.5 -52.5t95.5 -18.5z"/>
<glyph unicode="c" horiz-adv-x="952" d="M623 -16q-121 0 -203 35t-132.5 96.5t-72.5 143.5t-22 177q0 135 42 249.5t118.5 198t184.5 130.5t240 47q72 0 144.5 -11.5t105.5 -23.5l-37 -223q-5 1 -20 5.5t-39 9t-56.5 8t-70.5 3.5q-68 0 -126 -24.5t-100.5 -72t-67 -117.5t-24.5 -160q0 -55 11 -99t36.5 -75 t66 -47.5t99.5 -16.5q56 0 113.5 13t81.5 24l66 -203q-36 -15 -91 -32t-118 -26t-129 -9z"/>
<glyph unicode="d" horiz-adv-x="1206" d="M532 -20q-75 0 -138 23.5t-108 74t-70.5 129.5t-25.5 190q0 167 41 292t109.5 208.5t157.5 125.5t186 42q78 0 130.5 -21.5t77 -44t34.5 -34.5l86 540h280l-237 -1505h-258l6 98q-35 -36 -81.5 -64.5t-95.5 -41t-94 -12.5zM643 203q81 0 133 68t72 198l47 297 q-12 14 -34 30.5t-52.5 25.5t-58.5 9q-92 0 -154 -67t-83 -161t-21 -183q0 -49 8 -89t26 -68.5t46.5 -44t70.5 -15.5z"/>
<glyph unicode="e" horiz-adv-x="1110" d="M655 -25q-131 0 -220 35t-144 96t-79 142.5t-24 173.5q0 121 40 239t121 216.5t197 145t234 46.5q111 0 197 -39.5t124 -107.5t38 -148t-32 -153t-105.5 -129t-192 -89.5t-291.5 -33.5h-53q14 -94 69.5 -135t143.5 -41q41 0 92 7.5t93.5 19.5t76.5 28l72 -201 q-56 -22 -111 -37t-122 -25t-124 -10zM473 561h31q124 0 203 22.5t118 59.5t47.5 69.5t8.5 55.5q0 40 -16.5 64.5t-47.5 37.5t-65 13q-64 0 -128 -45.5t-100 -119t-51 -157.5z"/>
<glyph unicode="f" horiz-adv-x="682" d="M80 -381l-107 166l48 32t62 57t60 93.5t41 141.5l113 714h-119l35 221h117l22 142q14 86 48.5 150t85.5 106t116.5 63t142.5 21q75 0 135.5 -10t94.5 -19l-33 -205q-83 19 -149 19q-71 0 -112 -35.5t-54 -124.5l-17 -107h219l-34 -221h-217l-113 -727q-13 -84 -42 -150 t-66.5 -116.5t-79.5 -87t-80.5 -61.5t-69.5 -40t-47 -22z"/>
<glyph unicode="g" horiz-adv-x="1208" d="M502 -434q-116 0 -193.5 14t-128.5 31l51 199q29 -8 88.5 -20.5t155.5 -12.5q110 0 174.5 32.5t91.5 90t37 118.5l17 103q-42 -47 -107 -80t-153 -33q-75 0 -138 21.5t-108.5 69.5t-70.5 125t-25 188q0 157 40.5 278.5t109 205t157.5 126.5t186 43q82 0 137 -24t80.5 -51 t32.5 -36l27 90h260l-160 -1001q-22 -132 -63.5 -216.5t-104.5 -137.5q-75 -65 -175 -94t-218 -29zM645 231q81 0 134 61t73 191l45 283q-12 14 -34 30.5t-52 25.5t-59 9q-90 0 -152.5 -69t-84 -159.5t-21.5 -168.5q0 -99 34 -151t117 -52z"/>
<glyph unicode="h" horiz-adv-x="1202" d="M158 0l237 1505h281l-90 -569q48 57 123 93t174 36q104 0 171.5 -40t89 -99t21.5 -115q0 -67 -22 -219l-92 -592h-281l88 553q19 121 19 166q0 110 -119 110q-61 0 -114 -40.5t-79 -92t-33 -96.5l-94 -600h-280z"/>
<glyph unicode="i" horiz-adv-x="643" d="M190 0l136 850q-9 1 -24 3.5t-32.5 4.5t-35 3.5t-31.5 2.5l28 180h406l-166 -1044h-281zM518 1212q-35 0 -65.5 12.5t-54 33.5t-37 49.5t-13.5 60.5q0 50 28 87.5t67 54t75 16.5q48 0 91.5 -25t62 -62.5t18.5 -70.5q0 -50 -30.5 -88.5t-69 -53t-72.5 -14.5z"/>
<glyph unicode="j" horiz-adv-x="643" d="M57 -434q-64 0 -131.5 14t-87.5 27l41 184q11 -6 47.5 -15t83.5 -9q54 0 88 18t54 58.5t28 93.5l146 913q-9 1 -24 3.5t-32.5 4.5t-35 3.5t-31.5 2.5l28 180h406l-168 -1054q-25 -152 -74 -246t-138 -136t-200 -42zM518 1212q-35 0 -65.5 12.5t-54 33.5t-37 49.5 t-13.5 60.5q0 50 28 87.5t67 54t75 16.5q48 0 91.5 -25t62 -62.5t18.5 -70.5q0 -50 -30.5 -88.5t-69 -53t-72.5 -14.5z"/>
<glyph unicode="k" horiz-adv-x="1110" d="M158 0l237 1505h281l-133 -846l364 385h336l-463 -458q73 -96 158.5 -244.5t169.5 -341.5h-328q-21 49 -51 109t-65 125t-73 132t-75 130l-78 -496h-280z"/>
<glyph unicode="l" horiz-adv-x="592" d="M160 0l207 1311q-9 1 -24 3.5t-33 4.5t-35.5 3.5t-30.5 2.5l28 180h406l-238 -1505h-280z"/>
<glyph unicode="m" horiz-adv-x="1774" d="M158 0l166 1044h256l-5 -120q26 43 77.5 78t108 49t105.5 14q79 0 134 -23.5t84.5 -61.5t41.5 -73q38 52 101 90.5t124 53t107 14.5q105 0 170 -39.5t87 -99t22 -115.5q0 -73 -23 -219l-92 -592h-281l89 553q18 114 18 166q0 56 -27 83t-78 27q-58 0 -108.5 -40t-77 -92 t-33.5 -97l-94 -600h-280l88 553q18 114 18 166q0 56 -26.5 83t-77.5 27q-59 0 -109.5 -40t-77 -92t-33.5 -97l-94 -600h-280z"/>
<glyph unicode="n" horiz-adv-x="1202" d="M158 0l166 1044h256l-5 -120q47 62 124.5 101.5t183.5 39.5q104 0 171.5 -40t89 -99t21.5 -115q0 -101 -20 -219l-94 -592h-281l88 553q19 121 19 166q0 110 -119 110q-61 0 -114 -40.5t-79 -92t-33 -96.5l-94 -600h-280z"/>
<glyph unicode="o" horiz-adv-x="1192" d="M604 -25q-108 0 -186.5 34t-129.5 92.5t-75.5 135.5t-24.5 164q0 155 44.5 279t122.5 210.5t182.5 132.5t224.5 46q153 0 252 -70t131.5 -170t32.5 -186q0 -155 -44.5 -279t-122.5 -210.5t-182.5 -132.5t-224.5 -46zM631 193q87 0 147 73t82.5 181.5t22.5 203.5 q0 31 -4.5 66.5t-20.5 65.5t-45.5 49.5t-79.5 19.5q-88 0 -149 -77.5t-81 -182.5t-20 -199q0 -32 4.5 -67t20 -64.5t45 -49t78.5 -19.5z"/>
<glyph unicode="p" horiz-adv-x="1204" d="M92 -414l232 1458h256l-5 -120q26 40 66 72t99.5 50.5t127.5 18.5q123 0 201 -64.5t101.5 -154.5t23.5 -168q0 -168 -42.5 -298.5t-115 -220t-169 -136t-205.5 -46.5q-46 0 -83 8.5t-64.5 20t-45 23t-23.5 16.5l-73 -459h-281zM637 203q88 0 150 74t84 174.5t22 187.5 q0 60 -16 104t-49.5 66t-79.5 22q-84 0 -143 -80.5t-85 -238.5l-39 -238q23 -34 59.5 -52.5t96.5 -18.5z"/>
<glyph unicode="q" horiz-adv-x="1206" d="M709 -414l82 520q-42 -46 -107 -79t-154 -33q-75 0 -138 21.5t-108 69.5t-70.5 124.5t-25.5 187.5q0 163 41 287.5t110 209t158.5 128t186.5 43.5q82 0 137 -24t80.5 -51t32.5 -36l27 90h260l-232 -1458h-280zM641 217q81 0 134 61t73 191l47 297q-12 14 -34 30.5 t-52.5 25.5t-58.5 9q-62 0 -110.5 -33t-82 -89.5t-51 -131t-17.5 -157.5q0 -98 34.5 -150.5t117.5 -52.5z"/>
<glyph unicode="r" horiz-adv-x="799" d="M158 0l166 1044h264l-21 -178q59 96 134.5 143.5t158.5 47.5q29 0 53.5 -4.5t32.5 -8.5l-41 -258q-14 4 -41 7.5t-61 3.5q-87 0 -153 -51t-94.5 -114.5t-35.5 -109.5l-82 -522h-280z"/>
<glyph unicode="s" horiz-adv-x="973" d="M479 -20q-84 0 -151.5 9.5t-117 22t-81 25.5t-45.5 20l80 211q38 -18 87 -34.5t101 -24.5t105 -8q111 0 161 22.5t50 79.5q0 36 -36 59.5t-94.5 44.5t-105.5 39q-112 42 -166.5 102t-54.5 152q0 129 73.5 216t180.5 118t205 31q102 0 179.5 -11.5t143.5 -33.5l-35 -213 q-22 6 -55.5 13.5t-72 14t-79 11t-77.5 4.5q-75 0 -118 -15t-55 -38t-12 -43q0 -35 36 -58t90 -40t100 -33q93 -35 142.5 -72.5t71 -88.5t21.5 -106q0 -89 -34 -159t-95.5 -118t-148.5 -73.5t-193 -25.5z"/>
<glyph unicode="t" horiz-adv-x="774" d="M487 -20q-70 0 -119 17.5t-80 49t-45 76t-14 98.5q0 39 7 80l83 522h-147l35 221h147l35 222q60 21 139 52.5t160 70.5l-53 -345h252l-35 -221h-252l-78 -489q-4 -26 -4 -43q0 -50 21.5 -70t64.5 -20q58 0 127 22l53 -200q-49 -16 -124.5 -29.5t-172.5 -13.5z"/>
<glyph unicode="u" horiz-adv-x="1202" d="M483 -20q-72 0 -125 18.5t-88 52t-52 80t-17 102.5q0 66 22 220l92 591h281l-88 -552q-19 -122 -19 -166q0 -111 119 -111q57 0 112 40t81 92t33 97l94 600h280l-166 -1044h-256l5 121q-47 -62 -124.5 -101.5t-183.5 -39.5z"/>
<glyph unicode="v" horiz-adv-x="1049" d="M389 0q-30 132 -73.5 339t-78.5 393t-55 312h281q18 -167 46 -360t60 -395q106 217 192.5 407t147.5 348h289q-59 -133 -126.5 -272t-140 -275t-146.5 -262.5t-144 -234.5h-252z"/>
<glyph unicode="w" horiz-adv-x="1470" d="M299 0q-12 74 -24 160.5t-24 179.5t-22.5 188.5t-20 187t-16 175.5t-10.5 153h275q4 -174 35 -706l292 684h222l55 -698q88 195 156 369.5t124 350.5h279q-56 -163 -151 -376.5t-183 -383t-156 -284.5h-247l-49 659l-287 -659h-248z"/>
<glyph unicode="x" horiz-adv-x="1063" d="M23 0l444 518q-26 49 -86.5 171.5t-95 207t-56.5 147.5h271q17 -52 57 -146t84 -185q58 77 138.5 186.5t105.5 144.5h278q-86 -128 -186 -256.5t-223 -277.5l282 -510h-307l-149 307l-248 -307h-309z"/>
<glyph unicode="y" horiz-adv-x="1087" d="M129 -434q-74 0 -127.5 17t-79.5 36l76 205q15 -11 47.5 -22t77.5 -11q47 0 84.5 16t69 45t59 68.5t53.5 87.5l49 90q-51 150 -110.5 365.5t-96 366.5t-49.5 214h297q18 -95 43.5 -208.5t57 -247t53.5 -221.5q90 183 170.5 355.5t140.5 321.5h293q-62 -133 -130 -272.5 t-139.5 -277t-145 -268.5t-146.5 -246q-60 -95 -117 -171.5t-120.5 -130.5t-138.5 -83t-171 -29z"/>
<glyph unicode="z" horiz-adv-x="985" d="M53 0l33 215q84 99 168.5 187t163.5 167q66 66 154.5 149.5t113.5 104.5h-471l35 221h817l-35 -215q-61 -51 -309 -288q-90 -87 -172 -169.5t-143 -150.5h536l-35 -221h-856z"/>
<glyph unicode="{" horiz-adv-x="735" d="M543 -207q-159 0 -239.5 55t-80.5 154q0 57 17 166l20 143q8 69 8 117q0 50 -31 77t-100 27l37 232q71 0 110.5 28.5t53.5 74t22 91.5l46 285q21 135 107 198.5t218 63.5h189l-35 -227h-76q-45 0 -68 -9t-36.5 -32.5t-18.5 -56.5l-43 -273q-14 -85 -56.5 -152.5 t-131.5 -113.5q55 -37 79.5 -86.5t24.5 -101.5q0 -78 -10 -142l-25 -153q-10 -52 -10 -78q0 -28 24.5 -44t67.5 -16h78l-35 -227h-106z"/>
<glyph unicode="|" horiz-adv-x="659" d="M193 -207l270 1712h209l-271 -1712h-208z"/>
<glyph unicode="}" horiz-adv-x="735" d="M20 -207l35 227h76q24 0 44 3t36 13.5t27 30t16 52.5l43 272q14 85 56.5 152.5t131.5 113.5q-55 38 -79.5 87t-24.5 102q0 77 10 141l25 154q10 52 10 78q0 27 -24.5 43t-67.5 16h-78l35 227h106q159 0 239.5 -55t80.5 -154q0 -58 -17 -166l-20 -143q-8 -70 -8 -117 q0 -49 31 -76.5t100 -27.5l-37 -231q-50 0 -82.5 -13t-53 -38t-32 -61.5t-18.5 -82.5l-45 -285q-22 -135 -108 -198.5t-218 -63.5h-189z"/>
<glyph unicode="~" horiz-adv-x="1454" d="M360 260l-206 115q90 175 201.5 272.5t236.5 97.5q65 0 109.5 -14t84.5 -37t72 -41q136 -80 191 -80q38 0 71.5 21.5t69.5 70t67 107.5l207 -115q-69 -133 -148.5 -220t-154 -118.5t-137.5 -31.5q-77 0 -136.5 23t-135.5 69q-140 79 -187 80q-38 0 -74.5 -27.5t-68 -72.5 t-62.5 -99z"/>
<glyph horiz-adv-x="1126" d="M53 0l37 229q96 132 224 294t221 274q120 145 344 391h-609l37 235h961l-35 -229q-16 -16 -142.5 -155.5t-277.5 -315.5q-95 -111 -219.5 -264t-177.5 -223h694l-37 -236h-1020zM701 1528l-215 282h258l92 -133l139 133h266l-305 -282h-235z"/>
<glyph horiz-adv-x="985" d="M53 0l33 215q84 99 168.5 187t163.5 167q66 66 154.5 149.5t113.5 104.5h-471l35 221h817l-35 -215q-61 -51 -309 -288q-90 -87 -172 -169.5t-143 -150.5h536l-35 -221h-856zM557 1141l-215 282h258l92 -133l139 133h266l-305 -282h-235z"/>
<glyph unicode="¡" horiz-adv-x="600" d="M154 -20l153 917h279l-137 -917h-295zM496 1085q-42 0 -76 13t-59 36t-38.5 54t-13.5 67q0 56 30.5 96t72 56t84.5 16q60 0 103.5 -27.5t62 -66.5t18.5 -74q0 -54 -30 -96t-72 -58t-82 -16z"/>
<glyph unicode="¢" horiz-adv-x="958" d="M567 0l27 174q-108 6 -181.5 43t-118.5 97.5t-65 140t-20 170.5q0 130 39.5 242t112 194.5t175.5 132t230 55.5l27 174h108l-29 -176q72 -6 115 -17t57 -16l-36 -223q-82 24 -170 27l-99 -612q56 1 105.5 14t66.5 22l66 -202q-15 -6 -39.5 -16t-59 -19.5t-79 -18 t-97.5 -12.5l-26 -174h-109zM633 416l94 590q-49 -15 -90 -45.5t-70.5 -76t-46 -106t-16.5 -135.5q0 -87 29 -145.5t100 -81.5z"/>
<glyph unicode="£" horiz-adv-x="1130" d="M68 0l36 229q45 10 88 40t75 83t50 115l45 160h-161l75 221h144l49 190q38 150 128.5 245t200 128t208.5 33q108 0 190 -20.5t123 -37.5l-37 -233q-45 16 -76 25t-84.5 17.5t-103.5 8.5q-67 0 -114.5 -20.5t-80.5 -54t-53.5 -77.5t-32.5 -91l-28 -113h344l-74 -221h-328 l-35 -127q-24 -93 -61.5 -155.5t-91.5 -108.5h655l-37 -236h-1013z"/>
<glyph unicode="¤" horiz-adv-x="1194" d="M344 188l-164 160l144 144q-28 48 -44 103.5t-16 115.5t16 115.5t44 105.5l-144 143l164 160l143 -141q48 27 103 42t115 15q52 0 105 -13t116 -44l141 141l164 -160l-146 -145q60 -98 60 -219q0 -60 -15 -115t-43 -104l144 -144l-164 -160l-141 142q-50 -28 -105.5 -44 t-115.5 -16t-115 15.5t-105 44.5zM705 471q68 0 125.5 40t80.5 95.5t23 104.5q0 71 -38 130.5t-91.5 84t-99.5 24.5q-71 0 -127.5 -40t-79.5 -95t-23 -104q0 -73 39.5 -133.5t91 -83.5t99.5 -23z"/>
<glyph unicode="¥" horiz-adv-x="1243" d="M457 0l47 289h-314l46 135h290l25 168h-313l45 135h231q-39 74 -80.5 156t-82 170t-78 181t-68.5 189h270q8 -23 65 -165t101 -236.5t82 -169.5q85 109 218 286t206 285h295q-102 -158 -234.5 -329.5t-298.5 -366.5h256l-45 -135h-286l-25 -168h309l-45 -135h-287 l-47 -289h-282z"/>
<glyph unicode="¦" horiz-adv-x="659" d="M193 -207l90 572h209l-91 -572h-208zM373 934l90 571h209l-90 -571h-209z"/>
<glyph unicode="§" horiz-adv-x="1034" d="M508 -20q-81 0 -146.5 10t-116 23.5t-84.5 28.5t-52 24l73 196q18 -8 49.5 -19t73.5 -21t93 -17.5t110 -7.5q84 0 130 16.5t57.5 42t11.5 49.5q0 27 -20 46.5t-52.5 34.5t-74 27.5t-83.5 26.5q-20 6 -47.5 14.5t-57 22t-58.5 32t-52 45t-37 61.5t-14 81q0 75 38.5 138 t82.5 92t76 41q-65 44 -90 95.5t-25 123.5q0 113 72.5 195t179 113.5t209.5 31.5q124 0 205.5 -15t144.5 -34l-37 -213q-31 10 -76.5 20.5t-108.5 19.5t-120 9q-54 0 -91.5 -8t-61 -22t-34 -33.5t-10.5 -41.5q0 -24 13.5 -38t41 -25t70 -22t101.5 -29q105 -34 161.5 -64.5 t86.5 -82t30 -111.5q0 -70 -29.5 -128.5t-73 -95.5t-81.5 -57q63 -48 84.5 -101.5t21.5 -113.5q0 -80 -33.5 -146t-96 -113.5t-152 -74t-201.5 -26.5zM715 623q31 16 54 37.5t34.5 49.5t11.5 56q0 49 -52.5 77.5t-164.5 57.5q-41 -10 -74 -35t-46 -52.5t-13 -53.5 q0 -31 24.5 -53t62 -37.5t81 -26.5t82.5 -20z"/>
<glyph unicode="¨" horiz-adv-x="868" d="M430 1147q-33 0 -60.5 10t-47 28t-30.5 43t-11 54q0 43 23 77t58 48t68 14q49 0 87 -22.5t52.5 -54.5t14.5 -62q0 -29 -11 -54t-31.5 -43t-49 -28t-62.5 -10zM840 1147q-33 0 -60.5 10t-47.5 28t-31 43t-11 54q0 43 23 77t58 48t69 14q49 0 86.5 -22t52 -54.5t14.5 -62.5 q0 -44 -24 -77t-60 -45.5t-69 -12.5z"/>
<glyph unicode="©" horiz-adv-x="1774" d="M997 -29q-105 0 -202 26.5t-181 74.5t-153.5 116t-119 150t-76.5 176.5t-27 196.5q0 159 65.5 302t184.5 247.5t252.5 148t256.5 43.5q105 0 202 -26.5t181.5 -75t154 -116.5t119 -150t76.5 -176.5t27 -196.5t-27 -196.5t-76.5 -176.5t-119 -150t-154 -116t-181.5 -74.5 t-202 -26.5zM997 127q121 0 228 46t187 125.5t126.5 185.5t46.5 227q0 123 -50.5 234.5t-142.5 195.5t-195 119.5t-200 35.5q-125 0 -236.5 -50.5t-196 -141.5t-119.5 -194t-35 -199q0 -121 46.5 -227t126.5 -185.5t187 -125.5t227 -46zM1006 289q-91 0 -162 31t-120 86 t-75 130t-26 162q0 152 58.5 255.5t154.5 142.5t198 39q56 0 123.5 -14t102.5 -27v-197q-24 13 -57 24t-77.5 19t-85.5 8q-85 0 -134.5 -40.5t-62 -93.5t-12.5 -101q0 -123 56.5 -178.5t167.5 -55.5q42 0 84 7t98 30l61 -174q-88 -33 -144.5 -43t-147.5 -10z"/>
<glyph unicode="ª" horiz-adv-x="815" d="M489 827q-109 0 -172 66t-63 205q0 104 26.5 184t73 134t109.5 82t135 28q67 0 112 -26t68 -54l19 63h145l-70 -436q-10 -60 -10 -82v-18q0 -44 8 -80t13 -51h-170q-2 2 -6 25.5t-7 52.5q-35 -39 -88.5 -66t-122.5 -27zM553 971q63 0 104.5 43t55.5 127l30 190 q-17 16 -30.5 25t-40.5 17.5t-51 8.5q-67 0 -112.5 -47.5t-59 -109t-13.5 -115.5q0 -63 25.5 -101t91.5 -38z"/>
<glyph unicode="«" horiz-adv-x="1137" d="M352 111l-205 428l314 395h280l-335 -412l206 -411h-260zM815 111l-197 411l326 412h281l-348 -426l198 -397h-260z"/>
<glyph unicode="¬" d="M844 389l63 402h-700l39 241h983l-103 -643h-282z"/>
<glyph unicode="®" horiz-adv-x="1774" d="M997 -29q-105 0 -202 26.5t-181 74.5t-153.5 116t-119 150t-76.5 176.5t-27 196.5q0 159 65.5 302t184.5 247.5t252.5 148t256.5 43.5q105 0 202 -26.5t181.5 -75t154 -116.5t119 -150t76.5 -176.5t27 -196.5t-27 -196.5t-76.5 -176.5t-119 -150t-154 -116t-181.5 -74.5 t-202 -26.5zM997 127q121 0 228 46t187 125.5t126.5 185.5t46.5 227q0 123 -50.5 234.5t-142.5 195.5t-195 119.5t-200 35.5q-125 0 -236.5 -50.5t-196 -141.5t-119.5 -194t-35 -199q0 -121 46.5 -227t126.5 -185.5t187 -125.5t227 -46zM664 303v819h315q143 0 219 -60 t76 -181q0 -148 -111 -203q46 -55 113 -175.5t98 -199.5h-217q-23 56 -83 166.5t-93 146.5h-131v-313h-186zM848 760h96q65 0 97 28.5t32 77.5q0 57 -32 82t-95 25h-98v-213z"/>
<glyph unicode="¯" horiz-adv-x="866" d="M299 1378h707l-31 -194h-707z"/>
<glyph unicode="°" horiz-adv-x="702" d="M508 870q-66 0 -124 25t-101 68t-68 101t-25 124q0 97 53.5 175.5t125.5 110t139 31.5q98 0 176 -53.5t109.5 -125.5t31.5 -138t-25 -124t-67.5 -101t-100.5 -68t-124 -25zM508 1044q43 0 78 24t50 57.5t15 62.5q0 43 -24 77.5t-57.5 50t-61.5 15.5q-44 0 -80.5 -25.5 t-49.5 -57t-13 -60.5q0 -45 25 -81.5t57 -49.5t61 -13z"/>
<glyph unicode="±" d="M98 0l39 242h983l-39 -242h-983zM502 342l51 313h-350l37 242h350l49 311h283l-50 -311h351l-37 -242h-350l-52 -313h-282z"/>
<glyph unicode="²" horiz-adv-x="961" d="M197 602l28 180q66 45 150 104.5t149 110.5q90 71 123.5 100.5t59.5 67.5t26 68q0 37 -14 58t-42.5 29.5t-66.5 8.5q-67 0 -141 -27.5t-115 -50.5l33 207q44 19 89 32.5t99.5 21.5t96.5 8q128 0 200.5 -37t94.5 -92t22 -109q0 -88 -46.5 -162.5t-109.5 -127t-114 -91.5 q-93 -70 -146 -106h369l-31 -193h-714z"/>
<glyph unicode="³" horiz-adv-x="956" d="M535 590q-65 0 -117.5 6.5t-92.5 16.5t-68.5 21t-45.5 19l70 166q47 -22 98 -34.5t125 -12.5q67 0 113 17.5t64.5 45.5t18.5 60q0 34 -19 54t-64 29t-107 9h-59l28 174h82q90 0 133 29t43 74q0 27 -14.5 45.5t-48 27.5t-76.5 9q-71 0 -144.5 -22.5t-103.5 -39.5l29 186 q34 13 75 22.5t102 18.5t118 9q124 0 196.5 -32.5t94.5 -82.5t22 -96q0 -67 -38 -119t-81 -76t-67 -33q48 -14 84 -40t52.5 -67t16.5 -87q0 -63 -29.5 -117.5t-84 -94t-132 -62.5t-173.5 -23z"/>
<glyph unicode="´" horiz-adv-x="874" d="M367 1141l208 282h340l-270 -282h-278z"/>
<glyph unicode="µ" horiz-adv-x="1202" d="M315 1044h281l-88 -552q-19 -122 -19 -166q0 -111 119 -111q41 0 88.5 24.5t87 80.5t50.5 124l94 600h280l-166 -1044h-256l5 121q-17 -29 -50 -61t-84.5 -56t-107.5 -24q-29 0 -55 7.5t-39 15t-25 20.5l-63 -437h-281z"/>
<glyph unicode="¶" horiz-adv-x="1260" d="M430 -215l127 801q-87 12 -151.5 43t-107 77t-63 105.5t-20.5 128.5q0 108 39 196.5t108 152.5t163 99t204 35h582l-260 -1638h-220l230 1438h-182l-230 -1438h-219z"/>
<glyph unicode="·" horiz-adv-x="561" d="M393 543q-41 0 -74.5 13t-58 35.5t-38 53t-13.5 66.5t16 74.5t61.5 67t106.5 28.5q41 0 85 -17t73 -58t29 -95q0 -36 -18 -75.5t-65 -66t-104 -26.5z"/>
<glyph unicode="¸" horiz-adv-x="874" d="M125 -375l223 273h324l-275 -273h-272z"/>
<glyph unicode="¹" horiz-adv-x="975" d="M297 602l27 176h180l82 520q-13 -3 -44 -10.5t-64.5 -16t-62.5 -16t-38 -10.5l29 182l245 78h203l-115 -727h181l-27 -176h-596z"/>
<glyph unicode="º" horiz-adv-x="799" d="M543 825q-74 0 -128.5 20t-90 57.5t-53 90.5t-17.5 119q0 85 26.5 160.5t75 131.5t118.5 89t157 33q108 0 175.5 -44t90.5 -110.5t23 -132.5q0 -85 -26.5 -160.5t-75.5 -131.5t-118.5 -89t-156.5 -33zM549 969q69 0 114 45t59.5 110t14.5 121q0 43 -13 74.5t-40 48 t-61 16.5q-48 0 -83.5 -22t-58.5 -60t-34 -88t-11 -106q0 -24 5 -48.5t17.5 -45t34.5 -33t56 -12.5z"/>
<glyph unicode="»" horiz-adv-x="1137" d="M80 111l348 426l-199 397h260l197 -412l-326 -411h-280zM563 111l336 411l-207 412h260l205 -428l-313 -395h-281z"/>
<glyph unicode="¼" horiz-adv-x="2150" d="M494 0l1108 1505h268l-1108 -1505h-268zM1634 0l29 182h-469l29 183q137 150 281.5 290t267.5 248h227l-86 -545h98l-29 -176h-98l-29 -182h-221zM1436 358h256l49 310q-241 -241 -305 -310zM256 602l27 176h180l82 520q-13 -3 -44 -10.5t-64.5 -16t-62.5 -16t-38 -10.5 l29 182l245 78h203l-115 -727h181l-27 -176h-596z"/>
<glyph unicode="½" horiz-adv-x="2150" d="M471 0l1108 1505h268l-1108 -1505h-268zM1262 0l28 180q66 45 150 104.5t149 110.5q90 71 123.5 100.5t59.5 67.5t26 68q0 37 -14 58t-42.5 29.5t-66.5 8.5q-67 0 -141 -27.5t-115 -50.5l33 207q44 19 89 32.5t99 21.5t97 8q128 0 200.5 -37t94.5 -92t22 -109 q0 -88 -45.5 -161t-109.5 -127.5t-115 -92.5q-93 -70 -146 -106h369l-31 -193h-714zM248 602l26 176h181l82 520q-13 -3 -44 -10.5t-64.5 -16t-62.5 -16t-38 -10.5l28 182l246 78h203l-115 -727h180l-26 -176h-596z"/>
<glyph unicode="¾" horiz-adv-x="2150" d="M535 0l1107 1505h269l-1108 -1505h-268zM1634 0l29 182h-469l29 183q137 150 281.5 290t267.5 248h227l-86 -545h98l-29 -176h-98l-29 -182h-221zM1436 358h256l49 310q-241 -241 -305 -310zM569 590q-65 0 -117 6.5t-92 16.5t-68.5 21t-45.5 19l69 166q56 -24 103 -35.5 t121 -11.5q67 0 113 17.5t64.5 45.5t18.5 60q0 34 -19 54t-64 29t-107 9h-60l29 174h82q90 0 133 29t43 74q0 27 -14.5 45.5t-48 27.5t-76.5 9q-72 0 -144.5 -22t-103.5 -40l29 186q34 13 75 22.5t102.5 18.5t117.5 9q124 0 196.5 -32.5t94.5 -82.5t22 -96q0 -67 -38 -119 t-81 -76t-67 -33q48 -14 84 -40t52.5 -67t16.5 -87q0 -63 -29.5 -117.5t-84.5 -94t-132.5 -62.5t-173.5 -23z"/>
<glyph unicode="¿" horiz-adv-x="1065" d="M567 -20q-73 0 -142 17t-122.5 54t-86 96.5t-32.5 143.5q0 91 34 163.5t83 120.5t90 78q38 28 74.5 52.5t66.5 53t51 64t29 84.5l6 39h279l-14 -92q-17 -100 -63.5 -168.5t-95.5 -101t-87 -56.5q-64 -38 -96.5 -67t-45 -57.5t-12.5 -61.5q0 -54 29.5 -85t70 -37.5 t72.5 -6.5q81 0 162 28t174 76l-22 -251q-99 -44 -196 -65t-206 -21zM807 1106q-38 0 -71.5 12t-59 34t-40.5 53.5t-15 70.5q0 57 32.5 97.5t74 55.5t79.5 15q56 0 101 -27t64 -65.5t19 -75.5q0 -57 -31 -98t-73.5 -56.5t-79.5 -15.5z"/>
<glyph unicode="À" horiz-adv-x="1282" d="M16 0q45 107 97.5 227.5t111 246.5t121.5 254t127.5 250.5t129.5 235.5t128 209h268q31 -96 60 -209t54.5 -235.5t48 -250.5t42 -254t35 -246.5t27.5 -227.5h-287q-14 149 -31 299h-522q-34 -78 -64 -151.5t-61 -147.5h-285zM528 530h394q-14 140 -39.5 287t-63.5 316 q-62 -111 -135.5 -264.5t-155.5 -338.5zM735 1528l-178 282h301l131 -282h-254z"/>
<glyph unicode="Á" horiz-adv-x="1282" d="M16 0q45 107 97.5 227.5t111 246.5t121.5 254t127.5 250.5t129.5 235.5t128 209h268q31 -96 60 -209t54.5 -235.5t48 -250.5t42 -254t35 -246.5t27.5 -227.5h-287q-14 149 -31 299h-522q-34 -78 -64 -151.5t-61 -147.5h-285zM528 530h394q-14 140 -39.5 287t-63.5 316 q-62 -111 -135.5 -264.5t-155.5 -338.5zM715 1528l208 282h340l-270 -282h-278z"/>
<glyph unicode="Â" horiz-adv-x="1282" d="M16 0q45 107 97.5 227.5t111 246.5t121.5 254t127.5 250.5t129.5 235.5t128 209h268q31 -96 60 -209t54.5 -235.5t48 -250.5t42 -254t35 -246.5t27.5 -227.5h-287q-14 149 -31 299h-522q-34 -78 -64 -151.5t-61 -147.5h-285zM528 530h394q-14 140 -39.5 287t-63.5 316 q-62 -111 -135.5 -264.5t-155.5 -338.5zM492 1528l305 282h235l215 -282h-258l-92 133l-139 -133h-266z"/>
<glyph unicode="Ã" horiz-adv-x="1286" d="M16 0q45 107 97.5 227.5t111 246.5t121.5 254t127.5 250.5t129.5 235.5t128 209h268q31 -96 60 -209t54.5 -235.5t48 -250.5t42 -254t35 -246.5t27.5 -227.5h-287q-14 149 -31 299h-522q-34 -78 -64 -151.5t-61 -147.5h-285zM528 530h394q-14 140 -39.5 287t-63.5 316 q-62 -111 -135.5 -264.5t-155.5 -338.5zM1012 1515q-47 0 -83.5 17t-84.5 51q-32 22 -56.5 34.5t-46.5 12.5q-32 0 -54 -23t-48 -83l-129 59q51 128 113 184t131 56q47 0 85 -16t83 -50q41 -32 63.5 -40.5t46.5 -8.5q29 0 53.5 23t47.5 81l137 -47q-29 -73 -60 -121 t-63 -76.5t-66 -40.5t-69 -12z"/>
<glyph unicode="Ä" horiz-adv-x="1282" d="M16 0q45 107 97.5 227.5t111 246.5t121.5 254t127.5 250.5t129.5 235.5t128 209h268q31 -96 60 -209t54.5 -235.5t48 -250.5t42 -254t35 -246.5t27.5 -227.5h-287q-14 149 -31 299h-522q-34 -78 -64 -151.5t-61 -147.5h-285zM528 530h394q-14 140 -39.5 287t-63.5 316 q-62 -111 -135.5 -264.5t-155.5 -338.5zM649 1534q-33 0 -60.5 10t-47 28t-30.5 43t-11 54q0 43 23 77t58 48t68 14q49 0 87 -22.5t52.5 -54.5t14.5 -62q0 -29 -11 -54t-31.5 -43t-49 -28t-62.5 -10zM1059 1534q-33 0 -60.5 10t-47.5 28t-31 43t-11 54q0 43 23 77t58 48 t69 14q49 0 86.5 -22t52 -54.5t14.5 -62.5q0 -44 -24 -77t-60 -45.5t-69 -12.5z"/>
<glyph unicode="Å" horiz-adv-x="1282" d="M16 0q42 102 92.5 216t105.5 234t114.5 242t120.5 240t123 228.5t122 207.5q-34 34 -53.5 79t-19.5 97q0 76 40.5 136.5t98 86t108.5 25.5q78 0 137.5 -41.5t85 -98.5t25.5 -108q0 -59 -25.5 -109t-68.5 -85q29 -96 55 -205.5t49.5 -226.5t44 -237t38 -238t32 -230.5 t25.5 -212.5h-287q-14 149 -31 299h-522q-34 -78 -64 -151.5t-61 -147.5h-285zM528 530h394q-14 140 -39.5 287t-63.5 316q-62 -111 -135.5 -264.5t-155.5 -338.5zM868 1423q36 0 65 21t40.5 48.5t11.5 51.5q0 39 -19.5 67t-46 41t-51.5 13q-36 0 -64.5 -20t-40 -48 t-11.5 -53q0 -24 9 -46t24.5 -38.5t37 -26.5t45.5 -10z"/>
<glyph unicode="Æ" horiz-adv-x="1864" d="M-4 0q113 188 232 377t241 370.5t246 352t246 323.5h1013l-37 -235h-565l-51 -322h479l-37 -235h-479l-63 -395h598l-37 -236h-887l57 362h-448q-124 -197 -219 -362h-289zM655 598h334l96 602q-69 -83 -182.5 -241.5t-247.5 -360.5z"/>
<glyph unicode="Ç" horiz-adv-x="1192" d="M776 -20q-135 0 -237.5 37.5t-167 102t-99.5 150.5t-43 156t-8 129q0 119 21.5 231.5t64 211t106.5 180.5t149 141.5t191 92t232 32.5q77 0 150.5 -10.5t124 -24t65.5 -20.5l-39 -248q-23 11 -72 24t-110.5 23t-122.5 10q-114 0 -199.5 -49.5t-141.5 -135t-84 -199.5 t-28 -243q0 -71 17 -133t55 -107.5t99.5 -71.5t150.5 -26q72 0 143.5 13t128.5 35l68 -228q-47 -20 -128.5 -39t-154.5 -26.5t-131 -7.5zM371 -375l223 273h324l-275 -273h-272z"/>
<glyph unicode="È" horiz-adv-x="1147" d="M178 0l225 1423h854l-36 -235h-566l-51 -322h479l-36 -235h-480l-63 -395h598l-37 -236h-887zM776 1528l-178 282h301l131 -282h-254z"/>
<glyph unicode="É" horiz-adv-x="1147" d="M178 0l225 1423h854l-36 -235h-566l-51 -322h479l-36 -235h-480l-63 -395h598l-37 -236h-887zM695 1528l208 282h340l-270 -282h-278z"/>
<glyph unicode="Ê" horiz-adv-x="1147" d="M178 0l225 1423h854l-36 -235h-566l-51 -322h479l-36 -235h-480l-63 -395h598l-37 -236h-887zM461 1528l305 282h235l215 -282h-258l-92 133l-139 -133h-266z"/>
<glyph unicode="Ë" horiz-adv-x="1147" d="M178 0l225 1423h854l-36 -235h-566l-51 -322h479l-36 -235h-480l-63 -395h598l-37 -236h-887zM643 1534q-33 0 -60.5 10t-47 28t-30.5 43t-11 54q0 43 23 77t58 48t68 14q49 0 87 -22.5t52.5 -54.5t14.5 -62q0 -29 -11 -54t-31.5 -43t-49 -28t-62.5 -10zM1053 1534 q-33 0 -60.5 10t-47.5 28t-31 43t-11 54q0 43 23 77t58 48t69 14q49 0 86.5 -22t52 -54.5t14.5 -62.5q0 -44 -24 -77t-60 -45.5t-69 -12.5z"/>
<glyph unicode="Ì" horiz-adv-x="645" d="M178 0l225 1423h289l-225 -1423h-289zM449 1528l-178 282h301l131 -282h-254z"/>
<glyph unicode="Í" horiz-adv-x="645" d="M178 0l225 1423h289l-225 -1423h-289zM428 1528l208 282h340l-270 -282h-278z"/>
<glyph unicode="Î" horiz-adv-x="645" d="M178 0l225 1423h289l-225 -1423h-289zM191 1528l305 282h235l215 -282h-258l-92 133l-139 -133h-266z"/>
<glyph unicode="Ï" horiz-adv-x="645" d="M178 0l225 1423h289l-225 -1423h-289zM377 1534q-33 0 -60.5 10t-47 28t-30.5 43t-11 54q0 43 23 77t58 48t68 14q49 0 87 -22.5t52.5 -54.5t14.5 -62q0 -29 -11 -54t-31.5 -43t-49 -28t-62.5 -10zM787 1534q-33 0 -60.5 10t-47.5 28t-31 43t-11 54q0 43 23 77t58 48 t69 14q49 0 86.5 -22t52 -54.5t14.5 -62.5q0 -44 -24 -77t-60 -45.5t-69 -12.5z"/>
<glyph unicode="Ð" horiz-adv-x="1399" d="M178 0l101 637h-121l30 186h121l94 600h428q161 0 270 -44.5t176 -120t95.5 -175t28.5 -209.5q0 -207 -53 -369.5t-150 -274.5t-234 -171t-305 -59h-481zM504 231h170q87 0 163.5 38t133.5 116.5t90 197.5t33 281q0 105 -35.5 181.5t-102 111.5t-145.5 35h-156l-57 -369 h197l-31 -186h-197z"/>
<glyph unicode="Ñ" horiz-adv-x="1405" d="M178 0l225 1423h256q23 -39 71 -136.5t81.5 -174t91.5 -219t86.5 -225.5t46.5 -138l142 893h274l-225 -1423h-246q-42 124 -84.5 252t-87.5 257t-93 259t-102 260l-161 -1028h-275zM1088 1515q-47 0 -83.5 17t-84.5 51q-32 22 -56.5 34.5t-46.5 12.5q-32 0 -54 -23 t-48 -83l-129 59q51 128 113 184t131 56q47 0 85 -16t83 -50q41 -32 63.5 -40.5t46.5 -8.5q29 0 53.5 23t47.5 81l137 -47q-29 -73 -60 -121t-63 -76.5t-66 -40.5t-69 -12z"/>
<glyph unicode="Ò" horiz-adv-x="1438" d="M723 -29q-139 0 -235.5 48.5t-156.5 127.5t-87 177.5t-27 199.5q0 117 19.5 231.5t58.5 217.5t98.5 191t139.5 152t180.5 100t222.5 36q141 0 242.5 -51t163.5 -141.5t82 -184t20 -174.5q0 -159 -35 -308.5t-107.5 -276t-175 -208.5t-202 -109.5t-201.5 -27.5zM741 205 q86 0 159.5 49.5t127 142.5t83.5 225.5t30 297.5q0 89 -24.5 158t-77.5 105t-121 36q-86 0 -159.5 -50t-127 -142.5t-83.5 -225t-30 -297.5q0 -49 9 -102t34 -96.5t68.5 -72t111.5 -28.5zM858 1528l-178 282h301l131 -282h-254z"/>
<glyph unicode="Ó" horiz-adv-x="1438" d="M723 -29q-139 0 -235.5 48.5t-156.5 127.5t-87 177.5t-27 199.5q0 117 19.5 231.5t58.5 217.5t98.5 191t139.5 152t180.5 100t222.5 36q141 0 242.5 -51t163.5 -141.5t82 -184t20 -174.5q0 -159 -35 -308.5t-107.5 -276t-175 -208.5t-202 -109.5t-201.5 -27.5zM741 205 q86 0 159.5 49.5t127 142.5t83.5 225.5t30 297.5q0 89 -24.5 158t-77.5 105t-121 36q-86 0 -159.5 -50t-127 -142.5t-83.5 -225t-30 -297.5q0 -49 9 -102t34 -96.5t68.5 -72t111.5 -28.5zM797 1528l208 282h340l-270 -282h-278z"/>
<glyph unicode="Ô" horiz-adv-x="1438" d="M723 -29q-139 0 -235.5 48.5t-156.5 127.5t-87 177.5t-27 199.5q0 117 19.5 231.5t58.5 217.5t98.5 191t139.5 152t180.5 100t222.5 36q141 0 242.5 -51t163.5 -141.5t82 -184t20 -174.5q0 -159 -35 -308.5t-107.5 -276t-175 -208.5t-202 -109.5t-201.5 -27.5zM741 205 q86 0 159.5 49.5t127 142.5t83.5 225.5t30 297.5q0 89 -24.5 158t-77.5 105t-121 36q-86 0 -159.5 -50t-127 -142.5t-83.5 -225t-30 -297.5q0 -49 9 -102t34 -96.5t68.5 -72t111.5 -28.5zM584 1528l305 282h235l215 -282h-258l-92 133l-139 -133h-266z"/>
<glyph unicode="Õ" horiz-adv-x="1438" d="M723 -29q-139 0 -235.5 48.5t-156.5 127.5t-87 177.5t-27 199.5q0 117 19.5 231.5t58.5 217.5t98.5 191t139.5 152t180.5 100t222.5 36q141 0 242.5 -51t163.5 -141.5t82 -184t20 -174.5q0 -159 -35 -308.5t-107.5 -276t-175 -208.5t-202 -109.5t-201.5 -27.5zM741 205 q86 0 159.5 49.5t127 142.5t83.5 225.5t30 297.5q0 89 -24.5 158t-77.5 105t-121 36q-86 0 -159.5 -50t-127 -142.5t-83.5 -225t-30 -297.5q0 -49 9 -102t34 -96.5t68.5 -72t111.5 -28.5zM1088 1515q-47 0 -83.5 17t-84.5 51q-32 22 -56.5 34.5t-46.5 12.5q-32 0 -54 -23 t-48 -83l-129 59q51 128 113 184t131 56q47 0 85 -16t83 -50q41 -32 63.5 -40.5t46.5 -8.5q29 0 53.5 23t47.5 81l137 -47q-29 -73 -60 -121t-63 -76.5t-66 -40.5t-69 -12z"/>
<glyph unicode="Ö" horiz-adv-x="1438" d="M723 -29q-139 0 -235.5 48.5t-156.5 127.5t-87 177.5t-27 199.5q0 117 19.5 231.5t58.5 217.5t98.5 191t139.5 152t180.5 100t222.5 36q141 0 242.5 -51t163.5 -141.5t82 -184t20 -174.5q0 -159 -35 -308.5t-107.5 -276t-175 -208.5t-202 -109.5t-201.5 -27.5zM741 205 q86 0 159.5 49.5t127 142.5t83.5 225.5t30 297.5q0 89 -24.5 158t-77.5 105t-121 36q-86 0 -159.5 -50t-127 -142.5t-83.5 -225t-30 -297.5q0 -49 9 -102t34 -96.5t68.5 -72t111.5 -28.5zM778 1534q-33 0 -60.5 10t-47 28t-30.5 43t-11 54q0 43 23 77t58 48t68 14 q49 0 87 -22.5t52.5 -54.5t14.5 -62q0 -29 -11 -54t-31.5 -43t-49 -28t-62.5 -10zM1188 1534q-33 0 -60.5 10t-47.5 28t-31 43t-11 54q0 43 23 77t58 48t69 14q49 0 86.5 -22t52 -54.5t14.5 -62.5q0 -44 -24 -77t-60 -45.5t-69 -12.5z"/>
<glyph unicode="×" d="M373 279l-160 186l307 262l-223 262l182 158l221 -264l304 264l157 -189l-303 -260l223 -262l-184 -157l-221 264z"/>
<glyph unicode="Ø" horiz-adv-x="1444" d="M328 -141l-131 86l137 198q-62 79 -89.5 178.5t-27.5 202.5q0 117 19.5 231.5t58.5 217.5t98.5 191t139.5 152t180.5 100t222.5 36q80 0 145.5 -16t118.5 -47l135 196l131 -86l-145 -211q65 -80 94 -181t29 -206q0 -159 -35 -308.5t-107.5 -276t-175 -208.5t-202 -109.5 t-201.5 -27.5q-82 0 -149 18t-121 50zM741 205q86 0 159.5 49.5t127 142.5t83.5 225.5t30 297.5q0 58 -8 98l-531 -764q25 -23 59 -36t80 -13zM524 418l527 758q-25 20 -57.5 31.5t-75.5 11.5q-86 0 -159.5 -50t-127 -142.5t-83.5 -225t-30 -297.5q0 -44 6 -86z"/>
<glyph unicode="Ù" horiz-adv-x="1378" d="M700 -25q-100 0 -184 25t-145.5 74.5t-96 122.5t-34.5 170v38q0 49 14 150l137 868h289l-145 -915q-7 -41 -7 -88q0 -52 14 -89t39.5 -60.5t62.5 -34.5t83 -11q52 0 97 13t80 43t59.5 79.5t35.5 122.5l150 940h289l-156 -981q-19 -123 -70 -211t-127 -145t-174 -84 t-211 -27zM805 1528l-178 282h301l131 -282h-254z"/>
<glyph unicode="Ú" horiz-adv-x="1378" d="M700 -25q-100 0 -184 25t-145.5 74.5t-96 122.5t-34.5 170v38q0 49 14 150l137 868h289l-145 -915q-7 -41 -7 -88q0 -52 14 -89t39.5 -60.5t62.5 -34.5t83 -11q52 0 97 13t80 43t59.5 79.5t35.5 122.5l150 940h289l-156 -981q-19 -123 -70 -211t-127 -145t-174 -84 t-211 -27zM756 1528l208 282h340l-270 -282h-278z"/>
<glyph unicode="Û" horiz-adv-x="1378" d="M700 -25q-100 0 -184 25t-145.5 74.5t-96 122.5t-34.5 170v38q0 49 14 150l137 868h289l-145 -915q-7 -41 -7 -88q0 -52 14 -89t39.5 -60.5t62.5 -34.5t83 -11q52 0 97 13t80 43t59.5 79.5t35.5 122.5l150 940h289l-156 -981q-19 -123 -70 -211t-127 -145t-174 -84 t-211 -27zM535 1528l305 282h235l215 -282h-258l-92 133l-139 -133h-266z"/>
<glyph unicode="Ü" horiz-adv-x="1378" d="M700 -25q-100 0 -184 25t-145.5 74.5t-96 122.5t-34.5 170v38q0 49 14 150l137 868h289l-145 -915q-7 -41 -7 -88q0 -52 14 -89t39.5 -60.5t62.5 -34.5t83 -11q52 0 97 13t80 43t59.5 79.5t35.5 122.5l150 940h289l-156 -981q-19 -123 -70 -211t-127 -145t-174 -84 t-211 -27zM727 1534q-33 0 -60.5 10t-47 28t-30.5 43t-11 54q0 43 23 77t58 48t68 14q49 0 87 -22.5t52.5 -54.5t14.5 -62q0 -29 -11 -54t-31.5 -43t-49 -28t-62.5 -10zM1137 1534q-33 0 -60.5 10t-47.5 28t-31 43t-11 54q0 43 23 77t58 48t69 14q49 0 86.5 -22t52 -54.5 t14.5 -62.5q0 -44 -24 -77t-60 -45.5t-69 -12.5z"/>
<glyph unicode="Ý" horiz-adv-x="1262" d="M485 0l101 639q-59 101 -132 250.5t-126 284t-90 249.5h286q42 -112 99.5 -249.5t140.5 -303.5q111 132 209 264.5t205 288.5h297q-104 -161 -220.5 -316.5t-215 -274t-162.5 -191.5l-103 -641h-289zM725 1528l208 282h340l-270 -282h-278z"/>
<glyph unicode="Þ" horiz-adv-x="1217" d="M178 0l225 1423h279l-35 -219h170q112 0 194 -26t136 -72.5t80 -110.5t26 -141q0 -125 -39.5 -224.5t-114.5 -168.5t-183 -105.5t-244 -36.5h-164l-51 -319h-279zM543 547h127q102 0 168.5 34t92 98.5t25.5 135.5q0 49 -23.5 86.5t-72 56.5t-106.5 19h-144z"/>
<glyph unicode="ß" horiz-adv-x="1323" d="M70 -381l-107 166l48 32t61.5 57t59.5 93.5t42 141.5l152 948q15 95 47 180.5t92 149.5t154 101.5t233 37.5q168 0 262 -50.5t118.5 -115.5t24.5 -113q0 -73 -31 -131t-67.5 -92t-62.5 -57q-21 -20 -39 -35.5t-30.5 -30.5t-20 -29.5t-7.5 -31.5q0 -46 119 -142 q62 -50 100.5 -96.5t55 -106.5t16.5 -124q0 -130 -82 -226t-189.5 -130.5t-195.5 -34.5q-106 0 -168.5 15t-103.5 36l76 198q21 -11 46 -19.5t59 -14t73 -5.5q67 0 116 26t66 61t17 63q0 38 -15 67t-46 61.5t-62 59.5q-29 25 -59.5 49t-56 53.5t-42 66t-16.5 85.5 q0 79 26.5 125.5t102.5 122.5q22 22 45.5 43.5t43 44.5t32 48.5t12.5 56.5t-17.5 56.5t-53 38.5t-75.5 13q-68 0 -115 -38t-67 -93.5t-29 -109.5l-157 -994q-14 -84 -43 -150t-66.5 -116.5t-79.5 -87t-80 -61.5t-69 -40t-47 -22z"/>
<glyph unicode="à" horiz-adv-x="1221" d="M537 -20q-75 0 -139 23.5t-110.5 74t-73 128.5t-26.5 187q0 166 42 292t112 210.5t161 127t189 42.5q69 0 121 -19.5t82 -46.5t43 -45l27 90h260l-109 -682q-16 -99 -16 -128v-27q0 -67 11.5 -120t23.5 -87h-281q-8 25 -14.5 66.5t-8.5 56.5q-30 -43 -85 -79t-110.5 -50 t-98.5 -14zM645 203q81 0 134 68t73 198l47 297q-15 17 -34 30.5t-49 24t-60 10.5q-62 0 -111 -31t-84 -85.5t-53.5 -130t-18.5 -164.5q0 -49 9 -89t28 -68.5t48.5 -44t70.5 -15.5zM776 1141l-178 282h301l131 -282h-254z"/>
<glyph unicode="á" horiz-adv-x="1221" d="M537 -20q-75 0 -139 23.5t-110.5 74t-73 128.5t-26.5 187q0 166 42 292t112 210.5t161 127t189 42.5q69 0 121 -19.5t82 -46.5t43 -45l27 90h260l-109 -682q-16 -99 -16 -128v-27q0 -67 11.5 -120t23.5 -87h-281q-8 25 -14.5 66.5t-8.5 56.5q-30 -43 -85 -79t-110.5 -50 t-98.5 -14zM645 203q81 0 134 68t73 198l47 297q-15 17 -34 30.5t-49 24t-60 10.5q-62 0 -111 -31t-84 -85.5t-53.5 -130t-18.5 -164.5q0 -49 9 -89t28 -68.5t48.5 -44t70.5 -15.5zM623 1141l208 282h340l-270 -282h-278z"/>
<glyph unicode="â" horiz-adv-x="1221" d="M537 -20q-75 0 -139 23.5t-110.5 74t-73 128.5t-26.5 187q0 166 42 292t112 210.5t161 127t189 42.5q69 0 121 -19.5t82 -46.5t43 -45l27 90h260l-109 -682q-16 -99 -16 -128v-27q0 -67 11.5 -120t23.5 -87h-281q-8 25 -14.5 66.5t-8.5 56.5q-30 -43 -85 -79t-110.5 -50 t-98.5 -14zM645 203q81 0 134 68t73 198l47 297q-15 17 -34 30.5t-49 24t-60 10.5q-62 0 -111 -31t-84 -85.5t-53.5 -130t-18.5 -164.5q0 -49 9 -89t28 -68.5t48.5 -44t70.5 -15.5zM420 1141l305 282h235l215 -282h-258l-92 133l-139 -133h-266z"/>
<glyph unicode="ã" horiz-adv-x="1221" d="M537 -20q-75 0 -139 23.5t-110.5 74t-73 128.5t-26.5 187q0 166 42 292t112 210.5t161 127t189 42.5q69 0 121 -19.5t82 -46.5t43 -45l27 90h260l-109 -682q-16 -99 -16 -128v-27q0 -67 11.5 -120t23.5 -87h-281q-8 25 -14.5 66.5t-8.5 56.5q-30 -43 -85 -79t-110.5 -50 t-98.5 -14zM645 203q81 0 134 68t73 198l47 297q-15 17 -34 30.5t-49 24t-60 10.5q-62 0 -111 -31t-84 -85.5t-53.5 -130t-18.5 -164.5q0 -49 9 -89t28 -68.5t48.5 -44t70.5 -15.5zM914 1128q-47 0 -83.5 17t-84.5 51q-32 22 -56.5 34.5t-46.5 12.5q-32 0 -54 -23t-48 -83 l-129 59q51 128 113 184t131 56q47 0 85 -16t83 -50q41 -32 63.5 -40.5t46.5 -8.5q29 0 53.5 23t47.5 81l137 -47q-29 -73 -60 -121t-63 -76.5t-66 -40.5t-69 -12z"/>
<glyph unicode="ä" horiz-adv-x="1221" d="M537 -20q-75 0 -139 23.5t-110.5 74t-73 128.5t-26.5 187q0 166 42 292t112 210.5t161 127t189 42.5q69 0 121 -19.5t82 -46.5t43 -45l27 90h260l-109 -682q-16 -99 -16 -128v-27q0 -67 11.5 -120t23.5 -87h-281q-8 25 -14.5 66.5t-8.5 56.5q-30 -43 -85 -79t-110.5 -50 t-98.5 -14zM645 203q81 0 134 68t73 198l47 297q-15 17 -34 30.5t-49 24t-60 10.5q-62 0 -111 -31t-84 -85.5t-53.5 -130t-18.5 -164.5q0 -49 9 -89t28 -68.5t48.5 -44t70.5 -15.5zM614 1147q-33 0 -60.5 10t-47 28t-30.5 43t-11 54q0 43 23 77t58 48t68 14q49 0 87 -22.5 t52.5 -54.5t14.5 -62q0 -29 -11 -54t-31.5 -43t-49 -28t-62.5 -10zM1024 1147q-33 0 -60.5 10t-47.5 28t-31 43t-11 54q0 43 23 77t58 48t69 14q49 0 86.5 -22t52 -54.5t14.5 -62.5q0 -44 -24 -77t-60 -45.5t-69 -12.5z"/>
<glyph unicode="å" horiz-adv-x="1221" d="M537 -20q-75 0 -139 23.5t-110.5 74t-73 128.5t-26.5 187q0 166 42 292t112 210.5t161 127t189 42.5q69 0 121 -19.5t82 -46.5t43 -45l27 90h260l-109 -682q-16 -99 -16 -128v-27q0 -67 11.5 -120t23.5 -87h-281q-8 25 -14.5 66.5t-8.5 56.5q-30 -43 -85 -79t-110.5 -50 t-98.5 -14zM645 203q81 0 134 68t73 198l47 297q-15 17 -34 30.5t-49 24t-60 10.5q-62 0 -111 -31t-84 -85.5t-53.5 -130t-18.5 -164.5q0 -49 9 -89t28 -68.5t48.5 -44t70.5 -15.5zM839 1141q-51 0 -96 19.5t-78.5 53t-53 78.5t-19.5 97q0 77 41 136.5t97.5 85t108.5 25.5 q78 0 137.5 -41.5t85 -98t25.5 -107.5q0 -77 -42.5 -139t-98 -85.5t-107.5 -23.5zM839 1268q37 0 65.5 20.5t40 48t11.5 52.5q0 38 -19.5 66t-46 41t-51.5 13q-36 0 -64.5 -20t-40 -48t-11.5 -52q0 -36 20 -68t46 -42.5t50 -10.5z"/>
<glyph unicode="æ" horiz-adv-x="1784" d="M1329 -25q-78 0 -141.5 13.5t-113 38t-86.5 59t-62 76.5q-37 -55 -95.5 -98t-132 -63.5t-151.5 -20.5q-79 0 -145 23.5t-113.5 74t-74 128.5t-26.5 187q0 166 42 292t112 210.5t161 127t189 42.5q74 0 133 -25t91 -56t47 -54l28 114h215l-16 -104q17 24 64.5 58 t108.5 52.5t120 18.5q112 0 188 -38.5t108.5 -107.5t32.5 -149q0 -78 -32.5 -151.5t-106 -129.5t-192 -90t-289.5 -34h-53q14 -94 69.5 -135t143.5 -41q40 0 89.5 7.5t94.5 20t78 27.5l72 -201q-21 -8 -58 -20.5t-84 -24t-102 -19.5t-113 -8zM645 203q81 0 134 68t73 198 l47 297q-15 17 -34 30.5t-49 24t-60 10.5q-62 0 -111 -31t-84 -85.5t-53.5 -130t-18.5 -164.5q0 -109 36.5 -163t119.5 -54zM1147 561h31q125 0 199.5 22t113.5 54t51 67.5t12 63.5q0 40 -17 64.5t-47 37.5t-65 13q-64 0 -127 -45t-99.5 -119t-51.5 -158z"/>
<glyph unicode="ç" horiz-adv-x="952" d="M623 -16q-121 0 -203 35t-132.5 96.5t-72.5 143.5t-22 177q0 135 42 249.5t118.5 198t184.5 130.5t240 47q72 0 144.5 -11.5t105.5 -23.5l-37 -223q-5 1 -20 5.5t-39 9t-56.5 8t-70.5 3.5q-68 0 -126 -24.5t-100.5 -72t-67 -117.5t-24.5 -160q0 -55 11 -99t36.5 -75 t66 -47.5t99.5 -16.5q56 0 113.5 13t81.5 24l66 -203q-36 -15 -91 -32t-118 -26t-129 -9zM227 -375l223 273h324l-275 -273h-272z"/>
<glyph unicode="è" horiz-adv-x="1110" d="M655 -25q-131 0 -220 35t-144 96t-79 142.5t-24 173.5q0 121 40 239t121 216.5t197 145t234 46.5q111 0 197 -39.5t124 -107.5t38 -148t-32 -153t-105.5 -129t-192 -89.5t-291.5 -33.5h-53q14 -94 69.5 -135t143.5 -41q41 0 92 7.5t93.5 19.5t76.5 28l72 -201 q-56 -22 -111 -37t-122 -25t-124 -10zM473 561h31q124 0 203 22.5t118 59.5t47.5 69.5t8.5 55.5q0 40 -16.5 64.5t-47.5 37.5t-65 13q-64 0 -128 -45.5t-100 -119t-51 -157.5zM694 1141l-178 282h301l131 -282h-254z"/>
<glyph unicode="é" horiz-adv-x="1110" d="M655 -25q-131 0 -220 35t-144 96t-79 142.5t-24 173.5q0 121 40 239t121 216.5t197 145t234 46.5q111 0 197 -39.5t124 -107.5t38 -148t-32 -153t-105.5 -129t-192 -89.5t-291.5 -33.5h-53q14 -94 69.5 -135t143.5 -41q41 0 92 7.5t93.5 19.5t76.5 28l72 -201 q-56 -22 -111 -37t-122 -25t-124 -10zM473 561h31q124 0 203 22.5t118 59.5t47.5 69.5t8.5 55.5q0 40 -16.5 64.5t-47.5 37.5t-65 13q-64 0 -128 -45.5t-100 -119t-51 -157.5zM609 1141l208 282h340l-270 -282h-278z"/>
<glyph unicode="ê" horiz-adv-x="1110" d="M655 -25q-131 0 -220 35t-144 96t-79 142.5t-24 173.5q0 121 40 239t121 216.5t197 145t234 46.5q111 0 197 -39.5t124 -107.5t38 -148t-32 -153t-105.5 -129t-192 -89.5t-291.5 -33.5h-53q14 -94 69.5 -135t143.5 -41q41 0 92 7.5t93.5 19.5t76.5 28l72 -201 q-56 -22 -111 -37t-122 -25t-124 -10zM473 561h31q124 0 203 22.5t118 59.5t47.5 69.5t8.5 55.5q0 40 -16.5 64.5t-47.5 37.5t-65 13q-64 0 -128 -45.5t-100 -119t-51 -157.5zM420 1141l305 282h235l215 -282h-258l-92 133l-139 -133h-266z"/>
<glyph unicode="ë" horiz-adv-x="1110" d="M655 -25q-131 0 -220 35t-144 96t-79 142.5t-24 173.5q0 121 40 239t121 216.5t197 145t234 46.5q111 0 197 -39.5t124 -107.5t38 -148t-32 -153t-105.5 -129t-192 -89.5t-291.5 -33.5h-53q14 -94 69.5 -135t143.5 -41q41 0 92 7.5t93.5 19.5t76.5 28l72 -201 q-56 -22 -111 -37t-122 -25t-124 -10zM473 561h31q124 0 203 22.5t118 59.5t47.5 69.5t8.5 55.5q0 40 -16.5 64.5t-47.5 37.5t-65 13q-64 0 -128 -45.5t-100 -119t-51 -157.5zM604 1147q-33 0 -60.5 10t-47 28t-30.5 43t-11 54q0 43 23 77t58 48t68 14q49 0 87 -22.5 t52.5 -54.5t14.5 -62q0 -29 -11 -54t-31.5 -43t-49 -28t-62.5 -10zM1014 1147q-33 0 -60.5 10t-47.5 28t-31 43t-11 54q0 43 23 77t58 48t69 14q49 0 86.5 -22t52 -54.5t14.5 -62.5q0 -44 -24 -77t-60 -45.5t-69 -12.5z"/>
<glyph unicode="ì" horiz-adv-x="643" d="M190 0l136 850q-9 1 -24 3.5t-32.5 4.5t-35 3.5t-31.5 2.5l28 180h406l-166 -1044h-281zM375 1141l-178 282h301l131 -282h-254z"/>
<glyph unicode="í" horiz-adv-x="643" d="M190 0l136 850q-9 1 -24 3.5t-32.5 4.5t-35 3.5t-31.5 2.5l28 180h406l-166 -1044h-281zM338 1141l208 282h340l-270 -282h-278z"/>
<glyph unicode="î" horiz-adv-x="643" d="M190 0l136 850q-9 1 -24 3.5t-32.5 4.5t-35 3.5t-31.5 2.5l28 180h406l-166 -1044h-281zM86 1141l305 282h235l215 -282h-258l-92 133l-139 -133h-266z"/>
<glyph unicode="ï" horiz-adv-x="643" d="M190 0l136 850q-9 1 -24 3.5t-32.5 4.5t-35 3.5t-31.5 2.5l28 180h406l-166 -1044h-281zM264 1147q-33 0 -60.5 10t-47 28t-30.5 43t-11 54q0 43 23 77t58 48t68 14q49 0 87 -22.5t52.5 -54.5t14.5 -62q0 -29 -11 -54t-31.5 -43t-49 -28t-62.5 -10zM674 1147 q-33 0 -60.5 10t-47.5 28t-31 43t-11 54q0 43 23 77t58 48t69 14q49 0 86.5 -22t52 -54.5t14.5 -62.5q0 -44 -24 -77t-60 -45.5t-69 -12.5z"/>
<glyph unicode="ð" horiz-adv-x="1202" d="M610 -25q-108 0 -188 31.5t-132.5 87t-78 131.5t-25.5 164q0 144 41.5 253t109 182t154 110t175.5 37q54 0 94.5 -10t69 -24.5t46 -30.5t25.5 -27q-8 78 -37 158t-92 155l-174 -125l-82 115l152 106q-57 46 -140 84l82 154q72 -20 131.5 -46.5t110.5 -58.5l149 105 l82 -115l-114 -80q101 -98 152 -220.5t62 -229t11 -172.5q0 -188 -46.5 -326.5t-126 -229t-186 -134.5t-225.5 -44zM635 193q61 0 106.5 31t75.5 82t44 117.5t13 137.5q0 61 -15 103t-52.5 65t-87.5 23q-86 0 -143.5 -62.5t-75.5 -144t-17 -146.5q0 -39 5.5 -76t21.5 -66 t46 -46.5t79 -17.5z"/>
<glyph unicode="ñ" horiz-adv-x="1202" d="M158 0l166 1044h256l-5 -120q47 62 124.5 101.5t183.5 39.5q104 0 171.5 -40t89 -99t21.5 -115q0 -101 -20 -219l-94 -592h-281l88 553q19 121 19 166q0 110 -119 110q-61 0 -114 -40.5t-79 -92t-33 -96.5l-94 -600h-280zM932 1128q-47 0 -83.5 17t-84.5 51 q-32 22 -56.5 34.5t-46.5 12.5q-32 0 -54 -23t-48 -83l-129 59q51 128 113 184t131 56q47 0 85 -16t83 -50q41 -32 63.5 -40.5t46.5 -8.5q29 0 53.5 23t47.5 81l137 -47q-29 -73 -60 -121t-63 -76.5t-66 -40.5t-69 -12z"/>
<glyph unicode="ò" horiz-adv-x="1192" d="M604 -25q-108 0 -186.5 34t-129.5 92.5t-75.5 135.5t-24.5 164q0 155 44.5 279t122.5 210.5t182.5 132.5t224.5 46q153 0 252 -70t131.5 -170t32.5 -186q0 -155 -44.5 -279t-122.5 -210.5t-182.5 -132.5t-224.5 -46zM631 193q87 0 147 73t82.5 181.5t22.5 203.5 q0 31 -4.5 66.5t-20.5 65.5t-45.5 49.5t-79.5 19.5q-88 0 -149 -77.5t-81 -182.5t-20 -199q0 -32 4.5 -67t20 -64.5t45 -49t78.5 -19.5zM715 1141l-178 282h301l131 -282h-254z"/>
<glyph unicode="ó" horiz-adv-x="1192" d="M604 -25q-108 0 -186.5 34t-129.5 92.5t-75.5 135.5t-24.5 164q0 155 44.5 279t122.5 210.5t182.5 132.5t224.5 46q153 0 252 -70t131.5 -170t32.5 -186q0 -155 -44.5 -279t-122.5 -210.5t-182.5 -132.5t-224.5 -46zM631 193q87 0 147 73t82.5 181.5t22.5 203.5 q0 31 -4.5 66.5t-20.5 65.5t-45.5 49.5t-79.5 19.5q-88 0 -149 -77.5t-81 -182.5t-20 -199q0 -32 4.5 -67t20 -64.5t45 -49t78.5 -19.5zM613 1141l208 282h340l-270 -282h-278z"/>
<glyph unicode="ô" horiz-adv-x="1192" d="M604 -25q-108 0 -186.5 34t-129.5 92.5t-75.5 135.5t-24.5 164q0 155 44.5 279t122.5 210.5t182.5 132.5t224.5 46q153 0 252 -70t131.5 -170t32.5 -186q0 -155 -44.5 -279t-122.5 -210.5t-182.5 -132.5t-224.5 -46zM631 193q87 0 147 73t82.5 181.5t22.5 203.5 q0 31 -4.5 66.5t-20.5 65.5t-45.5 49.5t-79.5 19.5q-88 0 -149 -77.5t-81 -182.5t-20 -199q0 -32 4.5 -67t20 -64.5t45 -49t78.5 -19.5zM400 1141l305 282h235l215 -282h-258l-92 133l-139 -133h-266z"/>
<glyph unicode="õ" horiz-adv-x="1192" d="M604 -25q-108 0 -186.5 34t-129.5 92.5t-75.5 135.5t-24.5 164q0 155 44.5 279t122.5 210.5t182.5 132.5t224.5 46q153 0 252 -70t131.5 -170t32.5 -186q0 -155 -44.5 -279t-122.5 -210.5t-182.5 -132.5t-224.5 -46zM631 193q87 0 147 73t82.5 181.5t22.5 203.5 q0 31 -4.5 66.5t-20.5 65.5t-45.5 49.5t-79.5 19.5q-88 0 -149 -77.5t-81 -182.5t-20 -199q0 -32 4.5 -67t20 -64.5t45 -49t78.5 -19.5zM924 1128q-47 0 -83.5 17t-84.5 51q-32 22 -56.5 34.5t-46.5 12.5q-32 0 -54 -23t-48 -83l-129 59q51 128 113 184t131 56q47 0 85 -16 t83 -50q41 -32 63.5 -40.5t46.5 -8.5q29 0 53.5 23t47.5 81l137 -47q-29 -73 -60 -121t-63 -76.5t-66 -40.5t-69 -12z"/>
<glyph unicode="ö" horiz-adv-x="1192" d="M604 -25q-108 0 -186.5 34t-129.5 92.5t-75.5 135.5t-24.5 164q0 155 44.5 279t122.5 210.5t182.5 132.5t224.5 46q153 0 252 -70t131.5 -170t32.5 -186q0 -155 -44.5 -279t-122.5 -210.5t-182.5 -132.5t-224.5 -46zM631 193q87 0 147 73t82.5 181.5t22.5 203.5 q0 31 -4.5 66.5t-20.5 65.5t-45.5 49.5t-79.5 19.5q-88 0 -149 -77.5t-81 -182.5t-20 -199q0 -32 4.5 -67t20 -64.5t45 -49t78.5 -19.5zM594 1147q-33 0 -60.5 10t-47 28t-30.5 43t-11 54q0 43 23 77t58 48t68 14q49 0 87 -22.5t52.5 -54.5t14.5 -62q0 -29 -11 -54 t-31.5 -43t-49 -28t-62.5 -10zM1004 1147q-33 0 -60.5 10t-47.5 28t-31 43t-11 54q0 43 23 77t58 48t69 14q49 0 86.5 -22t52 -54.5t14.5 -62.5q0 -44 -24 -77t-60 -45.5t-69 -12.5z"/>
<glyph unicode="÷" d="M643 170q-40 0 -72.5 12.5t-56 34.5t-36.5 51.5t-13 63.5q0 50 28 90.5t68.5 57t81.5 16.5q59 0 102.5 -26.5t60.5 -65t17 -72.5q0 -52 -30 -92.5t-69.5 -55t-80.5 -14.5zM193 594l38 242h983l-38 -242h-983zM762 934q-40 0 -73 12.5t-56 34.5t-36 51.5t-13 63.5 q0 50 28 90.5t69 57t81 16.5t73.5 -12.5t57 -35t36.5 -52.5t13 -64q0 -52 -29.5 -92.5t-70 -55t-80.5 -14.5z"/>
<glyph unicode="ø" horiz-adv-x="1192" d="M281 -119l-99 72l109 145q-53 59 -78 137t-25 166q0 155 44.5 279t122.5 210.5t182.5 132.5t224.5 46q62 0 114.5 -11.5t96.5 -33.5l110 150l99 -72l-111 -152q54 -59 80.5 -137.5t26.5 -169.5q0 -155 -44.5 -279t-122.5 -210.5t-182.5 -132.5t-224.5 -46 q-65 0 -119.5 13.5t-99.5 36.5zM629 188q63 0 111 36.5t81 100t49.5 148t16.5 180.5v23t-2 24l-353 -479q17 -15 41 -24t56 -9zM481 356l346 471q-34 29 -94 29q-62 0 -109 -36.5t-79.5 -100t-49 -148t-16.5 -180.5v-17q0 -8 2 -18z"/>
<glyph unicode="ù" horiz-adv-x="1202" d="M483 -20q-72 0 -125 18.5t-88 52t-52 80t-17 102.5q0 66 22 220l92 591h281l-88 -552q-19 -122 -19 -166q0 -111 119 -111q57 0 112 40t81 92t33 97l94 600h280l-166 -1044h-256l5 121q-47 -62 -124.5 -101.5t-183.5 -39.5zM674 1141l-178 282h301l131 -282h-254z"/>
<glyph unicode="ú" horiz-adv-x="1202" d="M483 -20q-72 0 -125 18.5t-88 52t-52 80t-17 102.5q0 66 22 220l92 591h281l-88 -552q-19 -122 -19 -166q0 -111 119 -111q57 0 112 40t81 92t33 97l94 600h280l-166 -1044h-256l5 121q-47 -62 -124.5 -101.5t-183.5 -39.5zM633 1141l208 282h340l-270 -282h-278z"/>
<glyph unicode="û" horiz-adv-x="1202" d="M483 -20q-72 0 -125 18.5t-88 52t-52 80t-17 102.5q0 66 22 220l92 591h281l-88 -552q-19 -122 -19 -166q0 -111 119 -111q57 0 112 40t81 92t33 97l94 600h280l-166 -1044h-256l5 121q-47 -62 -124.5 -101.5t-183.5 -39.5zM379 1141l305 282h235l215 -282h-258l-92 133 l-139 -133h-266z"/>
<glyph unicode="ü" horiz-adv-x="1202" d="M483 -20q-72 0 -125 18.5t-88 52t-52 80t-17 102.5q0 66 22 220l92 591h281l-88 -552q-19 -122 -19 -166q0 -111 119 -111q57 0 112 40t81 92t33 97l94 600h280l-166 -1044h-256l5 121q-47 -62 -124.5 -101.5t-183.5 -39.5zM573 1147q-33 0 -60.5 10t-47 28t-30.5 43 t-11 54q0 43 23 77t58 48t68 14q49 0 87 -22.5t52.5 -54.5t14.5 -62q0 -29 -11 -54t-31.5 -43t-49 -28t-62.5 -10zM983 1147q-33 0 -60.5 10t-47.5 28t-31 43t-11 54q0 43 23 77t58 48t69 14q49 0 86.5 -22t52 -54.5t14.5 -62.5q0 -44 -24 -77t-60 -45.5t-69 -12.5z"/>
<glyph unicode="ý" horiz-adv-x="1087" d="M129 -434q-74 0 -127.5 17t-79.5 36l76 205q15 -11 47.5 -22t77.5 -11q47 0 84.5 16t69 45t59 68.5t53.5 87.5l49 90q-51 150 -110.5 365.5t-96 366.5t-49.5 214h297q18 -95 43.5 -208.5t57 -247t53.5 -221.5q90 183 170.5 355.5t140.5 321.5h293q-62 -133 -130 -272.5 t-139.5 -277t-145 -268.5t-146.5 -246q-60 -95 -117 -171.5t-120.5 -130.5t-138.5 -83t-171 -29zM572 1141l208 282h340l-270 -282h-278z"/>
<glyph unicode="þ" horiz-adv-x="1204" d="M92 -414l305 1917h281l-90 -561q27 36 69.5 65t96 43.5t114.5 14.5q123 0 201 -64.5t101.5 -154.5t23.5 -168q0 -168 -42.5 -298.5t-115 -220t-169 -136t-205.5 -46.5q-46 0 -83 8.5t-64.5 20t-45 23t-23.5 16.5l-73 -459h-281zM637 203q88 0 150 74t84 174.5t22 187.5 q0 60 -16 104t-49.5 66t-79.5 22q-84 0 -143 -80.5t-85 -238.5l-39 -238q23 -34 59.5 -52.5t96.5 -18.5z"/>
<glyph unicode="ÿ" horiz-adv-x="1087" d="M129 -434q-74 0 -127.5 17t-79.5 36l76 205q15 -11 47.5 -22t77.5 -11q47 0 84.5 16t69 45t59 68.5t53.5 87.5l49 90q-51 150 -110.5 365.5t-96 366.5t-49.5 214h297q18 -95 43.5 -208.5t57 -247t53.5 -221.5q90 183 170.5 355.5t140.5 321.5h293q-62 -133 -130 -272.5 t-139.5 -277t-145 -268.5t-146.5 -246q-60 -95 -117 -171.5t-120.5 -130.5t-138.5 -83t-171 -29zM532 1147q-33 0 -60.5 10t-47 28t-30.5 43t-11 54q0 43 23 77t58 48t68 14q49 0 87 -22.5t52.5 -54.5t14.5 -62q0 -29 -11 -54t-31.5 -43t-49 -28t-62.5 -10zM942 1147 q-33 0 -60.5 10t-47.5 28t-31 43t-11 54q0 43 23 77t58 48t69 14q49 0 86.5 -22t52 -54.5t14.5 -62.5q0 -44 -24 -77t-60 -45.5t-69 -12.5z"/>
<glyph unicode="Ā" horiz-adv-x="1282" d="M16 0q45 107 97.5 227.5t111 246.5t121.5 254t127.5 250.5t129.5 235.5t128 209h268q31 -96 60 -209t54.5 -235.5t48 -250.5t42 -254t35 -246.5t27.5 -227.5h-287q-14 149 -31 299h-522q-34 -78 -64 -151.5t-61 -147.5h-285zM528 530h394q-14 140 -39.5 287t-63.5 316 q-62 -111 -135.5 -264.5t-155.5 -338.5zM547 1765h707l-31 -194h-707z"/>
<glyph unicode="ā" horiz-adv-x="1221" d="M537 -20q-75 0 -139 23.5t-110.5 74t-73 128.5t-26.5 187q0 166 42 292t112 210.5t161 127t189 42.5q69 0 121 -19.5t82 -46.5t43 -45l27 90h260l-109 -682q-16 -99 -16 -128v-27q0 -67 11.5 -120t23.5 -87h-281q-8 25 -14.5 66.5t-8.5 56.5q-30 -43 -85 -79t-110.5 -50 t-98.5 -14zM645 203q81 0 134 68t73 198l47 297q-15 17 -34 30.5t-49 24t-60 10.5q-62 0 -111 -31t-84 -85.5t-53.5 -130t-18.5 -164.5q0 -49 9 -89t28 -68.5t48.5 -44t70.5 -15.5zM502 1378h707l-31 -194h-707z"/>
<glyph unicode="Ă" horiz-adv-x="1235" d="M16 0q45 107 97.5 227.5t111 246.5t121.5 254t127.5 250.5t129.5 235.5t128 209h268q31 -96 60 -209t54.5 -235.5t48 -250.5t42 -254t35 -246.5t27.5 -227.5h-287q-14 149 -31 299h-522q-34 -78 -64 -151.5t-61 -147.5h-285zM528 530h394q-14 140 -39.5 287t-63.5 316 q-62 -111 -135.5 -264.5t-155.5 -338.5zM881 1542q-78 0 -131.5 18.5t-87 50.5t-48.5 73.5t-14 88.5v9q0 6 2 12h170q1 -21 7 -39t20.5 -31t37 -20.5t56.5 -7.5q65 0 95.5 27.5t41.5 70.5h185q-17 -82 -63 -141.5t-117 -85t-154 -25.5z"/>
<glyph unicode="ă" horiz-adv-x="1221" d="M537 -20q-75 0 -139 23.5t-110.5 74t-73 128.5t-26.5 187q0 166 42 292t112 210.5t161 127t189 42.5q69 0 121 -19.5t82 -46.5t43 -45l27 90h260l-109 -682q-16 -99 -16 -128v-27q0 -67 11.5 -120t23.5 -87h-281q-8 25 -14.5 66.5t-8.5 56.5q-30 -43 -85 -79t-110.5 -50 t-98.5 -14zM645 203q81 0 134 68t73 198l47 297q-15 17 -34 30.5t-49 24t-60 10.5q-62 0 -111 -31t-84 -85.5t-53.5 -130t-18.5 -164.5q0 -49 9 -89t28 -68.5t48.5 -44t70.5 -15.5zM850 1155q-78 0 -131.5 18.5t-87 50.5t-48.5 73.5t-14 88.5v9q0 6 2 12h170q1 -21 7 -39 t20.5 -31t37 -20.5t56.5 -7.5q65 0 95.5 27.5t41.5 70.5h185q-17 -82 -63 -141.5t-117 -85t-154 -25.5z"/>
<glyph unicode="Ą" horiz-adv-x="1282" d="M16 0q45 107 97.5 227.5t111 246.5t121.5 254t127.5 250.5t129.5 235.5t128 209h268q31 -96 60 -209t54.5 -235.5t48 -250.5t42 -254t35 -246.5t27.5 -227.5h-287q-14 149 -31 299h-522q-34 -78 -64 -151.5t-61 -147.5h-285zM528 530h394q-14 140 -39.5 287t-63.5 316 q-62 -111 -135.5 -264.5t-155.5 -338.5zM1008 -414q-64 0 -105 14.5t-65 37.5t-33.5 52.5t-9.5 59.5q0 46 17.5 85.5t48.5 71.5t73.5 55.5t91.5 37.5h240q-71 -19 -118.5 -43t-76 -49.5t-41 -50t-12.5 -45.5q0 -32 21 -48t53 -16q37 0 63 6t41 13l41 -138 q-49 -18 -104.5 -30.5t-124.5 -12.5z"/>
<glyph unicode="ą" horiz-adv-x="1221" d="M537 -20q-75 0 -139 23.5t-110.5 74t-73 128.5t-26.5 187q0 166 42 292t112 210.5t161 127t189 42.5q69 0 121 -19.5t82 -46.5t43 -45l27 90h260l-109 -682q-16 -99 -16 -128v-27q0 -67 11.5 -120t23.5 -87h-281q-8 25 -14.5 66.5t-8.5 56.5q-30 -43 -85 -79t-110.5 -50 t-98.5 -14zM645 203q81 0 134 68t73 198l47 297q-15 17 -34 30.5t-49 24t-60 10.5q-62 0 -111 -31t-84 -85.5t-53.5 -130t-18.5 -164.5q0 -49 9 -89t28 -68.5t48.5 -44t70.5 -15.5zM874 -414q-64 0 -105 14.5t-65 37.5t-33.5 52.5t-9.5 59.5q0 46 17.5 85.5t48.5 71.5 t73.5 55.5t91.5 37.5h240q-71 -19 -118.5 -43t-76 -49.5t-41 -50t-12.5 -45.5q0 -32 21 -48t53 -16q37 0 63 6t41 13l41 -138q-49 -18 -104.5 -30.5t-124.5 -12.5z"/>
<glyph unicode="Ć" horiz-adv-x="1192" d="M776 -20q-135 0 -237.5 37.5t-167 102t-99.5 150.5t-43 156t-8 129q0 119 21.5 231.5t64 211t106.5 180.5t149 141.5t191 92t232 32.5q77 0 150.5 -10.5t124 -24t65.5 -20.5l-39 -248q-23 11 -72 24t-110.5 23t-122.5 10q-114 0 -199.5 -49.5t-141.5 -135t-84 -199.5 t-28 -243q0 -71 17 -133t55 -107.5t99.5 -71.5t150.5 -26q72 0 143.5 13t128.5 35l68 -228q-47 -20 -128.5 -39t-154.5 -26.5t-131 -7.5zM789 1528l208 282h340l-270 -282h-278z"/>
<glyph unicode="ć" horiz-adv-x="952" d="M623 -16q-121 0 -203 35t-132.5 96.5t-72.5 143.5t-22 177q0 135 42 249.5t118.5 198t184.5 130.5t240 47q72 0 144.5 -11.5t105.5 -23.5l-37 -223q-5 1 -20 5.5t-39 9t-56.5 8t-70.5 3.5q-68 0 -126 -24.5t-100.5 -72t-67 -117.5t-24.5 -160q0 -55 11 -99t36.5 -75 t66 -47.5t99.5 -16.5q56 0 113.5 13t81.5 24l66 -203q-36 -15 -91 -32t-118 -26t-129 -9zM580 1141l208 282h340l-270 -282h-278z"/>
<glyph unicode="Ĉ" horiz-adv-x="1192" d="M776 -20q-135 0 -237.5 37.5t-167 102t-99.5 150.5t-43 156t-8 129q0 119 21.5 231.5t64 211t106.5 180.5t149 141.5t191 92t232 32.5q77 0 150.5 -10.5t124 -24t65.5 -20.5l-39 -248q-23 11 -72 24t-110.5 23t-122.5 10q-114 0 -199.5 -49.5t-141.5 -135t-84 -199.5 t-28 -243q0 -71 17 -133t55 -107.5t99.5 -71.5t150.5 -26q72 0 143.5 13t128.5 35l68 -228q-47 -20 -128.5 -39t-154.5 -26.5t-131 -7.5zM576 1528l305 282h235l215 -282h-258l-92 133l-139 -133h-266z"/>
<glyph unicode="ĉ" horiz-adv-x="952" d="M623 -16q-121 0 -203 35t-132.5 96.5t-72.5 143.5t-22 177q0 135 42 249.5t118.5 198t184.5 130.5t240 47q72 0 144.5 -11.5t105.5 -23.5l-37 -223q-5 1 -20 5.5t-39 9t-56.5 8t-70.5 3.5q-68 0 -126 -24.5t-100.5 -72t-67 -117.5t-24.5 -160q0 -55 11 -99t36.5 -75 t66 -47.5t99.5 -16.5q56 0 113.5 13t81.5 24l66 -203q-36 -15 -91 -32t-118 -26t-129 -9zM342 1141l305 282h235l215 -282h-258l-92 133l-139 -133h-266z"/>
<glyph unicode="Č" horiz-adv-x="1192" d="M776 -20q-135 0 -237.5 37.5t-167 102t-99.5 150.5t-43 156t-8 129q0 119 21.5 231.5t64 211t106.5 180.5t149 141.5t191 92t232 32.5q77 0 150.5 -10.5t124 -24t65.5 -20.5l-39 -248q-23 11 -72 24t-110.5 23t-122.5 10q-114 0 -199.5 -49.5t-141.5 -135t-84 -199.5 t-28 -243q0 -71 17 -133t55 -107.5t99.5 -71.5t150.5 -26q72 0 143.5 13t128.5 35l68 -228q-47 -20 -128.5 -39t-154.5 -26.5t-131 -7.5zM842 1528l-215 282h258l92 -133l139 133h266l-305 -282h-235z"/>
<glyph unicode="č" horiz-adv-x="952" d="M623 -16q-121 0 -203 35t-132.5 96.5t-72.5 143.5t-22 177q0 135 42 249.5t118.5 198t184.5 130.5t240 47q72 0 144.5 -11.5t105.5 -23.5l-37 -223q-5 1 -20 5.5t-39 9t-56.5 8t-70.5 3.5q-68 0 -126 -24.5t-100.5 -72t-67 -117.5t-24.5 -160q0 -55 11 -99t36.5 -75 t66 -47.5t99.5 -16.5q56 0 113.5 13t81.5 24l66 -203q-36 -15 -91 -32t-118 -26t-129 -9zM613 1141l-215 282h258l92 -133l139 133h266l-305 -282h-235z"/>
<glyph unicode="Ď" horiz-adv-x="1399" d="M178 0l225 1423h428q161 0 270 -44.5t176 -120t95.5 -175t28.5 -209.5q0 -207 -53 -369.5t-150 -274.5t-234 -171t-305 -59h-481zM504 231h170q87 0 163.5 38t133.5 116.5t90 197.5t33 281q0 105 -35.5 181.5t-102 111.5t-145.5 35h-156zM758 1528l-215 282h258l92 -133 l139 133h266l-305 -282h-235z"/>
<glyph unicode="ď" horiz-adv-x="1407" d="M532 -20q-75 0 -138 23.5t-108 74t-70.5 129.5t-25.5 190q0 167 41 292t109.5 208.5t157.5 125.5t186 42q78 0 130.5 -21.5t77 -44t34.5 -34.5l86 540h280l-237 -1505h-258l6 98q-35 -36 -81.5 -64.5t-95.5 -41t-94 -12.5zM643 203q81 0 133 68t72 198l47 297 q-12 14 -34 30.5t-52.5 25.5t-58.5 9q-92 0 -154 -67t-83 -161t-21 -183q0 -49 8 -89t26 -68.5t46.5 -44t70.5 -15.5zM1346 1141l61 364h267l-111 -364h-217z"/>
<glyph unicode="Đ" horiz-adv-x="1399" d="M178 0l101 637h-121l30 186h121l94 600h428q161 0 270 -44.5t176 -120t95.5 -175t28.5 -209.5q0 -207 -53 -369.5t-150 -274.5t-234 -171t-305 -59h-481zM504 231h170q87 0 163.5 38t133.5 116.5t90 197.5t33 281q0 105 -35.5 181.5t-102 111.5t-145.5 35h-156l-57 -369 h197l-31 -186h-197z"/>
<glyph unicode="đ" horiz-adv-x="1206" d="M532 -20q-75 0 -138 23.5t-108 74t-70.5 129.5t-25.5 190q0 167 41 292t109.5 208.5t157.5 125.5t186 42q78 0 130.5 -21.5t77 -44t34.5 -34.5l35 219h-299l30 194h299l21 127h280l-20 -127h127l-31 -194h-127l-186 -1184h-258l6 98q-35 -36 -81.5 -64.5t-95.5 -41 t-94 -12.5zM643 203q81 0 133 68t72 198l47 297q-12 14 -34 30.5t-52.5 25.5t-58.5 9q-92 0 -154 -67t-83 -161t-21 -183q0 -49 8 -89t26 -68.5t46.5 -44t70.5 -15.5z"/>
<glyph unicode="Ē" horiz-adv-x="1147" d="M178 0l225 1423h854l-36 -235h-566l-51 -322h479l-36 -235h-480l-63 -395h598l-37 -236h-887zM526 1765h707l-31 -194h-707z"/>
<glyph unicode="ē" horiz-adv-x="1110" d="M655 -25q-131 0 -220 35t-144 96t-79 142.5t-24 173.5q0 121 40 239t121 216.5t197 145t234 46.5q111 0 197 -39.5t124 -107.5t38 -148t-32 -153t-105.5 -129t-192 -89.5t-291.5 -33.5h-53q14 -94 69.5 -135t143.5 -41q41 0 92 7.5t93.5 19.5t76.5 28l72 -201 q-56 -22 -111 -37t-122 -25t-124 -10zM473 561h31q124 0 203 22.5t118 59.5t47.5 69.5t8.5 55.5q0 40 -16.5 64.5t-47.5 37.5t-65 13q-64 0 -128 -45.5t-100 -119t-51 -157.5zM463 1378h707l-31 -194h-707z"/>
<glyph unicode="Ė" horiz-adv-x="1147" d="M178 0l225 1423h854l-36 -235h-566l-51 -322h479l-36 -235h-480l-63 -395h598l-37 -236h-887zM874 1530q-35 0 -63.5 10t-49 28.5t-32 44t-11.5 56.5q0 46 23.5 80.5t60 48.5t72.5 14q50 0 88.5 -21t55 -56.5t16.5 -65.5q0 -46 -25 -80t-62 -46.5t-73 -12.5z"/>
<glyph unicode="ė" horiz-adv-x="1110" d="M655 -25q-131 0 -220 35t-144 96t-79 142.5t-24 173.5q0 121 40 239t121 216.5t197 145t234 46.5q111 0 197 -39.5t124 -107.5t38 -148t-32 -153t-105.5 -129t-192 -89.5t-291.5 -33.5h-53q14 -94 69.5 -135t143.5 -41q41 0 92 7.5t93.5 19.5t76.5 28l72 -201 q-56 -22 -111 -37t-122 -25t-124 -10zM473 561h31q124 0 203 22.5t118 59.5t47.5 69.5t8.5 55.5q0 40 -16.5 64.5t-47.5 37.5t-65 13q-64 0 -128 -45.5t-100 -119t-51 -157.5zM842 1143q-35 0 -63.5 10t-49 28.5t-32 44t-11.5 56.5q0 46 23.5 80.5t60 48.5t72.5 14 q50 0 88.5 -21t55 -56.5t16.5 -65.5q0 -46 -25 -80t-62 -46.5t-73 -12.5z"/>
<glyph unicode="Ę" horiz-adv-x="1147" d="M178 0l225 1423h854l-36 -235h-566l-51 -322h479l-36 -235h-480l-63 -395h598l-37 -236h-887zM807 -414q-64 0 -105 14.5t-65 37.5t-33.5 52.5t-9.5 59.5q0 46 17.5 85.5t48.5 71.5t73.5 55.5t91.5 37.5h240q-71 -19 -118.5 -43t-76 -49.5t-41 -50t-12.5 -45.5 q0 -32 21 -48t53 -16q37 0 63 6t41 13l41 -138q-49 -18 -104.5 -30.5t-124.5 -12.5z"/>
<glyph unicode="ę" horiz-adv-x="1110" d="M655 -25q-131 0 -220 35t-144 96t-79 142.5t-24 173.5q0 121 40 239t121 216.5t197 145t234 46.5q111 0 197 -39.5t124 -107.5t38 -148t-32 -153t-105.5 -129t-192 -89.5t-291.5 -33.5h-53q14 -94 69.5 -135t143.5 -41q41 0 92 7.5t93.5 19.5t76.5 28l72 -201 q-56 -22 -111 -37t-122 -25t-124 -10zM473 561h31q124 0 203 22.5t118 59.5t47.5 69.5t8.5 55.5q0 40 -16.5 64.5t-47.5 37.5t-65 13q-64 0 -128 -45.5t-100 -119t-51 -157.5zM575 -414q-64 0 -105 14.5t-65 37.5t-33.5 52.5t-9.5 59.5q0 46 17.5 85.5t48.5 71.5t73.5 55.5 t91.5 37.5h240q-71 -19 -118.5 -43t-76 -49.5t-41 -50t-12.5 -45.5q0 -32 21 -48t53 -16q37 0 63 6t41 13l41 -138q-49 -18 -104.5 -30.5t-124.5 -12.5z"/>
<glyph unicode="Ě" horiz-adv-x="1147" d="M178 0l225 1423h854l-36 -235h-566l-51 -322h479l-36 -235h-480l-63 -395h598l-37 -236h-887zM736 1528l-215 282h258l92 -133l139 133h266l-305 -282h-235z"/>
<glyph unicode="ě" horiz-adv-x="1110" d="M655 -25q-131 0 -220 35t-144 96t-79 142.5t-24 173.5q0 121 40 239t121 216.5t197 145t234 46.5q111 0 197 -39.5t124 -107.5t38 -148t-32 -153t-105.5 -129t-192 -89.5t-291.5 -33.5h-53q14 -94 69.5 -135t143.5 -41q41 0 92 7.5t93.5 19.5t76.5 28l72 -201 q-56 -22 -111 -37t-122 -25t-124 -10zM473 561h31q124 0 203 22.5t118 59.5t47.5 69.5t8.5 55.5q0 40 -16.5 64.5t-47.5 37.5t-65 13q-64 0 -128 -45.5t-100 -119t-51 -157.5zM658 1141l-215 282h258l92 -133l139 133h266l-305 -282h-235z"/>
<glyph unicode="Ğ" horiz-adv-x="1339" d="M825 -18q-118 0 -208.5 21.5t-157.5 59.5t-112.5 91t-73.5 116.5t-40 134.5t-12 146q0 226 63 394t169.5 280t248 167.5t297.5 55.5q115 0 214 -17t159 -36l-39 -242q-44 14 -95.5 25.5t-107 18.5t-112.5 7q-128 0 -220.5 -51.5t-152.5 -140t-88.5 -207.5t-28.5 -254 q0 -68 15 -127.5t52.5 -103t100.5 -68.5t160 -25q50 0 98 4l56 351h-205l39 239h487l-131 -821q-162 -17 -375 -18zM991 1542q-78 0 -131.5 18.5t-87 50.5t-48.5 73.5t-14 88.5v9q0 6 2 12h170q1 -21 7 -39t20.5 -31t37 -20.5t56.5 -7.5q65 0 95.5 27.5t41.5 70.5h185 q-17 -82 -63 -141.5t-117 -85t-154 -25.5z"/>
<glyph unicode="ğ" horiz-adv-x="1208" d="M502 -434q-116 0 -193.5 14t-128.5 31l51 199q29 -8 88.5 -20.5t155.5 -12.5q110 0 174.5 32.5t91.5 90t37 118.5l17 103q-42 -47 -107 -80t-153 -33q-75 0 -138 21.5t-108.5 69.5t-70.5 125t-25 188q0 157 40.5 278.5t109 205t157.5 126.5t186 43q82 0 137 -24t80.5 -51 t32.5 -36l27 90h260l-160 -1001q-22 -132 -63.5 -216.5t-104.5 -137.5q-75 -65 -175 -94t-218 -29zM645 231q81 0 134 61t73 191l45 283q-12 14 -34 30.5t-52 25.5t-59 9q-90 0 -152.5 -69t-84 -159.5t-21.5 -168.5q0 -99 34 -151t117 -52zM848 1155q-78 0 -131.5 18.5 t-87 50.5t-48.5 73.5t-14 88.5v9q0 6 2 12h170q1 -21 7 -39t20.5 -31t37 -20.5t56.5 -7.5q65 0 95.5 27.5t41.5 70.5h185q-17 -82 -63 -141.5t-117 -85t-154 -25.5z"/>
<glyph unicode="Ģ" horiz-adv-x="1339" d="M825 -18q-118 0 -208.5 21.5t-157.5 59.5t-112.5 91t-73.5 116.5t-40 134.5t-12 146q0 226 63 394t169.5 280t248 167.5t297.5 55.5q115 0 214 -17t159 -36l-39 -242q-44 14 -95.5 25.5t-107 18.5t-112.5 7q-128 0 -220.5 -51.5t-152.5 -140t-88.5 -207.5t-28.5 -254 q0 -68 15 -127.5t52.5 -103t100.5 -68.5t160 -25q50 0 98 4l56 351h-205l39 239h487l-131 -821q-162 -17 -375 -18zM436 -375l223 273h324l-275 -273h-272z"/>
<glyph unicode="ģ" horiz-adv-x="1208" d="M502 -434q-116 0 -193.5 14t-128.5 31l51 199q29 -8 88.5 -20.5t155.5 -12.5q110 0 174.5 32.5t91.5 90t37 118.5l17 103q-42 -47 -107 -80t-153 -33q-75 0 -138 21.5t-108.5 69.5t-70.5 125t-25 188q0 157 40.5 278.5t109 205t157.5 126.5t186 43q82 0 137 -24t80.5 -51 t32.5 -36l27 90h260l-160 -1001q-22 -132 -63.5 -216.5t-104.5 -137.5q-75 -65 -175 -94t-218 -29zM645 231q81 0 134 61t73 191l45 283q-12 14 -34 30.5t-52 25.5t-59 9q-90 0 -152.5 -69t-84 -159.5t-21.5 -168.5q0 -99 34 -151t117 -52zM672 1147l223 273h324l-275 -273 h-272z"/>
<glyph unicode="Ī" horiz-adv-x="645" d="M178 0l225 1423h289l-225 -1423h-289zM233 1765h707l-31 -194h-707z"/>
<glyph unicode="ī" horiz-adv-x="643" d="M190 0l136 850q-9 1 -24 3.5t-32.5 4.5t-35 3.5t-31.5 2.5l28 180h406l-166 -1044h-281zM139 1378h707l-31 -194h-707z"/>
<glyph unicode="Į" horiz-adv-x="645" d="M178 0l225 1423h289l-225 -1423h-289zM211 -414q-64 0 -105 14.5t-65 37.5t-33.5 52.5t-9.5 59.5q0 46 17.5 85.5t48.5 71.5t73.5 55.5t91.5 37.5h240q-71 -19 -118.5 -43t-76 -49.5t-41 -50t-12.5 -45.5q0 -32 21 -48t53 -16q37 0 63 6t41 13l41 -138 q-49 -18 -104.5 -30.5t-124.5 -12.5z"/>
<glyph unicode="į" horiz-adv-x="643" d="M190 0l136 850q-9 1 -24 3.5t-32.5 4.5t-35 3.5t-31.5 2.5l28 180h406l-166 -1044h-281zM518 1212q-35 0 -65.5 12.5t-54 33.5t-37 49.5t-13.5 60.5q0 50 28 87.5t67 54t75 16.5q48 0 91.5 -25t62 -62.5t18.5 -70.5q0 -50 -30.5 -88.5t-69 -53t-72.5 -14.5zM211 -414 q-64 0 -105 14.5t-65 37.5t-33.5 52.5t-9.5 59.5q0 46 17.5 85.5t48.5 71.5t73.5 55.5t91.5 37.5h240q-71 -19 -118.5 -43t-76 -49.5t-41 -50t-12.5 -45.5q0 -32 21 -48t53 -16q37 0 63 6t41 13l41 -138q-49 -18 -104.5 -30.5t-124.5 -12.5z"/>
<glyph unicode="İ" horiz-adv-x="645" d="M178 0l225 1423h289l-225 -1423h-289zM584 1530q-35 0 -63.5 10t-49 28.5t-32 44t-11.5 56.5q0 46 23.5 80.5t60 48.5t72.5 14q50 0 88.5 -21t55 -56.5t16.5 -65.5q0 -46 -25 -80t-62 -46.5t-73 -12.5z"/>
<glyph unicode="ı" horiz-adv-x="643" d="M190 0l136 850q-9 1 -24 3.5t-32.5 4.5t-35 3.5t-31.5 2.5l28 180h406l-166 -1044h-281z"/>
<glyph unicode="Ķ" horiz-adv-x="1319" d="M178 0l225 1423h289l-88 -561l533 561h346l-647 -661q109 -121 199.5 -260.5t155 -268t107.5 -233.5h-337q-52 118 -120 238t-140 227t-132 186l-102 -651h-289zM340 -375l223 273h324l-275 -273h-272z"/>
<glyph unicode="ķ" horiz-adv-x="1110" d="M158 0l237 1505h281l-133 -846l364 385h336l-463 -458q73 -96 158.5 -244.5t169.5 -341.5h-328q-21 49 -51 109t-65 125t-73 132t-75 130l-78 -496h-280zM236 -375l223 273h324l-275 -273h-272z"/>
<glyph unicode="Ĺ" horiz-adv-x="1042" d="M178 0l225 1423h289l-188 -1187h549l-37 -236h-838zM430 1528l208 282h340l-270 -282h-278z"/>
<glyph unicode="ĺ" horiz-adv-x="592" d="M160 0l207 1311q-9 1 -24 3.5t-33 4.5t-35.5 3.5t-30.5 2.5l28 180h406l-238 -1505h-280zM367 1610l208 282h340l-270 -282h-278z"/>
<glyph unicode="Ļ" horiz-adv-x="1042" d="M178 0l225 1423h289l-188 -1187h549l-37 -236h-838zM231 -375l223 273h324l-275 -273h-272z"/>
<glyph unicode="ļ" horiz-adv-x="592" d="M160 0l207 1311q-9 1 -24 3.5t-33 4.5t-35.5 3.5t-30.5 2.5l28 180h406l-238 -1505h-280zM-100 -375l223 273h324l-275 -273h-272z"/>
<glyph unicode="Ľ" horiz-adv-x="1042" d="M178 0l225 1423h289l-188 -1187h549l-37 -236h-838zM827 1141l61 364h267l-111 -364h-217z"/>
<glyph unicode="ľ" horiz-adv-x="791" d="M160 0l207 1311q-9 1 -24 3.5t-33 4.5t-35.5 3.5t-30.5 2.5l28 180h406l-238 -1505h-280zM709 1141l61 364h267l-111 -364h-217z"/>
<glyph unicode="Ł" horiz-adv-x="1042" d="M178 0l76 479l-160 -114l41 256l160 112l108 690h289l-71 -456l206 147l-41 -256l-206 -147l-76 -475h549l-37 -236h-838z"/>
<glyph unicode="ł" horiz-adv-x="592" d="M160 0l86 549l-137 -98l34 231l140 98l84 531q-9 1 -24 3.5t-33 4.5t-35.5 3.5t-30.5 2.5l28 180h406l-80 -499l145 102l-34 -231l-146 -105l-123 -772h-280z"/>
<glyph unicode="Ń" horiz-adv-x="1405" d="M178 0l225 1423h256q23 -39 71 -136.5t81.5 -174t91.5 -219t86.5 -225.5t46.5 -138l142 893h274l-225 -1423h-246q-42 124 -84.5 252t-87.5 257t-93 259t-102 260l-161 -1028h-275zM785 1528l208 282h340l-270 -282h-278z"/>
<glyph unicode="ń" horiz-adv-x="1202" d="M158 0l166 1044h256l-5 -120q47 62 124.5 101.5t183.5 39.5q104 0 171.5 -40t89 -99t21.5 -115q0 -101 -20 -219l-94 -592h-281l88 553q19 121 19 166q0 110 -119 110q-61 0 -114 -40.5t-79 -92t-33 -96.5l-94 -600h-280zM637 1141l208 282h340l-270 -282h-278z"/>
<glyph unicode="Ņ" horiz-adv-x="1405" d="M178 0l225 1423h256q23 -39 71 -136.5t81.5 -174t91.5 -219t86.5 -225.5t46.5 -138l142 893h274l-225 -1423h-246q-42 124 -84.5 252t-87.5 257t-93 259t-102 260l-161 -1028h-275zM334 -375l223 273h324l-275 -273h-272z"/>
<glyph unicode="ņ" horiz-adv-x="1202" d="M158 0l166 1044h256l-5 -120q47 62 124.5 101.5t183.5 39.5q104 0 171.5 -40t89 -99t21.5 -115q0 -101 -20 -219l-94 -592h-281l88 553q19 121 19 166q0 110 -119 110q-61 0 -114 -40.5t-79 -92t-33 -96.5l-94 -600h-280zM234 -375l223 273h324l-275 -273h-272z"/>
<glyph unicode="Ň" horiz-adv-x="1405" d="M178 0l225 1423h256q23 -39 71 -136.5t81.5 -174t91.5 -219t86.5 -225.5t46.5 -138l142 893h274l-225 -1423h-246q-42 124 -84.5 252t-87.5 257t-93 259t-102 260l-161 -1028h-275zM820 1528l-215 282h258l92 -133l139 133h266l-305 -282h-235z"/>
<glyph unicode="ň" horiz-adv-x="1202" d="M158 0l166 1044h256l-5 -120q47 62 124.5 101.5t183.5 39.5q104 0 171.5 -40t89 -99t21.5 -115q0 -101 -20 -219l-94 -592h-281l88 553q19 121 19 166q0 110 -119 110q-61 0 -114 -40.5t-79 -92t-33 -96.5l-94 -600h-280zM664 1141l-215 282h258l92 -133l139 133h266 l-305 -282h-235z"/>
<glyph unicode="Ō" horiz-adv-x="1438" d="M723 -29q-139 0 -235.5 48.5t-156.5 127.5t-87 177.5t-27 199.5q0 117 19.5 231.5t58.5 217.5t98.5 191t139.5 152t180.5 100t222.5 36q141 0 242.5 -51t163.5 -141.5t82 -184t20 -174.5q0 -159 -35 -308.5t-107.5 -276t-175 -208.5t-202 -109.5t-201.5 -27.5zM741 205 q86 0 159.5 49.5t127 142.5t83.5 225.5t30 297.5q0 89 -24.5 158t-77.5 105t-121 36q-86 0 -159.5 -50t-127 -142.5t-83.5 -225t-30 -297.5q0 -49 9 -102t34 -96.5t68.5 -72t111.5 -28.5zM672 1765h707l-31 -194h-707z"/>
<glyph unicode="ō" horiz-adv-x="1192" d="M604 -25q-108 0 -186.5 34t-129.5 92.5t-75.5 135.5t-24.5 164q0 155 44.5 279t122.5 210.5t182.5 132.5t224.5 46q153 0 252 -70t131.5 -170t32.5 -186q0 -155 -44.5 -279t-122.5 -210.5t-182.5 -132.5t-224.5 -46zM631 193q87 0 147 73t82.5 181.5t22.5 203.5 q0 31 -4.5 66.5t-20.5 65.5t-45.5 49.5t-79.5 19.5q-88 0 -149 -77.5t-81 -182.5t-20 -199q0 -32 4.5 -67t20 -64.5t45 -49t78.5 -19.5zM485 1378h707l-31 -194h-707z"/>
<glyph unicode="Ő" horiz-adv-x="1438" d="M723 -29q-139 0 -235.5 48.5t-156.5 127.5t-87 177.5t-27 199.5q0 117 19.5 231.5t58.5 217.5t98.5 191t139.5 152t180.5 100t222.5 36q141 0 242.5 -51t163.5 -141.5t82 -184t20 -174.5q0 -159 -35 -308.5t-107.5 -276t-175 -208.5t-202 -109.5t-201.5 -27.5zM741 205 q86 0 159.5 49.5t127 142.5t83.5 225.5t30 297.5q0 89 -24.5 158t-77.5 105t-121 36q-86 0 -159.5 -50t-127 -142.5t-83.5 -225t-30 -297.5q0 -49 9 -102t34 -96.5t68.5 -72t111.5 -28.5zM608 1528l195 282h293l-246 -282h-242zM1036 1528l193 282h295l-246 -282h-242z"/>
<glyph unicode="ő" horiz-adv-x="1192" d="M604 -25q-108 0 -186.5 34t-129.5 92.5t-75.5 135.5t-24.5 164q0 155 44.5 279t122.5 210.5t182.5 132.5t224.5 46q153 0 252 -70t131.5 -170t32.5 -186q0 -155 -44.5 -279t-122.5 -210.5t-182.5 -132.5t-224.5 -46zM631 193q87 0 147 73t82.5 181.5t22.5 203.5 q0 31 -4.5 66.5t-20.5 65.5t-45.5 49.5t-79.5 19.5q-88 0 -149 -77.5t-81 -182.5t-20 -199q0 -32 4.5 -67t20 -64.5t45 -49t78.5 -19.5zM430 1141l195 282h293l-246 -282h-242zM858 1141l193 282h295l-246 -282h-242z"/>
<glyph unicode="Œ" horiz-adv-x="1980" d="M694 -29q-128 0 -218.5 48.5t-148 127.5t-84 177.5t-26.5 199.5q0 192 50 367.5t148 308.5t227.5 192.5t264.5 59.5q82 0 147.5 -24t107.5 -59t65 -66l18 120h846l-37 -235h-571l-51 -322h485l-37 -235h-485l-64 -395h604l-37 -236h-878l18 111q-60 -72 -148.5 -106 t-195.5 -34zM743 205q86 0 159 49.5t126 142.5t83 225.5t30 297.5q0 94 -24.5 162t-78.5 102.5t-123 34.5q-88 0 -161 -50t-125.5 -142.5t-81.5 -225t-29 -297.5q0 -49 9.5 -102t34.5 -96.5t69 -72t112 -28.5z"/>
<glyph unicode="œ" horiz-adv-x="1784" d="M604 -25q-108 0 -186.5 34t-129.5 92.5t-75.5 135.5t-24.5 164q0 159 44.5 283t119.5 209.5t174.5 130.5t210.5 45q128 0 213 -44t131 -128q41 55 107.5 97t135 58.5t128.5 16.5q67 0 131.5 -16t115.5 -51.5t82 -91.5t31 -136t-32 -153t-105 -129t-191.5 -89.5 t-291.5 -33.5h-53q14 -94 69.5 -135t143.5 -41q40 0 89.5 7.5t94.5 20t78 27.5l72 -201q-21 -8 -58 -20.5t-84 -24t-102 -19.5t-113 -8q-131 0 -220 38.5t-144 115.5q-73 -80 -164.5 -117t-196.5 -37zM631 193q87 0 147 73t82.5 181.5t22.5 203.5q0 31 -4.5 66.5t-20.5 65.5 t-45.5 49.5t-79.5 19.5q-88 0 -149 -77.5t-81 -182.5t-20 -199q0 -32 4.5 -67t20 -64.5t45 -49t78.5 -19.5zM1147 561h31q125 0 199.5 22t113.5 54t51 67.5t12 63.5q0 40 -17 64.5t-47 37.5t-65 13q-64 0 -127 -45t-99.5 -119t-51.5 -158z"/>
<glyph unicode="Ŕ" horiz-adv-x="1331" d="M178 0l225 1423h424q171 0 275.5 -55t137 -136t32.5 -155q0 -103 -40.5 -194.5t-100.5 -146.5t-119 -89q66 -99 120.5 -218t92 -229t63.5 -200h-313q-43 129 -80 226t-80 189t-78 142h-194l-88 -557h-277zM580 784h120q95 0 160 36t90 94.5t25 117.5q0 54 -20.5 90.5 t-69.5 55t-113 18.5h-129zM678 1528l208 282h340l-270 -282h-278z"/>
<glyph unicode="ŕ" horiz-adv-x="799" d="M158 0l166 1044h264l-21 -178q59 96 134.5 143.5t158.5 47.5q29 0 53.5 -4.5t32.5 -8.5l-41 -258q-14 4 -41 7.5t-61 3.5q-87 0 -153 -51t-94.5 -114.5t-35.5 -109.5l-82 -522h-280zM473 1141l208 282h340l-270 -282h-278z"/>
<glyph unicode="Ŗ" horiz-adv-x="1331" d="M178 0l225 1423h424q171 0 275.5 -55t137 -136t32.5 -155q0 -103 -40.5 -194.5t-100.5 -146.5t-119 -89q66 -99 120.5 -218t92 -229t63.5 -200h-313q-43 129 -80 226t-80 189t-78 142h-194l-88 -557h-277zM580 784h120q95 0 160 36t90 94.5t25 117.5q0 54 -20.5 90.5 t-69.5 55t-113 18.5h-129zM328 -375l223 273h324l-275 -273h-272z"/>
<glyph unicode="ŗ" horiz-adv-x="799" d="M158 0l166 1044h264l-21 -178q59 96 134.5 143.5t158.5 47.5q29 0 53.5 -4.5t32.5 -8.5l-41 -258q-14 4 -41 7.5t-61 3.5q-87 0 -153 -51t-94.5 -114.5t-35.5 -109.5l-82 -522h-280zM-94 -375l223 273h324l-275 -273h-272z"/>
<glyph unicode="Ř" horiz-adv-x="1331" d="M178 0l225 1423h424q171 0 275.5 -55t137 -136t32.5 -155q0 -103 -40.5 -194.5t-100.5 -146.5t-119 -89q66 -99 120.5 -218t92 -229t63.5 -200h-313q-43 129 -80 226t-80 189t-78 142h-194l-88 -557h-277zM580 784h120q95 0 160 36t90 94.5t25 117.5q0 54 -20.5 90.5 t-69.5 55t-113 18.5h-129zM723 1528l-215 282h258l92 -133l139 133h266l-305 -282h-235z"/>
<glyph unicode="ř" horiz-adv-x="799" d="M158 0l166 1044h264l-21 -178q59 96 134.5 143.5t158.5 47.5q29 0 53.5 -4.5t32.5 -8.5l-41 -258q-14 4 -41 7.5t-61 3.5q-87 0 -153 -51t-94.5 -114.5t-35.5 -109.5l-82 -522h-280zM514 1141l-215 282h258l92 -133l139 133h266l-305 -282h-235z"/>
<glyph unicode="Ś" horiz-adv-x="1128" d="M512 -25q-121 0 -231.5 23.5t-152 41.5t-52.5 23l90 236q12 -9 81 -33.5t135.5 -36.5t127.5 -12q117 0 189 30.5t92 77.5t20 89q0 59 -39.5 97t-106 68t-130.5 60q-51 23 -102 51t-91.5 68t-66 96.5t-25.5 136.5q0 154 90.5 264.5t221 151.5t251.5 41q110 0 208 -16.5 t165 -36.5l-39 -238q-35 10 -92 24.5t-124.5 22.5t-121.5 8q-99 0 -164.5 -29t-85.5 -71t-20 -82q0 -41 23 -69.5t61 -50t86.5 -41t99.5 -42.5q118 -53 181.5 -102t92.5 -121t29 -158q0 -109 -39.5 -196t-116 -148t-188.5 -94t-256 -33zM684 1528l208 282h340l-270 -282 h-278z"/>
<glyph unicode="ś" horiz-adv-x="973" d="M479 -20q-84 0 -151.5 9.5t-117 22t-81 25.5t-45.5 20l80 211q38 -18 87 -34.5t101 -24.5t105 -8q111 0 161 22.5t50 79.5q0 36 -36 59.5t-94.5 44.5t-105.5 39q-112 42 -166.5 102t-54.5 152q0 129 73.5 216t180.5 118t205 31q102 0 179.5 -11.5t143.5 -33.5l-35 -213 q-22 6 -55.5 13.5t-72 14t-79 11t-77.5 4.5q-75 0 -118 -15t-55 -38t-12 -43q0 -35 36 -58t90 -40t100 -33q93 -35 142.5 -72.5t71 -88.5t21.5 -106q0 -89 -34 -159t-95.5 -118t-148.5 -73.5t-193 -25.5zM529 1141l208 282h340l-270 -282h-278z"/>
<glyph unicode="Ş" horiz-adv-x="1128" d="M512 -25q-121 0 -231.5 23.5t-152 41.5t-52.5 23l90 236q12 -9 81 -33.5t135.5 -36.5t127.5 -12q117 0 189 30.5t92 77.5t20 89q0 59 -39.5 97t-106 68t-130.5 60q-51 23 -102 51t-91.5 68t-66 96.5t-25.5 136.5q0 154 90.5 264.5t221 151.5t251.5 41q110 0 208 -16.5 t165 -36.5l-39 -238q-35 10 -92 24.5t-124.5 22.5t-121.5 8q-99 0 -164.5 -29t-85.5 -71t-20 -82q0 -41 23 -69.5t61 -50t86.5 -41t99.5 -42.5q118 -53 181.5 -102t92.5 -121t29 -158q0 -109 -39.5 -196t-116 -148t-188.5 -94t-256 -33zM135 -375l223 273h324l-275 -273 h-272z"/>
<glyph unicode="ş" horiz-adv-x="973" d="M479 -20q-84 0 -151.5 9.5t-117 22t-81 25.5t-45.5 20l80 211q38 -18 87 -34.5t101 -24.5t105 -8q111 0 161 22.5t50 79.5q0 36 -36 59.5t-94.5 44.5t-105.5 39q-112 42 -166.5 102t-54.5 152q0 129 73.5 216t180.5 118t205 31q102 0 179.5 -11.5t143.5 -33.5l-35 -213 q-22 6 -55.5 13.5t-72 14t-79 11t-77.5 4.5q-75 0 -118 -15t-55 -38t-12 -43q0 -35 36 -58t90 -40t100 -33q93 -35 142.5 -72.5t71 -88.5t21.5 -106q0 -89 -34 -159t-95.5 -118t-148.5 -73.5t-193 -25.5zM92 -375l223 273h324l-275 -273h-272z"/>
<glyph unicode="Š" horiz-adv-x="1128" d="M512 -25q-121 0 -231.5 23.5t-152 41.5t-52.5 23l90 236q12 -9 81 -33.5t135.5 -36.5t127.5 -12q117 0 189 30.5t92 77.5t20 89q0 59 -39.5 97t-106 68t-130.5 60q-51 23 -102 51t-91.5 68t-66 96.5t-25.5 136.5q0 154 90.5 264.5t221 151.5t251.5 41q110 0 208 -16.5 t165 -36.5l-39 -238q-35 10 -92 24.5t-124.5 22.5t-121.5 8q-99 0 -164.5 -29t-85.5 -71t-20 -82q0 -41 23 -69.5t61 -50t86.5 -41t99.5 -42.5q118 -53 181.5 -102t92.5 -121t29 -158q0 -109 -39.5 -196t-116 -148t-188.5 -94t-256 -33zM660 1528l-215 282h258l92 -133 l139 133h266l-305 -282h-235z"/>
<glyph unicode="š" horiz-adv-x="973" d="M479 -20q-84 0 -151.5 9.5t-117 22t-81 25.5t-45.5 20l80 211q38 -18 87 -34.5t101 -24.5t105 -8q111 0 161 22.5t50 79.5q0 36 -36 59.5t-94.5 44.5t-105.5 39q-112 42 -166.5 102t-54.5 152q0 129 73.5 216t180.5 118t205 31q102 0 179.5 -11.5t143.5 -33.5l-35 -213 q-22 6 -55.5 13.5t-72 14t-79 11t-77.5 4.5q-75 0 -118 -15t-55 -38t-12 -43q0 -35 36 -58t90 -40t100 -33q93 -35 142.5 -72.5t71 -88.5t21.5 -106q0 -89 -34 -159t-95.5 -118t-148.5 -73.5t-193 -25.5zM537 1141l-215 282h258l92 -133l139 133h266l-305 -282h-235z"/>
<glyph unicode="Ţ" horiz-adv-x="1090" d="M401 0l187 1180h-375l39 243h1036l-39 -243h-372l-187 -1180h-289zM148 -375l223 273h324l-275 -273h-272z"/>
<glyph unicode="ţ" horiz-adv-x="774" d="M487 -20q-70 0 -119 17.5t-80 49t-45 76t-14 98.5q0 39 7 80l83 522h-147l35 221h147l35 222q60 21 139 52.5t160 70.5l-53 -345h252l-35 -221h-252l-78 -489q-4 -26 -4 -43q0 -50 21.5 -70t64.5 -20q58 0 127 22l53 -200q-49 -16 -124.5 -29.5t-172.5 -13.5zM98 -375 l223 273h324l-275 -273h-272z"/>
<glyph unicode="Ť" horiz-adv-x="1090" d="M401 0l187 1180h-375l39 243h1036l-39 -243h-372l-187 -1180h-289zM670 1528l-215 282h258l92 -133l139 133h266l-305 -282h-235z"/>
<glyph unicode="ť" horiz-adv-x="774" d="M487 -20q-70 0 -119 17.5t-80 49t-45 76t-14 98.5q0 39 7 80l83 522h-147l35 221h147l35 222q60 21 139 52.5t160 70.5l-53 -345h252l-35 -221h-252l-78 -489q-4 -26 -4 -43q0 -50 21.5 -70t64.5 -20q58 0 127 22l53 -200q-49 -16 -124.5 -29.5t-172.5 -13.5zM776 1141 l61 364h267l-111 -364h-217z"/>
<glyph unicode="Ū" horiz-adv-x="1378" d="M700 -25q-100 0 -184 25t-145.5 74.5t-96 122.5t-34.5 170v38q0 49 14 150l137 868h289l-145 -915q-7 -41 -7 -88q0 -52 14 -89t39.5 -60.5t62.5 -34.5t83 -11q52 0 97 13t80 43t59.5 79.5t35.5 122.5l150 940h289l-156 -981q-19 -123 -70 -211t-127 -145t-174 -84 t-211 -27zM584 1765h707l-31 -194h-707z"/>
<glyph unicode="ū" horiz-adv-x="1202" d="M483 -20q-72 0 -125 18.5t-88 52t-52 80t-17 102.5q0 66 22 220l92 591h281l-88 -552q-19 -122 -19 -166q0 -111 119 -111q57 0 112 40t81 92t33 97l94 600h280l-166 -1044h-256l5 121q-47 -62 -124.5 -101.5t-183.5 -39.5zM438 1378h707l-31 -194h-707z"/>
<glyph unicode="Ů" horiz-adv-x="1378" d="M700 -25q-100 0 -184 25t-145.5 74.5t-96 122.5t-34.5 170v38q0 49 14 150l137 868h289l-145 -915q-7 -41 -7 -88q0 -52 14 -89t39.5 -60.5t62.5 -34.5t83 -11q52 0 97 13t80 43t59.5 79.5t35.5 122.5l150 940h289l-156 -981q-19 -123 -70 -211t-127 -145t-174 -84 t-211 -27zM938 1528q-51 0 -96 19.5t-78.5 53t-53 78.5t-19.5 97q0 77 41 136.5t97.5 85t108.5 25.5q78 0 137.5 -41.5t85 -98t25.5 -107.5q0 -77 -42.5 -139t-98 -85.5t-107.5 -23.5zM938 1655q37 0 65.5 20.5t40 48t11.5 52.5q0 38 -19.5 66t-46 41t-51.5 13 q-36 0 -64.5 -20t-40 -48t-11.5 -52q0 -36 20 -68t46 -42.5t50 -10.5z"/>
<glyph unicode="ů" horiz-adv-x="1202" d="M483 -20q-72 0 -125 18.5t-88 52t-52 80t-17 102.5q0 66 22 220l92 591h281l-88 -552q-19 -122 -19 -166q0 -111 119 -111q57 0 112 40t81 92t33 97l94 600h280l-166 -1044h-256l5 121q-47 -62 -124.5 -101.5t-183.5 -39.5zM800 1141q-51 0 -96 19.5t-78.5 53t-53 78.5 t-19.5 97q0 77 41 136.5t97.5 85t108.5 25.5q78 0 137.5 -41.5t85 -98t25.5 -107.5q0 -77 -42.5 -139t-98 -85.5t-107.5 -23.5zM800 1268q37 0 65.5 20.5t40 48t11.5 52.5q0 38 -19.5 66t-46 41t-51.5 13q-36 0 -64.5 -20t-40 -48t-11.5 -52q0 -36 20 -68t46 -42.5t50 -10.5 z"/>
<glyph unicode="Ű" horiz-adv-x="1378" d="M700 -25q-100 0 -184 25t-145.5 74.5t-96 122.5t-34.5 170v38q0 49 14 150l137 868h289l-145 -915q-7 -41 -7 -88q0 -52 14 -89t39.5 -60.5t62.5 -34.5t83 -11q52 0 97 13t80 43t59.5 79.5t35.5 122.5l150 940h289l-156 -981q-19 -123 -70 -211t-127 -145t-174 -84 t-211 -27zM584 1528l195 282h293l-246 -282h-242zM1012 1528l193 282h295l-246 -282h-242z"/>
<glyph unicode="ű" horiz-adv-x="1202" d="M483 -20q-72 0 -125 18.5t-88 52t-52 80t-17 102.5q0 66 22 220l92 591h281l-88 -552q-19 -122 -19 -166q0 -111 119 -111q57 0 112 40t81 92t33 97l94 600h280l-166 -1044h-256l5 121q-47 -62 -124.5 -101.5t-183.5 -39.5zM430 1141l195 282h293l-246 -282h-242z M858 1141l193 282h295l-246 -282h-242z"/>
<glyph unicode="Ų" horiz-adv-x="1378" d="M651 -414q-64 0 -105 14.5t-65 37.5t-33.5 52.5t-9.5 59.5q0 39 13 74t36.5 64t56 52.5t70.5 39.5q-83 10 -151.5 39t-118 78t-77 116.5t-27.5 153.5v38q0 49 14 150l137 868h289l-145 -915q-7 -41 -7 -88q0 -52 14 -89t39.5 -60.5t62.5 -34.5t83 -11q52 0 97 13t80 43 t59.5 79.5t35.5 122.5l150 940h289l-156 -981q-15 -93 -48 -166.5t-82 -128t-112 -91t-137 -56.5q-68 -19 -114.5 -43t-74.5 -49.5t-40 -50t-12 -45.5q0 -32 20.5 -48t52.5 -16q37 0 63 6t42 13l41 -138q-50 -18 -105.5 -30.5t-124.5 -12.5z"/>
<glyph unicode="ų" horiz-adv-x="1202" d="M483 -20q-72 0 -125 18.5t-88 52t-52 80t-17 102.5q0 66 22 220l92 591h281l-88 -552q-19 -122 -19 -166q0 -111 119 -111q57 0 112 40t81 92t33 97l94 600h280l-166 -1044h-256l5 121q-47 -62 -124.5 -101.5t-183.5 -39.5zM784 -414q-64 0 -105 14.5t-65 37.5 t-33.5 52.5t-9.5 59.5q0 46 17.5 85.5t48.5 71.5t73.5 55.5t91.5 37.5h240q-71 -19 -118.5 -43t-76 -49.5t-41 -50t-12.5 -45.5q0 -32 21 -48t53 -16q37 0 63 6t41 13l41 -138q-49 -18 -104.5 -30.5t-124.5 -12.5z"/>
<glyph unicode="Ÿ" horiz-adv-x="1262" d="M485 0l101 639q-59 101 -132 250.5t-126 284t-90 249.5h286q42 -112 99.5 -249.5t140.5 -303.5q111 132 209 264.5t205 288.5h297q-104 -161 -220.5 -316.5t-215 -274t-162.5 -191.5l-103 -641h-289zM663 1534q-33 0 -60.5 10t-47 28t-30.5 43t-11 54q0 43 23 77t58 48 t68 14q49 0 87 -22.5t52.5 -54.5t14.5 -62q0 -29 -11 -54t-31.5 -43t-49 -28t-62.5 -10zM1073 1534q-33 0 -60.5 10t-47.5 28t-31 43t-11 54q0 43 23 77t58 48t69 14q49 0 86.5 -22t52 -54.5t14.5 -62.5q0 -44 -24 -77t-60 -45.5t-69 -12.5z"/>
<glyph unicode="Ź" horiz-adv-x="1126" d="M53 0l37 229q96 132 224 294t221 274q120 145 344 391h-609l37 235h961l-35 -229q-16 -16 -142.5 -155.5t-277.5 -315.5q-95 -111 -219.5 -264t-177.5 -223h694l-37 -236h-1020zM650 1528l208 282h340l-270 -282h-278z"/>
<glyph unicode="ź" horiz-adv-x="985" d="M53 0l33 215q84 99 168.5 187t163.5 167q66 66 154.5 149.5t113.5 104.5h-471l35 221h817l-35 -215q-61 -51 -309 -288q-90 -87 -172 -169.5t-143 -150.5h536l-35 -221h-856zM514 1141l208 282h340l-270 -282h-278z"/>
<glyph unicode="Ż" horiz-adv-x="1126" d="M53 0l37 229q96 132 224 294t221 274q120 145 344 391h-609l37 235h961l-35 -229q-16 -16 -142.5 -155.5t-277.5 -315.5q-95 -111 -219.5 -264t-177.5 -223h694l-37 -236h-1020zM829 1530q-35 0 -63.5 10t-49 28.5t-32 44t-11.5 56.5q0 46 23.5 80.5t60 48.5t72.5 14 q50 0 88.5 -21t55 -56.5t16.5 -65.5q0 -46 -25 -80t-62 -46.5t-73 -12.5z"/>
<glyph unicode="ż" horiz-adv-x="985" d="M53 0l33 215q84 99 168.5 187t163.5 167q66 66 154.5 149.5t113.5 104.5h-471l35 221h817l-35 -215q-61 -51 -309 -288q-90 -87 -172 -169.5t-143 -150.5h536l-35 -221h-856zM702 1143q-35 0 -63.5 10t-49 28.5t-32 44t-11.5 56.5q0 46 23.5 80.5t60 48.5t72.5 14 q50 0 88.5 -21t55 -56.5t16.5 -65.5q0 -46 -25 -80t-62 -46.5t-73 -12.5z"/>
<glyph unicode="ƒ" horiz-adv-x="1018" d="M195 -434q-70 0 -135 14.5t-85 26.5l41 184q11 -6 47.5 -15t83.5 -9q55 0 90 18.5t53 58.5t27 93l136 860h-131l32 221h131l31 182q26 159 129 242.5t268 83.5q71 0 134 -10t127 -29l-48 -201q-26 8 -74.5 17.5t-84.5 9.5q-55 0 -94.5 -20.5t-59 -60t-27.5 -87.5 l-20 -127h238l-33 -221h-238l-127 -807q-25 -152 -74 -246t-138 -136t-199 -42z"/>
<glyph unicode="ˆ" horiz-adv-x="866" d="M236 1141l305 282h235l215 -282h-258l-92 133l-139 -133h-266z"/>
<glyph unicode="ˇ" horiz-adv-x="866" d="M496 1141l-215 282h258l92 -133l139 133h266l-305 -282h-235z"/>
<glyph unicode="˘" horiz-adv-x="870" d="M631 1155q-78 0 -131.5 18.5t-87 50.5t-48.5 73.5t-14 88.5v9q0 6 2 12h170q1 -21 7 -39t20.5 -31t37 -20.5t56.5 -7.5q65 0 95.5 27.5t41.5 70.5h185q-17 -82 -63 -141.5t-117 -85t-154 -25.5z"/>
<glyph unicode="˙" horiz-adv-x="879" d="M643 1143q-35 0 -63.5 10t-49 28.5t-32 44t-11.5 56.5q0 46 23.5 80.5t60 48.5t72.5 14q50 0 88.5 -21t55 -56.5t16.5 -65.5q0 -46 -25 -80t-62 -46.5t-73 -12.5z"/>
<glyph unicode="˚" horiz-adv-x="874" d="M655 1141q-51 0 -96 19.5t-78.5 53t-53 78.5t-19.5 97q0 77 41 136.5t97.5 85t108.5 25.5q78 0 137.5 -41.5t85 -98t25.5 -107.5q0 -77 -42.5 -139t-98 -85.5t-107.5 -23.5zM655 1268q37 0 65.5 20.5t40 48t11.5 52.5q0 38 -19.5 66t-46 41t-51.5 13q-36 0 -64.5 -20 t-40 -48t-11.5 -52q0 -36 20 -68t46 -42.5t50 -10.5z"/>
<glyph unicode="˛" horiz-adv-x="874" d="M385 -414q-64 0 -105 14.5t-65 37.5t-33.5 52.5t-9.5 59.5q0 46 17.5 85.5t48.5 71.5t73.5 55.5t91.5 37.5h240q-71 -19 -118.5 -43t-76 -49.5t-41 -50t-12.5 -45.5q0 -32 21 -48t53 -16q37 0 63 6t41 13l41 -138q-49 -18 -104.5 -30.5t-124.5 -12.5z"/>
<glyph unicode="˜" horiz-adv-x="866" d="M760 1128q-47 0 -83.5 17t-84.5 51q-32 22 -56.5 34.5t-46.5 12.5q-32 0 -54 -23t-48 -83l-129 59q51 128 113 184t131 56q47 0 85 -16t83 -50q41 -32 63.5 -40.5t46.5 -8.5q29 0 53.5 23t47.5 81l137 -47q-29 -73 -60 -121t-63 -76.5t-66 -40.5t-69 -12z"/>
<glyph unicode="˝" horiz-adv-x="862" d="M176 1141l195 282h293l-246 -282h-242zM604 1141l193 282h295l-246 -282h-242z"/>
<glyph unicode="Δ" horiz-adv-x="1360" d="M770 1423h234l303 -1423h-1291zM961 238l-134 766l-378 -766h512z"/>
<glyph unicode="Ω" horiz-adv-x="1466" d="M135 231h234q-29 31 -54 73t-44.5 95.5t-30.5 119t-11 143.5q0 91 19.5 185t58 181.5t96 165t134.5 135t173.5 90.5t211.5 33q120 0 222.5 -36.5t173 -114.5t104.5 -181t34 -219q0 -131 -25.5 -255.5t-87 -228t-157.5 -186.5h203l-37 -231h-557l32 205q62 28 121.5 84.5 t106 141.5t74.5 198.5t28 257.5q0 63 -16 140.5t-72.5 134.5t-153.5 57q-87 0 -158.5 -46t-122.5 -129.5t-78.5 -200t-27.5 -257.5q0 -67 9.5 -126.5t29 -108.5t50 -86.5t71.5 -59.5l-33 -205h-557z"/>
<glyph unicode="π" horiz-adv-x="1184" d="M182 0l131 823h-120l34 221h1063l-35 -221h-118l-131 -823h-283l131 823h-258l-131 -823h-283z"/>
<glyph unicode="–" horiz-adv-x="1024" d="M68 422l34 219h1024l-34 -219h-1024z"/>
<glyph unicode="—" horiz-adv-x="2048" d="M68 422l34 219h2048l-34 -219h-2048z"/>
<glyph unicode="‘" horiz-adv-x="535" d="M295 936q-14 35 -14 90q0 86 32 174.5t82.5 161t85.5 109t56 55.5l114 -96q-29 -34 -60 -85.5t-47 -99t-16 -90.5q0 -46 14 -71.5t40 -41.5l-27 -106h-260z"/>
<glyph unicode="’" horiz-adv-x="532" d="M383 915l-115 97q30 36 57.5 81t46.5 97.5t19 95.5q0 47 -13.5 72t-39.5 41l27 106h260q14 -35 14 -90q0 -111 -48.5 -215.5t-106 -174.5t-101.5 -110z"/>
<glyph unicode="‚" horiz-adv-x="532" d="M188 -272l-114 96q28 34 57 82t47.5 98.5t18.5 93.5q0 47 -14 72t-40 41l27 106h260q14 -35 14 -90q0 -111 -48 -214t-106 -173.5t-102 -111.5z"/>
<glyph unicode="“" horiz-adv-x="934" d="M281 936q-8 20 -11.5 45.5t-3.5 44.5q0 86 32 174.5t82.5 161t85.5 109t56 55.5l115 -96q-29 -34 -60 -85.5t-47 -99t-16 -90.5q0 -46 13.5 -71.5t39.5 -41.5l-26 -106h-260zM713 936q-8 20 -11.5 45.5t-3.5 44.5q0 86 32 174.5t82.5 161t85.5 109t56 55.5l115 -96 q-29 -34 -60 -85.5t-47 -99t-16 -90.5q0 -46 13.5 -71.5t39.5 -41.5l-26 -106h-260z"/>
<glyph unicode="”" horiz-adv-x="934" d="M367 915l-115 97q30 36 57.5 81t46.5 97.5t19 95.5q0 47 -13.5 72t-39.5 41l26 106h260q8 -20 11.5 -45.5t3.5 -44.5q0 -111 -48.5 -215.5t-106 -174.5t-101.5 -110zM799 915l-115 97q30 36 57.5 81t46.5 97.5t19 95.5q0 47 -13.5 72t-39.5 41l26 106h260 q8 -20 11.5 -45.5t3.5 -44.5q0 -111 -48.5 -215.5t-106 -174.5t-101.5 -110z"/>
<glyph unicode="„" horiz-adv-x="934" d="M193 -272l-115 96q28 34 56.5 82t47.5 98.5t19 93.5q0 47 -14 72t-40 41l27 106h260q8 -20 11.5 -45.5t3.5 -44.5q0 -111 -48 -214t-106 -173.5t-102 -111.5zM625 -272l-115 96q28 34 56.5 82t47.5 98.5t19 93.5q0 47 -13.5 72t-39.5 41l26 106h260q8 -20 11.5 -45.5 t3.5 -44.5q0 -111 -48 -214t-106 -173.5t-102 -111.5z"/>
<glyph unicode="†" horiz-adv-x="1012" d="M356 0l146 924h-291l37 231h289l55 350h280l-55 -350h291l-37 -231h-289l-145 -924h-281z"/>
<glyph unicode="‡" horiz-adv-x="989" d="M356 0l52 332h-281l37 231h280l60 379h-281l37 232h281l51 331h280l-51 -331h281l-37 -232h-281l-59 -379h281l-37 -231h-281l-51 -332h-281z"/>
<glyph unicode="•" horiz-adv-x="866" d="M543 330q-75 0 -140.5 28.5t-114.5 77.5t-77.5 114.5t-28.5 139.5q0 109 60 198.5t143 126t158 36.5q106 0 195 -58.5t127 -143t38 -159.5q0 -74 -28.5 -139.5t-77.5 -114.5t-114.5 -77.5t-139.5 -28.5z"/>
<glyph unicode="…" horiz-adv-x="2048" d="M362 -20q-41 0 -74.5 13t-58 35.5t-38 53t-13.5 65.5q0 54 29 95.5t71.5 58t83.5 16.5q61 0 105.5 -27t63 -67t18.5 -76q0 -54 -29.5 -94.5t-72.5 -56.5t-85 -16zM1044 -20q-41 0 -74.5 13t-58 35.5t-38 53t-13.5 65.5q0 54 29 95.5t71.5 58t83.5 16.5q61 0 105.5 -27 t63 -67t18.5 -76q0 -54 -29.5 -94.5t-72.5 -56.5t-85 -16zM1726 -20q-41 0 -74.5 13t-58 35.5t-38 53t-13.5 65.5q0 54 29 95.5t71.5 58t83.5 16.5q61 0 105.5 -27t63 -67t18.5 -76q0 -54 -29.5 -94.5t-72.5 -56.5t-85 -16z"/>
<glyph unicode="‰" horiz-adv-x="3013" d="M1642 -14q-87 0 -151 28t-105 77t-61 116.5t-20 146.5q0 108 25 209t78 179t135.5 125.5t197.5 47.5q127 0 206.5 -57.5t105.5 -144.5t26 -170q0 -108 -25 -208.5t-78 -178t-136 -124t-198 -46.5zM2529 -14q-87 0 -151 28t-105.5 77t-61.5 116.5t-20 146.5q0 108 25 209 t78 179t135.5 125.5t198.5 47.5q127 0 206.5 -57.5t105.5 -144.5t26 -170q0 -97 -20.5 -188.5t-62.5 -164.5t-105 -123t-124 -65.5t-125 -15.5zM547 0l987 1505h254l-987 -1505h-254zM1655 180q67 0 105.5 64t53.5 153t15 164q0 49 -10 86t-34 56.5t-56 19.5 q-55 0 -92.5 -45.5t-56 -116t-22.5 -127.5t-4 -92q0 -27 3.5 -55.5t14.5 -52.5t31 -39t52 -15zM2542 180q67 0 105.5 64t53.5 153t15 164q0 49 -10 85.5t-35 56.5t-56 20q-55 0 -91.5 -44.5t-55.5 -116t-23 -128.5t-4 -92q0 -27 3.5 -55.5t14.5 -52.5t31 -39t52 -15z M594 590q-88 0 -151.5 28t-105 77.5t-61.5 116.5t-20 146q0 108 25 209t78 179.5t135.5 126t197.5 47.5q128 0 207 -58.5t105 -145t26 -169.5q0 -108 -25 -208.5t-78 -178t-135.5 -124t-197.5 -46.5zM606 784q67 0 105.5 64t53.5 153t15 164q0 49 -10 86t-34.5 56.5 t-55.5 19.5q-55 0 -91.5 -44.5t-55.5 -116t-23 -128.5t-4 -92q0 -27 3.5 -55.5t14 -52.5t30.5 -39t52 -15z"/>
<glyph unicode="‹" horiz-adv-x="666" d="M344 111l-197 411l326 412h281l-348 -426l198 -397h-260z"/>
<glyph unicode="›" horiz-adv-x="666" d="M80 111l348 426l-199 397h260l197 -412l-326 -411h-280z"/>
<glyph unicode="⁄" horiz-adv-x="102" d="M590 1505h268l-1108 -1505h-268z"/>
<glyph unicode="€" horiz-adv-x="1200" d="M842 -20q-110 0 -204.5 27.5t-165 92t-112 169.5t-45.5 261h-170l41 123h133q4 51 11 101t18 98h-153l41 123h149q43 117 111 205t154 146.5t185.5 88t206.5 29.5q78 0 137 -10t100 -23t65 -25l32 -16l-88 -211q-36 15 -64 23t-83 18t-97 10q-78 0 -150 -29.5t-124 -84 t-86 -121.5h512l-37 -123h-520q-12 -43 -20 -92.5t-11 -106.5h436l-38 -123h-400q4 -87 27 -146.5t61 -95.5t89.5 -51.5t111.5 -15.5q71 0 136 14t97 29l72 -217q-40 -19 -94 -33t-130 -24t-134 -10z"/>
<glyph unicode="™" horiz-adv-x="1870" d="M496 604v651h-252v168h688v-168h-248v-651h-188zM1008 604q1 120 8.5 321t15.5 307t17 191h204l199 -495l195 495h202q9 -92 19 -262.5t12.5 -234.5t5 -150.5t4.5 -171.5h-182q0 165 -10 510l-176 -446h-148l-174 440q-10 -325 -10 -504h-182z"/>
<glyph unicode="∂" horiz-adv-x="1223" d="M647 -25q-125 0 -212 39.5t-141.5 104.5t-79 148.5t-24.5 170.5q0 105 31 208.5t97 187.5t157.5 121.5t183.5 37.5q69 0 124 -16.5t88.5 -42t48.5 -45.5q0 100 -19 173.5t-51.5 121.5t-76.5 71t-95 23q-54 0 -93.5 -13.5t-58.5 -25.5l-90 219q29 17 72 34t88.5 25.5 t89.5 8.5q123 0 221 -55.5t166 -158t104.5 -247.5t36.5 -324q0 -185 -37.5 -327.5t-109.5 -240t-177.5 -148t-242.5 -50.5zM655 203q81 1 138.5 57t81.5 141t24 172q0 80 -29.5 127.5t-70 62t-76.5 13.5q-95 -2 -155 -73t-76.5 -152t-16.5 -135q0 -61 13.5 -102t37.5 -66 t57 -35.5t72 -9.5z"/>
<glyph unicode="∏" horiz-adv-x="1417" d="M141 -266l232 1454h-142l37 235h1331l-36 -235h-140l-231 -1454h-289l232 1454h-473l-232 -1454h-289z"/>
<glyph unicode="∑" horiz-adv-x="1257" d="M-2 -266l33 207l590 647l-373 629l33 206h1132l-37 -235h-803l381 -633l-542 -586h819l-39 -235h-1194z"/>
<glyph unicode="−" d="M193 594l38 242h983l-38 -242h-983z"/>
<glyph unicode="√" horiz-adv-x="1298" d="M721 0l-285 815l-192 -80l-78 215l448 191l230 -692l465 1431l239 -59l-596 -1821h-231z"/>
<glyph unicode="∞" horiz-adv-x="1552" d="M477 356q-74 0 -131.5 27t-97.5 71t-61 101t-21 117q0 94 32.5 167t86.5 123t124.5 76.5t147.5 26.5q51 0 94.5 -9t85 -31t84 -59.5t90.5 -93.5q89 83 157 126.5t123.5 55t106.5 11.5q107 0 184 -58t103.5 -132t26.5 -136q0 -91 -33.5 -162.5t-88 -120.5t-125 -74.5 t-144.5 -25.5q-51 0 -94.5 9t-85.5 31t-84.5 59.5t-90.5 93.5q-96 -86 -161.5 -128t-121 -53.5t-106.5 -11.5zM508 573q77 0 233 142q-42 53 -70 78.5t-63 40t-65 14.5q-66 0 -109 -42.5t-43 -117.5q0 -51 29 -83t88 -32zM1235 573q45 0 82.5 23t53 60.5t15.5 74.5 q0 50 -31 83.5t-89 33.5q-56 0 -106.5 -34t-123.5 -107q38 -51 72 -82t64.5 -41.5t62.5 -10.5z"/>
<glyph unicode="∫" horiz-adv-x="844" d="M164 -434q-75 0 -129 17t-105 42l76 213q28 -14 61 -24.5t72 -10.5q43 0 70 15t43.5 48.5t21.5 76.5l156 1226q17 133 82 217.5t148.5 112t164.5 27.5q79 0 133 -13t95 -34l-35 -224q-24 11 -51 20t-60 15t-57 6q-59 0 -95.5 -34t-45.5 -111l-154 -1233 q-18 -132 -79.5 -214.5t-147 -110t-164.5 -27.5z"/>
<glyph unicode="≈" horiz-adv-x="1417" d="M344 176l-203 115q69 135 147 221.5t150.5 118t132.5 31.5q106 0 263 -93q131 -80 186 -80q38 0 72.5 23.5t67 69.5t65.5 106l202 -115q-44 -87 -94 -156t-104.5 -116.5t-113.5 -72.5t-120 -25q-77 0 -132 22t-134 70q-140 80 -184 80q-37 0 -70.5 -25t-67 -73 t-63.5 -101zM430 739l-203 115q69 135 147 221.5t150.5 118t132.5 31.5q72 0 123.5 -20t139.5 -72q131 -80 186 -80q37 0 72 22.5t68 70t65 105.5l202 -114q-65 -130 -143.5 -219t-153 -120.5t-135.5 -31.5q-77 0 -132 22t-134 70q-140 80 -184 80q-37 0 -72 -26.5 t-66.5 -72.5t-62.5 -100z"/>
<glyph unicode="≠" d="M369 55l-156 84l141 211h-200l39 242h323l164 244h-449l37 241h572l196 293l154 -84l-139 -209h200l-37 -241h-323l-164 -244h449l-39 -242h-572z"/>
<glyph unicode="≤" d="M98 0l39 242h983l-39 -242h-983zM1135 342l-932 313l37 242l1032 311l-43 -272l-692 -170l639 -172z"/>
<glyph unicode="≥" d="M98 0l39 242h983l-39 -242h-983zM152 342l43 272l692 170l-639 172l41 252l932 -313l-37 -242z"/>
<glyph unicode="◊" horiz-adv-x="1221" d="M606 -29l-399 742l633 739l399 -739zM664 383l292 344l-174 313l-293 -342z"/>
<glyph unicode="◼" horiz-adv-x="1045" d="M0 1045h1045v-1045h-1045v1045z"/>
<glyph unicode="ﬁ" horiz-adv-x="1200" d="M66 -381l-107 166l48 32t62 57t60.5 93.5t42.5 141.5l115 714h-119l35 221h116l15 78q18 97 57.5 172t102 126.5t148.5 78.5t196 27q93 0 171.5 -13t131.5 -28l-35 -213q-26 8 -107.5 24.5t-144.5 16.5q-83 0 -134.5 -26.5t-74.5 -73.5t-31 -99l-12 -70h598l-166 -1044 h-280l131 823h-318l-116 -727q-14 -84 -43 -150t-66.5 -116.5t-79.5 -87t-80 -61.5t-69 -40t-47 -22z"/>
<glyph unicode="ﬂ" horiz-adv-x="1206" d="M66 -381l-107 166q18 12 48.5 32t63.5 57t61.5 93.5t41.5 141.5l113 714h-119l35 221h116l17 103q18 110 64.5 183t113.5 116.5t150 61.5t174 18q112 0 224.5 -24.5t163 -45t56.5 -22.5l-227 -1434h-281l203 1280q-13 6 -62 19.5t-102 13.5q-77 0 -119 -27t-60 -77.5 t-26 -106.5l-8 -58h178l-35 -221h-176l-116 -727q-14 -84 -43 -150t-66.5 -116.5t-79.5 -87t-80 -61.5t-69 -40t-47 -22z"/>
<glyph horiz-adv-x="532" d="M299 1141l61 364h267l-111 -364h-217z"/>
</font>
</defs>
</svg>
