<?xml version="1.0" encoding="UTF-8" standalone="no"?>
<!DOCTYPE svg PUBLIC "-//W3C//DTD SVG 1.1//EN" "http://www.w3.org/Graphics/SVG/1.1/DTD/svg11.dtd">
<svg xmlns="http://www.w3.org/2000/svg">
<metadata/>
<defs>
<font id="sparkasse_mediumregular" horiz-adv-x="1182">
<font-face units-per-em="2048" ascent="1638" descent="-410"/>
<missing-glyph horiz-adv-x="471"/>
<glyph unicode=" " horiz-adv-x="471"/>
<glyph unicode="&#9;" horiz-adv-x="471"/>
<glyph unicode=" " horiz-adv-x="471"/>
<glyph unicode="!" horiz-adv-x="573" d="M287 -20q-36 0 -67 12t-53.5 33t-35 48.5t-12.5 59.5q0 47 25 84t65 54.5t76 17.5q52 0 93 -25.5t58 -61t17 -67.5q0 -49 -27.5 -87t-65 -53t-73.5 -15zM168 479l-8 944h256l-8 -944h-240z"/>
<glyph unicode="&quot;" horiz-adv-x="944" d="M147 971v534h228v-534h-228zM569 971v534h228v-534h-228z"/>
<glyph unicode="#" horiz-adv-x="1253" d="M186 0l60 393h-183v180h209l43 277h-182v180h209l59 393h205l-59 -393h256l59 393h205l-59 -393h182v-180h-209l-43 -277h182v-180h-209l-59 -393h-205l60 393h-256l-60 -393h-205zM477 573h256l43 277h-256z"/>
<glyph unicode="$" horiz-adv-x="1122" d="M500 -127v117q-129 6 -224.5 29t-175.5 57l64 192q19 -10 55 -23.5t82 -25.5t97.5 -20.5t101.5 -8.5v443l-49 20q-37 15 -76 33t-76.5 41t-71 52t-59 66.5t-40.5 85.5t-15 109q0 81 28 147.5t79.5 116t123 80.5t158.5 41v101h106v-92q151 -6 330 -54v-206 q-83 30 -171.5 46.5t-158.5 16.5v-401l27 -11q141 -54 222.5 -109t121 -137t39.5 -178q0 -92 -30.5 -164.5t-86 -124t-132 -81.5t-167.5 -37v-121h-102zM602 201q63 14 99.5 47t48.5 72.5t12 72.5q0 62 -41.5 109t-118.5 84v-385zM506 874v355q-78 -17 -118 -62t-40 -116 q0 -45 25 -80.5t61.5 -58.5t71.5 -38z"/>
<glyph unicode="%" horiz-adv-x="2097" d="M1597 -18q-88 0 -157 31t-116 89.5t-72 143.5t-25 192t24.5 192.5t71.5 145t115.5 91.5t156.5 32q132 0 220.5 -69.5t120.5 -176.5t32 -215q0 -107 -25 -191.5t-72 -143t-116.5 -90t-157.5 -31.5zM489 0l889 1505h228l-887 -1505h-230zM1595 152q51 0 86.5 35.5 t50.5 103.5t15 147q0 115 -24 183t-59 89t-67 21t-60 -15.5t-48 -50t-31.5 -90.5t-11.5 -137q0 -78 11 -132.5t31 -88.5t47.5 -49.5t59.5 -15.5zM500 606q-89 0 -158 31t-116 90t-72 143.5t-25 192.5q0 107 24.5 192.5t71.5 145t115.5 91.5t157.5 32t158 -31.5t116.5 -91 t72.5 -145t25 -193.5q0 -107 -25 -191.5t-72 -143.5t-116 -90.5t-157 -31.5zM498 776q50 0 85.5 35.5t50.5 104t15 147.5q0 118 -23.5 184.5t-59 87.5t-66.5 21q-32 0 -60 -15.5t-48.5 -50t-32 -90.5t-11.5 -137q0 -78 11.5 -133t31.5 -89t47.5 -49.5t59.5 -15.5z"/>
<glyph unicode="&amp;" horiz-adv-x="1419" d="M569 -20q-116 0 -204 30t-147.5 82.5t-89.5 124t-30 154.5q0 81 21.5 145t66.5 117q39 48 92.5 90t135.5 88q-63 65 -97 121.5t-44.5 105t-10.5 95.5q0 99 60 176.5t145 107t170 29.5q132 0 221 -47.5t118.5 -118t29.5 -135.5q0 -88 -40 -159.5t-99 -122t-119 -87.5 q63 -64 272 -303q26 59 36.5 116.5t10.5 102.5v13h203v-15q0 -105 -29.5 -200t-85.5 -183q78 -97 135.5 -174t91.5 -133h-268q-76 105 -100 139q-61 -53 -137.5 -91.5t-155.5 -53t-152 -14.5zM592 170q101 0 171.5 33.5t127.5 87.5q-83 98 -184.5 213t-153.5 170 q-90 -51 -140.5 -97t-66.5 -93.5t-16 -94.5q0 -100 67.5 -159.5t194.5 -59.5zM612 911q45 25 77.5 49t53.5 50q25 29 38.5 63t13.5 72q0 62 -40 102.5t-120 40.5q-56 0 -95 -24.5t-54 -58.5t-15 -66q0 -56 28 -99t66 -82z"/>
<glyph unicode="'" horiz-adv-x="532" d="M152 971v534h227v-534h-227z"/>
<glyph unicode="(" horiz-adv-x="713" d="M414 -207q-66 76 -121.5 167.5t-95 198t-62 228.5t-22.5 260q0 139 22.5 262t62 230.5t95 198.5t121.5 167h252q-104 -140 -174 -301.5t-95.5 -301.5t-25.5 -255q0 -114 21 -228.5t60 -223.5t93.5 -211t120.5 -191h-252z"/>
<glyph unicode=")" horiz-adv-x="713" d="M47 -207q101 136 170 293t97 301.5t28 259.5q0 171 -45.5 339t-114.5 298.5t-135 220.5h252q105 -122 173.5 -265t98 -298.5t29.5 -294.5q0 -138 -22 -260t-62 -228.5t-95 -198t-122 -167.5h-252z"/>
<glyph unicode="*" horiz-adv-x="893" d="M293 745l-152 109l166 213l-260 76l62 174l251 -88l-6 276h185l-7 -276l252 88l62 -174l-260 -76l166 -213l-152 -109l-154 218z"/>
<glyph unicode="+" d="M469 217v393h-369v209h369v389h240v-389h370v-209h-370v-393h-240z"/>
<glyph unicode="," horiz-adv-x="547" d="M252 -262l-133 94q24 39 40 72t27 73t11 76q0 47 -18 83.5t-58 58.5l16 98h275q14 -35 21 -78t7 -78q0 -68 -19.5 -130t-48 -113.5t-61 -91.5t-59.5 -64z"/>
<glyph unicode="-" horiz-adv-x="760" d="M111 481v234h538v-234h-538z"/>
<glyph unicode="." horiz-adv-x="547" d="M274 -20q-36 0 -67 12t-53.5 33t-35 49.5t-12.5 60.5q0 46 26 84.5t65.5 54t74.5 15.5q52 0 93 -25.5t58 -61t17 -67.5q0 -49 -27.5 -87t-65 -53t-73.5 -15z"/>
<glyph unicode="/" horiz-adv-x="635" d="M100 0l416 1505h219l-416 -1505h-219z"/>
<glyph unicode="0" d="M592 -20q-475 0 -475 731q0 733 475 733q473 0 473 -733q0 -731 -473 -731zM592 172q87 0 136.5 70t66 197.5t16.5 271.5q0 220 -29.5 341.5t-81 160t-108.5 38.5t-98.5 -29.5t-69 -94.5t-40.5 -167.5t-13 -248.5q0 -144 13 -246t40.5 -167t69 -95.5t98.5 -30.5z"/>
<glyph unicode="1" d="M229 0v193h256v993q-111 -29 -282 -86v196l315 127h205v-1230h252v-193h-746z"/>
<glyph unicode="2" d="M96 0v195q92 118 350 399q106 116 156.5 179t84.5 135.5t34 129.5q0 97 -52 149t-173 52q-74 0 -148.5 -24.5t-120.5 -52t-57 -36.5v228q97 48 191.5 69t179.5 21q217 0 325.5 -98.5t108.5 -284.5q0 -109 -47.5 -207.5t-108.5 -173.5t-157 -178q-221 -232 -277 -299h631 v-203h-920z"/>
<glyph unicode="3" d="M494 -20q-110 0 -207 21t-141 41t-64 30l76 194q34 -19 93.5 -40.5t111 -30.5t106.5 -9q94 0 159 31t92.5 86t27.5 117q0 78 -33 129t-110 75.5t-181 24.5h-76v205h74q63 0 115.5 11t90 36t58.5 66t21 100q0 56 -29.5 97t-84 60t-114.5 19q-74 0 -143.5 -19t-116 -43 t-69.5 -38v217q94 44 189 64t189 20q156 0 258 -55t137 -137t35 -158q0 -97 -37 -169t-85.5 -109t-90.5 -56q84 -23 144 -73t87.5 -120t27.5 -147q0 -92 -33 -172.5t-97.5 -140t-160 -93.5t-219.5 -34z"/>
<glyph unicode="4" d="M698 0v322h-628v186q72 120 146 235t152 228t160 225.5t170 226.5h234v-909h153v-192h-153v-322h-234zM299 514h399v602q-98 -132 -204 -291t-195 -311z"/>
<glyph unicode="5" d="M481 -20q-68 0 -127.5 9.5t-107.5 23.5t-82.5 29t-52.5 26l75 188q63 -36 140.5 -52t128.5 -16q99 0 170 35.5t103 104t32 149.5q0 129 -76.5 198.5t-245.5 69.5q-69 0 -141.5 -12.5t-126.5 -25.5l53 716h719v-202h-524l-23 -295q51 10 152 10q110 0 197 -28t147.5 -84.5 t92.5 -141t32 -197.5q0 -117 -35.5 -211t-104 -159t-168 -100t-227.5 -35z"/>
<glyph unicode="6" d="M590 -20q-117 0 -205.5 41.5t-148.5 121.5t-90.5 197.5t-30.5 269.5q0 83 12 177.5t41.5 187t78.5 177.5t123.5 150t176.5 103.5t237 38.5q6 0 72 -3t102 -9v-199q-96 12 -165 12q-77 0 -142.5 -19.5t-116.5 -65t-86 -120t-51 -184.5q23 30 67 57t96 38.5t108 11.5 q97 0 173.5 -28.5t129.5 -87t81.5 -148.5t28.5 -212q0 -120 -34 -214.5t-98 -159.5t-154.5 -99t-204.5 -34zM590 176q89 0 146 47.5t76 118.5t19 139q0 141 -56 216t-175 75q-86 0 -141.5 -45t-74.5 -115.5t-19 -138.5q0 -65 15 -119t43.5 -94t70.5 -62t96 -22z"/>
<glyph unicode="7" d="M270 0q39 117 111.5 308.5t142.5 363.5q60 146 136.5 307.5t117.5 241.5h-672v202h926v-198q-72 -139 -125.5 -251.5t-107.5 -240.5q-70 -159 -154.5 -380.5t-130.5 -352.5h-244z"/>
<glyph unicode="8" d="M592 -25q-115 0 -209 28t-160.5 79.5t-102.5 124.5t-36 164q0 101 45 182t108 123.5t123 66.5q-64 37 -107.5 75.5t-70 80t-38 88t-11.5 100.5q0 118 72 206t181.5 121.5t217.5 33.5q162 0 270 -55t145.5 -133.5t37.5 -153.5q0 -116 -58.5 -203.5t-171.5 -152.5 q139 -71 202 -160.5t63 -204.5q0 -94 -36.5 -169.5t-102.5 -129t-158 -82.5t-203 -29zM594 168q81 0 140 33t82.5 83.5t23.5 96.5q0 98 -70 154.5t-190 109.5q-102 -43 -160.5 -90t-75 -91.5t-16.5 -84.5q0 -48 19 -86.5t53.5 -66.5t83.5 -43t110 -15zM623 840 q88 43 140 105t52 147q0 56 -30.5 98t-82.5 60t-108 18q-83 0 -137.5 -33t-72 -75.5t-17.5 -78.5q0 -53 32 -98t93 -80t131 -63z"/>
<glyph unicode="9" d="M373 -20q-57 0 -102 4t-83 12l29 194q55 -12 143 -12q84 0 156 23t127.5 72t91.5 126.5t49 186.5q-21 -34 -70.5 -63t-102 -40.5t-101.5 -11.5q-97 0 -174 28t-131 86t-82.5 146.5t-28.5 210.5q0 121 33.5 214.5t96.5 157.5t153.5 97t204.5 33q238 0 358.5 -162 t120.5 -469q0 -84 -12 -178t-42 -186.5t-80.5 -177.5t-127 -149.5t-181.5 -103t-245 -38.5zM567 659q58 0 101.5 20.5t73 58.5t44.5 93t15 123q0 99 -32 168.5t-83 97t-104 27.5q-61 0 -106 -21.5t-75 -60t-44.5 -93t-14.5 -120.5q0 -140 53.5 -216.5t171.5 -76.5z"/>
<glyph unicode=":" horiz-adv-x="547" d="M274 -20q-36 0 -67 12t-53.5 33t-35 49.5t-12.5 60.5q0 46 26 84.5t65.5 54t74.5 15.5q52 0 93 -25.5t58 -61t17 -67.5q0 -49 -27.5 -87t-65 -53t-73.5 -15zM274 731q-52 0 -96 27.5t-58 61.5t-14 67q0 47 26.5 85t65.5 53t74 15q52 0 93.5 -25.5t58 -60.5t16.5 -67 t-12.5 -60.5t-34.5 -49.5t-52.5 -33.5t-66.5 -12.5z"/>
<glyph unicode=";" horiz-adv-x="547" d="M252 -262l-133 94q24 39 40 72t27 73t11 76q0 47 -18 83.5t-58 58.5l16 98h275q14 -35 21 -78t7 -78q0 -68 -19.5 -130t-48 -113.5t-61 -91.5t-59.5 -64zM274 731q-52 0 -96 27.5t-58 61.5t-14 67q0 47 26.5 85t65.5 53t74 15q52 0 93.5 -25.5t58 -60.5t16.5 -67 t-12.5 -60.5t-34.5 -49.5t-52.5 -33.5t-66.5 -12.5z"/>
<glyph unicode="&lt;" d="M1079 219l-979 391v209l979 389v-227l-702 -266l702 -266v-230z"/>
<glyph unicode="=" d="M100 377v211h979v-211h-979zM100 840v211h979v-211h-979z"/>
<glyph unicode="&gt;" d="M100 217v229l703 269l-703 266v227l979 -389v-209z"/>
<glyph unicode="?" horiz-adv-x="1047" d="M449 -20q-36 0 -67 12t-53.5 33t-35 48.5t-12.5 59.5q0 47 25.5 85t65 54.5t74.5 16.5q53 0 93.5 -25t57.5 -61t17 -68q0 -49 -27.5 -87.5t-64.5 -53t-73 -14.5zM332 459v86q0 93 27 159.5t69.5 105t83.5 67.5q63 44 92 69.5t44.5 60t15.5 74.5q0 58 -28 96t-77 53 t-106 15q-102 0 -178.5 -28.5t-161.5 -79.5v225q107 47 192.5 65.5t179.5 18.5q152 0 255.5 -53.5t140.5 -135.5t37 -163q0 -101 -40.5 -175t-87.5 -110.5t-75 -56.5q-101 -75 -123.5 -127.5t-22.5 -110.5v-55h-237z"/>
<glyph unicode="@" horiz-adv-x="1864" d="M985 -436q-206 0 -368 64.5t-274 179.5t-171 274t-59 348q0 156 49 298.5t141.5 254t214 183t233.5 95t218 23.5q178 0 322.5 -54.5t246.5 -151.5t157.5 -229.5t55.5 -289.5q0 -135 -39.5 -242t-104.5 -181.5t-147.5 -114t-167.5 -39.5q-49 0 -86 10t-64 27.5t-45 41 t-30 50.5q-50 -59 -116 -94t-158 -35q-67 0 -123.5 22t-97 65.5t-63 109.5t-22.5 155q0 133 38.5 237t101.5 175t144 108t165 37q60 0 104.5 -14.5t71 -35.5t39.5 -36l12 67h183l-105 -581q-8 -54 -8 -76q0 -29 19 -47t61 -18q68 0 128.5 63.5t87.5 157.5t27 192 q0 174 -89.5 305t-224 183.5t-269.5 52.5q-144 0 -265.5 -49.5t-209.5 -139.5t-137.5 -216t-49.5 -279q0 -161 50 -287t138.5 -213t208.5 -132.5t261 -45.5q75 0 146 10t131 24.5t105 30t68 27.5l64 -162q-119 -52 -265.5 -80t-232.5 -28zM848 150q71 0 119 48t69 109 t29 107l43 245q-27 26 -44 38.5t-46 21t-64 8.5q-79 0 -142.5 -63.5t-89.5 -152t-26 -173.5q0 -42 7.5 -77t25.5 -59.5t47 -38t72 -13.5z"/>
<glyph unicode="A" horiz-adv-x="1284" d="M14 0q53 195 110 381.5t129.5 391.5t142 369.5t128.5 280.5h236q48 -96 97 -209t96 -235t91.5 -250.5t85 -254.5t76 -246.5t64.5 -227.5h-256q-20 75 -42 159.5t-48 178.5h-576q-12 -44 -90 -338h-244zM410 535h452q-117 358 -227 643q-152 -412 -225 -643z"/>
<glyph unicode="B" horiz-adv-x="1303" d="M182 0v1423h473q166 0 267 -60t131 -140t30 -144q0 -86 -27.5 -150t-67 -97t-75.5 -50q95 -31 158.5 -85.5t86 -125t22.5 -141.5q0 -91 -31.5 -169.5t-95 -136.5t-159.5 -91t-224 -33h-488zM426 199h197q154 0 224.5 59.5t70.5 169.5q0 114 -73.5 169.5t-236.5 55.5h-182 v-454zM426 850h156q97 0 155 32t75 77t17 85q0 66 -28.5 107t-84.5 57.5t-124 16.5h-166v-375z"/>
<glyph unicode="C" horiz-adv-x="1202" d="M768 -20q-159 0 -279.5 49.5t-202 143t-122.5 229t-41 307.5t43 308.5t125.5 231.5t203.5 145t277 50q106 0 202.5 -19.5t137.5 -40.5v-219q-61 25 -97 37t-97 22.5t-115 10.5q-97 0 -168 -28t-121 -79q-69 -71 -98 -178.5t-29 -244.5q0 -133 27.5 -229.5t80 -158.5 t128 -92t170.5 -30q96 0 168.5 15t132.5 40l73 -189q-77 -35 -179 -58t-220 -23z"/>
<glyph unicode="D" horiz-adv-x="1405" d="M182 0v1423h439q156 0 278.5 -44.5t207.5 -133.5t130 -222.5t45 -311.5q0 -177 -45 -310.5t-130 -222.5t-207.5 -133.5t-276.5 -44.5h-441zM432 203h191q90 0 163 30t124 92.5t78.5 158t27.5 227.5q0 191 -58.5 310.5t-151 159.5t-181.5 40h-193v-1018z"/>
<glyph unicode="E" horiz-adv-x="1155" d="M182 0v1423h854v-202h-604v-363h516v-203h-516v-452h639v-203h-889z"/>
<glyph unicode="F" horiz-adv-x="1059" d="M182 0v1423h834v-202h-584v-363h475v-201h-473v-657h-252z"/>
<glyph unicode="G" horiz-adv-x="1346" d="M813 -18q-343 0 -516.5 187.5t-173.5 543.5q0 167 44.5 303t130 232t210 148t285.5 52q108 0 198 -17.5t164 -41.5v-220q-24 9 -59 21.5t-78.5 23t-95 18t-107.5 7.5q-206 0 -317 -130t-111 -398t110 -393t328 -125q78 0 140 6v393h-234v209h475v-801q-213 -18 -393 -18z "/>
<glyph unicode="H" horiz-adv-x="1417" d="M182 0v1423h248v-538h553v538h252v-1423h-250v682h-553v-682h-250z"/>
<glyph unicode="I" horiz-adv-x="614" d="M182 0v1423h250v-1423h-250z"/>
<glyph unicode="J" horiz-adv-x="1022" d="M385 -25q-72 0 -130.5 12t-102.5 28.5t-74.5 33.5t-46.5 27l88 186q8 -5 30 -18t54 -26.5t72.5 -23.5t86.5 -10q54 0 94.5 15t71.5 43q25 23 40 53t24 72q6 24 8 65t2 86v905h250v-940q0 -102 -18 -179.5t-49 -128.5t-60 -81q-62 -62 -148.5 -90.5t-191.5 -28.5z"/>
<glyph unicode="K" horiz-adv-x="1305" d="M182 0v1423h250v-573l504 573h303l-588 -649q122 -104 247.5 -246t228.5 -285.5t165 -242.5h-305q-51 79 -113.5 163.5t-133.5 169t-149 168t-159 161.5v-662h-250z"/>
<glyph unicode="L" horiz-adv-x="1051" d="M182 0v1423h250v-1220h586v-203h-836z"/>
<glyph unicode="M" horiz-adv-x="1692" d="M164 0q0 189 9 485t25 543.5t33 394.5h263l356 -950l356 950h254q9 -88 18 -200.5t16.5 -239t13.5 -260.5t10.5 -262.5t7 -247t2.5 -213.5h-232q0 212 -9 508t-19 524l-338 -889h-168l-336 891q-8 -151 -18.5 -479t-10.5 -555h-233z"/>
<glyph unicode="N" horiz-adv-x="1417" d="M182 0v1423h230q37 -51 83.5 -117.5t97 -144t104 -163t106 -172.5t101 -173.5t89.5 -165.5v936h242v-1423h-219q-140 272 -286.5 536.5t-305.5 516.5v-1053h-242z"/>
<glyph unicode="O" horiz-adv-x="1458" d="M729 -29q-140 0 -252 50t-191 145t-121 232.5t-42 312.5t42 312.5t120.5 233t190.5 145.5t251 50q140 0 252.5 -50t191.5 -145.5t121.5 -233t42.5 -312.5t-42.5 -312.5t-121.5 -232.5t-191 -145t-251 -50zM727 172q80 0 143.5 34t108 101.5t68.5 168.5t24 235 q0 201 -51.5 327t-131.5 169.5t-159 43.5q-80 0 -143.5 -33.5t-107.5 -101t-67.5 -168.5t-23.5 -237q0 -268 90 -403.5t250 -135.5z"/>
<glyph unicode="P" horiz-adv-x="1217" d="M182 0v1423h451q173 0 290.5 -59t160 -155.5t42.5 -200.5q0 -80 -27 -160.5t-88 -145.5t-159.5 -106t-241.5 -41h-184v-555h-244zM426 754h162q108 0 174 36.5t86 92.5t20 112q0 121 -66 175.5t-208 54.5h-168v-471z"/>
<glyph unicode="Q" horiz-adv-x="1468" d="M1225 -213q-59 46 -122.5 107.5t-123.5 128.5q-56 -25 -117.5 -38.5t-132.5 -13.5q-139 0 -251 50t-191 145t-121.5 232.5t-42.5 312.5t42 312.5t121 233t191 145.5t252 50q139 0 251 -50t191 -145.5t121.5 -233t42.5 -312.5q0 -189 -48.5 -333t-141.5 -241 q49 -54 103 -103t110 -97zM729 172q32 0 61.5 5t57.5 18q-45 55 -81.5 106t-70.5 105l144 90q29 -51 139 -185q45 66 68.5 166.5t23.5 233.5q0 201 -51.5 327t-131.5 169.5t-159 43.5t-142.5 -33.5t-107.5 -101t-68 -168.5t-24 -237q0 -134 23.5 -235t67.5 -168.5 t107.5 -101.5t143.5 -34z"/>
<glyph unicode="R" horiz-adv-x="1339" d="M182 0v1423h430q121 0 214 -26.5t156.5 -77.5t96.5 -125.5t33 -171.5q0 -86 -30 -164t-81.5 -128.5t-111.5 -82.5q111 -127 209 -289.5t188 -357.5h-282q-34 66 -77.5 144t-91.5 156t-99 149.5t-99 123.5h-211v-573h-244zM426 772h137q113 0 180 38t87 92.5t20 105.5 q0 86 -34.5 135t-98 65.5t-137.5 16.5h-154v-453z"/>
<glyph unicode="S" horiz-adv-x="1135" d="M522 -25q-124 0 -235.5 21t-163.5 40t-68 27l64 203q63 -34 174.5 -59t195.5 -25q123 0 192.5 33t87 83t17.5 93q0 126 -325 254q-36 14 -77 30.5t-81.5 38.5t-78 51.5t-66 69t-45.5 91t-17 118.5q0 94 36 168.5t102 127t159.5 80.5t208.5 28q110 0 204 -16.5t161 -36.5 v-215q-59 19 -105 31t-121.5 23t-132.5 11q-134 0 -200 -49t-66 -139q0 -66 50.5 -109.5t126.5 -71.5t140 -51q72 -25 141.5 -56t125 -78.5t89.5 -118t34 -175.5q0 -101 -35 -179.5t-102.5 -132.5t-165.5 -82t-224 -28z"/>
<glyph unicode="T" horiz-adv-x="1112" d="M432 0v1214h-401v209h1050v-209h-399v-1214h-250z"/>
<glyph unicode="U" horiz-adv-x="1393" d="M696 -25q-114 0 -210 31.5t-166.5 95.5t-110 162t-39.5 230v929h250v-923q0 -84 21 -143t57.5 -96t87 -54t110.5 -17q96 0 160.5 39.5t90.5 112.5t26 158v923h250v-929q0 -132 -39.5 -229.5t-109.5 -162t-167 -96t-211 -31.5z"/>
<glyph unicode="V" horiz-adv-x="1286" d="M545 0q-46 96 -93.5 206t-95 229.5t-94.5 245t-90.5 252t-83.5 250.5t-74 240h267q56 -198 143.5 -469.5t222.5 -611.5q132 338 219 609t146 472h260q-65 -229 -162 -506t-189 -504.5t-178 -412.5h-198z"/>
<glyph unicode="W" horiz-adv-x="1831" d="M430 0q-36 96 -73.5 207t-75 231t-74.5 246t-71 252t-65 249t-57 238h265q38 -182 100.5 -432.5t159.5 -578.5l266 977h235l267 -981q100 320 161 568t95 447h254q-34 -172 -81 -361t-101 -376.5t-113.5 -363.5t-118.5 -322h-219l-266 1038l-269 -1038h-219z"/>
<glyph unicode="X" horiz-adv-x="1286" d="M25 0l477 715q-113 177 -221.5 355.5t-196.5 352.5h268q55 -114 127 -242t162 -270q218 358 295 512h258q-82 -170 -189.5 -349t-228.5 -353l486 -721h-293l-330 520l-338 -520h-276z"/>
<glyph unicode="Y" horiz-adv-x="1253" d="M502 0v635q-57 75 -120.5 167t-127.5 194.5t-125.5 211t-114.5 215.5h262q57 -110 141.5 -255t213.5 -324q106 152 194.5 300.5t155.5 278.5h258q-99 -201 -232.5 -413.5t-254.5 -372.5v-637h-250z"/>
<glyph unicode="Z" horiz-adv-x="1139" d="M57 0v199q56 93 173 272.5t223 333.5q89 132 301 416h-670v202h965v-198q-61 -75 -157.5 -205t-219.5 -305q-93 -134 -179 -266t-157 -246h745v-203h-1024z"/>
<glyph unicode="[" horiz-adv-x="700" d="M172 -207v1712h471v-188h-231v-1335h231v-189h-471z"/>
<glyph unicode="\" horiz-adv-x="635" d="M416 0l-416 1505h219l416 -1505h-219z"/>
<glyph unicode="]" horiz-adv-x="700" d="M57 -207v189h232v1335h-232v188h471v-1712h-471z"/>
<glyph unicode="^" horiz-adv-x="1171" d="M68 598l409 825h215l412 -825h-258l-264 543l-263 -543h-251z"/>
<glyph unicode="_" horiz-adv-x="1024" d="M0 -434v102h1024v-102h-1024z"/>
<glyph unicode="`" horiz-adv-x="856" d="M422 1141l-229 282h286l180 -282h-237z"/>
<glyph unicode="a" horiz-adv-x="1087" d="M412 -20q-65 0 -123.5 17t-102.5 54.5t-70 97t-26 144.5q0 127 60 206t169 119q56 20 121.5 30t143.5 14q8 0 23 0.5t31 0.5q17 0 32.5 0.5t23.5 0.5v47q0 69 -27.5 107.5t-80.5 52.5t-117 14q-75 0 -147.5 -16t-149.5 -44v189q98 25 172.5 36t173.5 11q106 0 184 -20 t129 -62.5t76 -108.5t25 -159v-711h-227l-7 82q-29 -28 -76.5 -53t-103 -37t-106.5 -12zM479 160q34 0 66 6.5t60 18t51 26t38 29.5v256h-59q-163 0 -235 -45t-72 -142q0 -29 7.5 -55.5t25 -47.5t46.5 -33.5t72 -12.5z"/>
<glyph unicode="b" horiz-adv-x="1214" d="M662 -20q-50 0 -91.5 9t-74.5 23t-57.5 32.5t-41.5 37.5l-6 -82h-229v1505h241v-571q23 36 66.5 65t102 45.5t116.5 16.5q149 0 245 -78.5t131.5 -200t35.5 -247.5q0 -134 -30 -237.5t-86.5 -174t-137.5 -107t-184 -36.5zM606 172q92 0 146 55.5t72 139t18 163.5 q0 75 -12 136t-37.5 104t-66 66.5t-97.5 23.5q-51 0 -93 -19t-71.5 -59.5t-45.5 -103t-16 -150.5v-243q31 -48 83 -80.5t120 -32.5z"/>
<glyph unicode="c" horiz-adv-x="969" d="M614 -16q-120 0 -212.5 37t-156.5 106t-97 168t-33 223t34 223.5t98.5 169.5t159 108t216.5 38q80 0 156 -13.5t106 -23.5v-193q-48 13 -108 23t-103 10q-148 0 -225.5 -80t-77.5 -260q0 -171 70.5 -254.5t207.5 -83.5q71 0 126 11t95 26l56 -182q-60 -22 -136.5 -37.5 t-175.5 -15.5z"/>
<glyph unicode="d" horiz-adv-x="1210" d="M530 -20q-89 0 -165 30.5t-131.5 95t-87 164.5t-31.5 240q0 135 34 238t92.5 172.5t137.5 105t168 35.5t155.5 -26.5t104.5 -63.5v534h242v-1505h-230l-6 109q-51 -65 -118.5 -97t-164.5 -32zM586 172q103 0 162 75t59 224v307q-55 49 -102 65.5t-93 16.5q-51 0 -95 -22 t-76 -65.5t-50 -108.5t-18 -152q0 -75 10.5 -137.5t35 -107.5t65.5 -70t102 -25z"/>
<glyph unicode="e" horiz-adv-x="1122" d="M623 -25q-121 0 -215.5 38.5t-159.5 110t-99 171.5t-34 223q0 120 30.5 220.5t90 173t148 113t204.5 40.5q213 0 321.5 -126.5t108.5 -367.5q0 -75 -4 -125h-645q13 -140 84 -211t213 -71q64 0 129.5 9.5t115.5 25.5l47 -181q-75 -21 -155 -32t-180 -11zM362 612h410v39 q0 119 -47 180.5t-143 61.5q-50 0 -89.5 -19.5t-67.5 -56t-44 -88.5t-19 -117z"/>
<glyph unicode="f" horiz-adv-x="666" d="M162 0v852h-125v188h123v156q0 122 50 199t128.5 104t155.5 27q102 0 221 -23v-180q-88 18 -158 18q-81 0 -119.5 -40.5t-38.5 -135.5v-125h234v-188h-230v-852h-241z"/>
<glyph unicode="g" horiz-adv-x="1210" d="M569 -434q-130 0 -214.5 14t-125.5 27l37 174q139 -33 250 -33q114 0 180.5 32.5t88.5 94t22 127.5v125q-48 -62 -115.5 -94.5t-161.5 -32.5q-89 0 -165 29t-131.5 91.5t-87 161.5t-31.5 240q0 190 70.5 319t167.5 174.5t184 45.5q75 0 132.5 -17t91 -42.5t52.5 -45.5 l6 84h230v-1020q0 -121 -29.5 -201t-83.5 -134q-63 -62 -155.5 -90.5t-211.5 -28.5zM590 193q72 0 124.5 43t72.5 109.5t20 135.5v297q-55 49 -102 65.5t-93 16.5q-51 0 -95 -21.5t-76 -64.5t-50 -106t-18 -146q0 -69 10.5 -129t35 -104.5t66.5 -70t105 -25.5z"/>
<glyph unicode="h" horiz-adv-x="1208" d="M162 0v1505h241v-587q42 62 119.5 102.5t188.5 40.5q122 0 202.5 -51t110 -131t29.5 -160v-719h-242v655q0 107 -45.5 155t-130.5 48q-48 0 -90 -20.5t-73.5 -55.5t-50 -81.5t-18.5 -98.5v-602h-241z"/>
<glyph unicode="i" horiz-adv-x="606" d="M186 0v868q-71 12 -133 17v155h375v-1040h-242zM283 1227q-47 0 -85.5 24t-52.5 55t-14 60q0 42 24 77t59 49.5t67 14.5q44 0 82.5 -23t53.5 -55.5t15 -62.5q0 -42 -26 -77t-59.5 -48.5t-63.5 -13.5z"/>
<glyph unicode="j" horiz-adv-x="623" d="M92 -434q-74 0 -127.5 10t-70.5 16l30 160q11 -3 44 -8.5t79 -5.5q72 0 113 36.5t41 125.5v968q-79 13 -133 17v155h374v-1085q0 -93 -12.5 -149t-35.5 -95t-46 -61q-45 -44 -108.5 -64t-147.5 -20zM297 1227q-31 0 -58 10.5t-47.5 29.5t-32.5 44.5t-12 54.5q0 42 24 77 t59.5 49.5t66.5 14.5q45 0 83 -23t53.5 -56t15.5 -62q0 -42 -26 -77t-60.5 -48.5t-65.5 -13.5z"/>
<glyph unicode="k" horiz-adv-x="1092" d="M162 0v1505h241v-862l357 397h291l-420 -450q113 -109 235.5 -273t223.5 -317h-299q-78 116 -181.5 250.5t-206.5 251.5v-502h-241z"/>
<glyph unicode="l" horiz-adv-x="578" d="M174 0v1335q-12 1 -28.5 3.5t-35 4.5t-36.5 4t-33 3v155h375v-1505h-242z"/>
<glyph unicode="m" horiz-adv-x="1767" d="M162 0v1040h229l6 -129q44 66 116 108t175 42q106 0 178.5 -41.5t106.5 -122.5q52 74 129 119t186 45q118 0 194 -49.5t103 -128.5t27 -158v-725h-242v666q0 100 -36 146t-117 46q-45 0 -83.5 -20t-66.5 -54.5t-43.5 -81t-15.5 -98.5v-604h-242v666q0 100 -36 146 t-118 46q-67 0 -117.5 -41.5t-71 -101t-20.5 -111.5v-604h-241z"/>
<glyph unicode="n" horiz-adv-x="1208" d="M162 0v1040h229l6 -133q34 52 87.5 88t113.5 51t113 15q122 0 202.5 -51t110 -131t29.5 -160v-719h-242v655q0 107 -45.5 155t-130.5 48q-48 0 -90 -20.5t-73.5 -55.5t-50 -81.5t-18.5 -98.5v-602h-241z"/>
<glyph unicode="o" horiz-adv-x="1200" d="M600 -25q-116 0 -206 42t-152 115.5t-94.5 173t-32.5 214.5q0 119 31 219t92 172.5t151.5 113t210.5 40.5t211 -40t151.5 -112.5t91.5 -172.5t31 -220q0 -114 -32 -213.5t-94 -173t-152 -116t-207 -42.5zM600 162q87 0 141.5 56t71 139.5t16.5 162.5q0 122 -29.5 206 t-84 118.5t-115.5 34.5q-88 0 -142 -56t-70.5 -140.5t-16.5 -162.5t12.5 -144t40.5 -113.5t71 -74t105 -26.5z"/>
<glyph unicode="p" horiz-adv-x="1214" d="M162 -414v1454h229l6 -137q24 48 67 84t104.5 55t125.5 19q142 0 238.5 -77t132 -200t35.5 -249q0 -130 -29.5 -233.5t-87 -175.5t-141.5 -110.5t-193 -38.5q-86 0 -147 23t-99 55v-469h-241zM598 172q79 0 135.5 39t82.5 124.5t26 194.5q0 75 -12 136t-37.5 104 t-66 66.5t-97.5 23.5q-76 0 -131 -53.5t-75 -135.5t-20 -163v-252q39 -38 87.5 -61t107.5 -23z"/>
<glyph unicode="q" horiz-adv-x="1210" d="M807 -414v520q-48 -63 -115.5 -94.5t-161.5 -31.5q-89 0 -165 30.5t-131.5 95t-87 164.5t-31.5 240q0 135 34 238t92.5 172.5t137.5 105t168 35.5q57 0 101.5 -11.5t77 -27.5t54 -34t33.5 -30l6 82h230v-1454h-242zM586 172q103 0 162 75t59 224v307q-55 49 -102 65.5 t-93 16.5q-51 0 -95 -22t-76 -65.5t-50 -108.5t-18 -152q0 -75 10.5 -137.5t35 -107.5t65.5 -70t102 -25z"/>
<glyph unicode="r" horiz-adv-x="791" d="M162 0v1040h229l6 -192q47 94 119.5 148.5t165.5 54.5q45 0 86 -11v-223q-48 8 -90 8q-94 0 -162.5 -53t-90.5 -117.5t-22 -111.5v-543h-241z"/>
<glyph unicode="s" horiz-adv-x="1004" d="M469 -20q-72 0 -133.5 7.5t-110.5 19t-85 24t-58 22.5l63 183q87 -37 157.5 -51.5t152.5 -14.5q115 0 163 30t48 87q0 35 -21.5 58t-58.5 40t-85 31.5t-100 32.5q-62 21 -114 45t-90 58t-59 81t-21 112q0 78 29.5 137.5t82.5 99t126.5 59.5t160.5 20q103 0 182.5 -11.5 t145.5 -31.5v-197q-75 25 -151 39t-163 14q-73 0 -113 -16.5t-51.5 -42t-11.5 -49.5q0 -70 250 -148q65 -20 121 -44t97 -60t64 -86.5t23 -122.5q0 -84 -32 -145t-90.5 -101t-139.5 -59.5t-178 -19.5z"/>
<glyph unicode="t" horiz-adv-x="762" d="M496 -20q-81 0 -138.5 22t-94 63t-53.5 98.5t-17 129.5v559h-158v188h158v226q51 18 114.5 46t126.5 60v-332h266v-188h-266v-530q0 -82 30.5 -117t98.5 -35q40 0 81 6t63 14l43 -176q-59 -15 -122.5 -24.5t-131.5 -9.5z"/>
<glyph unicode="u" horiz-adv-x="1208" d="M496 -20q-164 0 -252 85t-88 252v723h241v-667q0 -103 44 -147t130 -44q73 0 131 44t80.5 102t22.5 110v602h242v-1040h-230l-6 133q-43 -68 -125 -110.5t-190 -42.5z"/>
<glyph unicode="v" horiz-adv-x="1040" d="M406 0q-50 106 -103 236t-104.5 267.5t-98.5 275.5t-86 261h256q45 -173 108 -371.5t144 -404.5q82 204 145 400t109 376h250q-94 -315 -202 -592.5t-187 -447.5h-231z"/>
<glyph unicode="w" horiz-adv-x="1481" d="M319 0q-94 238 -173 504.5t-132 535.5h238q28 -175 76 -357.5t110 -389.5l211 723h197l190 -717q66 202 113 382t78 359h239q-68 -336 -155.5 -598t-163.5 -442h-227l-181 676l-192 -676h-228z"/>
<glyph unicode="x" horiz-adv-x="1051" d="M25 0l370 514q-125 180 -194 291t-133 235h243q38 -69 92.5 -157.5t122.5 -188.5q68 99 123 187t92 159h242q-68 -131 -143 -247t-187 -275l373 -518h-274l-228 332l-229 -332h-270z"/>
<glyph unicode="y" horiz-adv-x="1075" d="M172 -434q-77 0 -129.5 14t-75.5 27l47 176q17 -6 50.5 -14.5t76.5 -8.5q66 0 113.5 31.5t80 82.5t54.5 99l49 109q-93 163 -182.5 358.5t-146 338.5t-97.5 261h258q35 -115 88.5 -254.5t107.5 -258.5t99 -210q78 193 139 377.5t103 345.5h254q-112 -355 -218 -625 t-184 -429q-47 -96 -92 -173.5t-100.5 -132.5t-126.5 -84.5t-168 -29.5z"/>
<glyph unicode="z" horiz-adv-x="989" d="M68 0v184q53 81 288 379q99 122 248 289h-516v188h811v-184q-153 -169 -285 -324q-162 -192 -274 -344h580v-188h-852z"/>
<glyph unicode="{" horiz-adv-x="709" d="M489 -207q-71 0 -123 21.5t-85.5 58.5t-49.5 87t-16 108v262q0 98 -23.5 147.5t-61.5 61.5t-73 12v197q58 0 94.5 23t50 75.5t13.5 120.5v264q0 89 36.5 154t100.5 92.5t137 27.5h160v-192h-94q-39 0 -60.5 -17t-26.5 -43t-5 -51v-246q0 -95 -21 -159.5t-55 -97 t-68 -50.5q55 -31 87 -75.5t44.5 -105t12.5 -124.5v-246q0 -41 10 -66t32 -34.5t50 -9.5h94v-195h-160z"/>
<glyph unicode="|" horiz-adv-x="629" d="M225 -207v1712h178v-1712h-178z"/>
<glyph unicode="}" horiz-adv-x="709" d="M57 -207v193h95q40 0 61 18t26 43.5t5 50.5v244q0 95 20.5 158t54.5 97t68 52q-55 29 -87 74.5t-44 105.5t-12 125v246q0 65 -26.5 89t-63.5 24h-97v192h160q102 0 167.5 -44.5t86.5 -108.5t21 -121v-262q0 -69 11 -112t31.5 -67t49.5 -33t65 -9v-197q-36 0 -64.5 -9 t-49 -33.5t-31 -67.5t-10.5 -111v-262q0 -90 -36.5 -154t-102 -92.5t-136.5 -28.5h-162z"/>
<glyph unicode="~" horiz-adv-x="1423" d="M283 291l-185 94q50 123 112.5 202t130.5 108.5t136 29.5q62 0 125.5 -25t122.5 -57q100 -58 143.5 -74t77.5 -16q65 0 109 52.5t84 135.5l184 -94q-32 -79 -70.5 -142t-84.5 -107t-101 -67.5t-121 -23.5q-61 0 -126.5 23t-139.5 63q-155 86 -209 86q-36 0 -68.5 -21.5 t-62.5 -66.5t-57 -100z"/>
<glyph horiz-adv-x="1139" d="M57 0v199q56 93 173 272.5t223 333.5q89 132 301 416h-670v202h965v-198q-61 -75 -157.5 -205t-219.5 -305q-93 -134 -179 -266t-157 -246h745v-203h-1024zM484 1528l-252 282h237l123 -145l123 145h229l-252 -282h-208z"/>
<glyph horiz-adv-x="989" d="M68 0v184q53 81 288 379q99 122 248 289h-516v188h811v-184q-153 -169 -285 -324q-162 -192 -274 -344h580v-188h-852zM398 1141l-252 282h237l123 -145l123 145h229l-252 -282h-208z"/>
<glyph unicode="¡" horiz-adv-x="573" d="M160 0l8 944h240l8 -944h-256zM285 1137q-54 0 -96 27.5t-56 61.5t-14 66q0 45 25 82.5t65.5 54.5t77.5 17q51 0 91 -25t57.5 -62t17.5 -69q0 -49 -28 -86t-66.5 -52t-73.5 -15z"/>
<glyph unicode="¢" horiz-adv-x="946" d="M555 0v182q-107 7 -190 46.5t-140 107t-86.5 162t-29.5 211.5q0 114 29.5 208t86 162t139.5 109.5t191 50.5v184h109v-184q81 -5 135.5 -17.5t66.5 -17.5v-190q-30 10 -85.5 20.5t-116.5 14.5v-672q66 3 115.5 15t74.5 22l53 -181q-48 -18 -107 -31t-136 -18v-184h-109z M553 387l2 649q-96 -24 -146.5 -103t-50.5 -222q0 -141 49.5 -222.5t145.5 -101.5z"/>
<glyph unicode="£" horiz-adv-x="1116" d="M57 0v197q45 6 87 42t65 89t29 114l20 199h-164l39 190h146l18 166q12 111 53 195t105.5 140t149.5 84t186 28q89 0 177.5 -20t129.5 -40v-213q-91 39 -152.5 53.5t-128.5 14.5q-71 0 -120 -20.5t-81 -56.5t-49 -85t-24 -106l-17 -137h377l-39 -191h-356l-19 -168 q-8 -70 -29.5 -128.5t-45.5 -93t-41 -48.5h698v-205h-1014z"/>
<glyph unicode="¤" horiz-adv-x="1188" d="M221 197l-143 141l141 141q-32 51 -49.5 109t-17.5 123t17.5 122.5t49.5 110.5l-141 139l143 142l141 -140q50 32 108.5 49t121.5 17q59 0 115 -16t118 -50l140 140l143 -142l-143 -141q67 -101 67 -231q0 -126 -65 -232l141 -141l-143 -141l-142 141q-49 -32 -107.5 -50 t-123.5 -18q-127 0 -230 68zM592 451q74 0 137.5 44t88 103t24.5 113q0 79 -42 142.5t-100 90.5t-108 27q-75 0 -137.5 -44t-87.5 -103t-25 -113t20 -101.5t54 -82.5t79.5 -55.5t96.5 -20.5z"/>
<glyph unicode="¥" horiz-adv-x="1223" d="M492 0v291h-328l26 127h302v170h-328l26 127h240q-57 81 -114.5 169t-112 178.5t-105 181.5t-92.5 179h248q25 -48 63 -116.5t85 -149t101 -167.5t111 -171q96 147 200 321.5t157 282.5h246q-90 -187 -204 -370.5t-220 -335.5h264l-27 -127h-299v-170h326l-27 -127h-299 v-293h-239z"/>
<glyph unicode="¦" horiz-adv-x="629" d="M225 -207v572h178v-572h-178zM225 934v571h178v-571h-178z"/>
<glyph unicode="§" horiz-adv-x="1024" d="M485 -20q-95 0 -186 17.5t-138 36t-65 27.5l54 177q34 -16 98.5 -35t113 -26t95.5 -7q95 0 147 18t65 47.5t13 57.5q0 45 -45 73.5t-107.5 46.5t-109.5 31q-59 17 -116.5 39t-102.5 56.5t-73 84t-28 121.5q0 47 13.5 84t36 66t52.5 50t62 36q-52 26 -90 65.5t-53 84.5 t-15 90q0 110 66 182.5t162.5 97.5t191.5 25q98 0 182.5 -14.5t147.5 -32.5v-195q-41 14 -138.5 34.5t-174.5 20.5q-107 0 -153 -29t-46 -83q0 -29 15 -48t44.5 -32.5t73 -25.5t101.5 -27q62 -17 124.5 -38.5t112.5 -56.5t81.5 -87t31.5 -130q0 -68 -29 -120.5t-64 -78 t-61 -40.5q71 -41 109.5 -100.5t38.5 -143.5q0 -118 -69.5 -193t-171.5 -100.5t-196 -25.5zM604 612q56 30 76 66t20 78q0 60 -58.5 92.5t-182.5 62.5q-42 -8 -73.5 -31t-44.5 -51.5t-13 -58.5q0 -51 49 -83t111.5 -47t115.5 -28z"/>
<glyph unicode="¨" horiz-adv-x="856" d="M225 1157q-30 0 -55 9.5t-43.5 26t-28.5 39.5t-10 50q0 39 21 71t52.5 45t61.5 13q62 0 100.5 -36.5t38.5 -92.5q0 -39 -23 -71.5t-53 -43t-61 -10.5zM631 1157q-30 0 -55 9.5t-43.5 26t-28.5 39.5t-10 50q0 39 21 71t53 45t61 13q62 0 100.5 -36.5t38.5 -92.5 q0 -39 -23 -71.5t-53.5 -43t-60.5 -10.5z"/>
<glyph unicode="©" horiz-adv-x="1747" d="M874 -29q-104 0 -200 26.5t-180 74.5t-153 116t-118.5 150t-76.5 176.5t-27 196.5q0 159 65.5 301.5t183 247t250 148.5t254.5 44q160 0 306 -64t252.5 -179t152 -245t45.5 -253q0 -160 -66 -302.5t-182.5 -246.5t-251 -147.5t-254.5 -43.5zM872 123q126 0 239.5 50.5 t195 140.5t117.5 194.5t36 202.5q0 122 -46.5 229t-126 187t-186 126.5t-227.5 46.5q-120 0 -227 -46.5t-187 -126.5t-126.5 -187t-46.5 -229q0 -81 21 -156t59.5 -140.5t92 -119t118.5 -92t139.5 -59.5t154.5 -21zM883 283q-92 0 -163 31t-120 86.5t-74.5 132t-25.5 167.5 q0 101 26 182.5t76.5 139t125.5 88.5t173 31q69 0 128.5 -14t96.5 -27v-174q-116 51 -215 51q-65 0 -108.5 -21.5t-69.5 -57.5t-37.5 -84t-11.5 -101q0 -138 59.5 -200t178.5 -62q45 0 90.5 8t93.5 26l51 -149q-70 -28 -125.5 -40.5t-148.5 -12.5z"/>
<glyph unicode="ª" horiz-adv-x="731" d="M291 831q-42 0 -82.5 11t-71.5 36.5t-50 67t-19 101.5q0 99 56 149.5t132 66t170 15.5h49v16q0 40 -14 63t-47.5 32.5t-75.5 9.5q-60 0 -116.5 -13t-98.5 -30v135q19 4 44.5 10.5t55.5 11.5t62.5 9t66.5 4q143 0 212 -53t69 -168v-459h-152l-4 55q-23 -26 -70 -48 t-116 -22zM328 956q54 0 92 19t55 41v145h-37q-112 0 -163.5 -24t-51.5 -90q0 -18 5 -34.5t17.5 -29t32.5 -20t50 -7.5z"/>
<glyph unicode="«" horiz-adv-x="1104" d="M338 111l-270 411l268 412h246l-279 -412l277 -411h-242zM791 111l-269 411l269 412h243l-276 -412l276 -411h-243z"/>
<glyph unicode="¬" d="M840 406v401h-740v211h979v-612h-239z"/>
<glyph unicode="®" horiz-adv-x="1747" d="M874 -29q-104 0 -200 26.5t-180 74.5t-153 116t-118.5 150t-76.5 176.5t-27 196.5q0 159 65.5 301.5t183 247t250 148.5t254.5 44q160 0 306 -64t252.5 -179t152 -245t45.5 -253q0 -160 -66 -302.5t-182.5 -246.5t-251 -147.5t-254.5 -43.5zM872 123q126 0 239.5 50.5 t195 140.5t117.5 194.5t36 202.5q0 122 -46.5 229t-126 187t-186 126.5t-227.5 46.5q-120 0 -227 -46.5t-187 -126.5t-126.5 -187t-46.5 -229q0 -81 21 -156t59.5 -140.5t92 -119t118.5 -92t139.5 -59.5t154.5 -21zM553 297v831h301q142 0 217.5 -60t75.5 -179 q0 -72 -30 -127t-95 -86q54 -63 119 -178.5t104 -200.5h-192q-45 98 -104.5 195.5t-90.5 132.5h-139v-328h-166zM717 756h102q76 0 112 32t36 89q0 61 -34.5 88.5t-109.5 27.5h-106v-237z"/>
<glyph unicode="¯" horiz-adv-x="856" d="M84 1194v174h688v-172z"/>
<glyph unicode="°" horiz-adv-x="700" d="M350 899q-63 0 -118 23.5t-96.5 65t-65 96.5t-23.5 118q0 95 50.5 168.5t120 104t132.5 30.5q95 0 168.5 -51t104 -120.5t30.5 -131.5q0 -63 -23.5 -118t-65 -96.5t-96.5 -65t-118 -23.5zM350 1055q44 0 79.5 24.5t51 59.5t15.5 65q0 46 -25 81.5t-58 51t-63 15.5 q-45 0 -81.5 -26t-50 -59t-13.5 -63q0 -45 25 -83t57 -52t63 -14z"/>
<glyph unicode="±" d="M100 25v211h979v-211h-979zM471 330v338h-371v209h371v331h240v-331h368v-209h-368v-338h-240z"/>
<glyph unicode="²" horiz-adv-x="954" d="M125 616v156q72 65 258 223q86 77 114 105t51 69t23 76q0 51 -34.5 79t-114.5 28q-88 0 -240 -76v178q77 36 148.5 51t132.5 15q164 0 246 -65.5t82 -192.5q0 -79 -45 -150.5t-98 -118.5t-97 -84q-81 -69 -148 -127h418v-166h-696z"/>
<glyph unicode="³" horiz-adv-x="950" d="M432 604q-64 0 -115.5 7.5t-90.5 17t-65.5 19.5t-41.5 16l55 151q45 -22 109 -35.5t120 -13.5q88 0 140.5 28.5t52.5 94.5q0 41 -25 69t-77.5 38t-116.5 10h-60v153h66q93 0 137.5 29t44.5 82q0 41 -34.5 67.5t-116.5 26.5q-79 0 -140 -20.5t-106 -45.5v166q39 16 72 27 t94.5 20t122.5 9q121 0 198 -37t102 -86.5t25 -96.5q0 -44 -13.5 -77t-34.5 -57t-47 -40.5t-50 -27.5q54 -16 95.5 -46t62 -76.5t20.5 -96.5q0 -58 -24.5 -108t-73 -87t-120 -58.5t-165.5 -21.5z"/>
<glyph unicode="´" horiz-adv-x="856" d="M195 1141l180 282h287l-228 -282h-239z"/>
<glyph unicode="µ" horiz-adv-x="1208" d="M156 -414v1454h241v-680q0 -83 50 -130.5t137 -47.5q70 0 123 42.5t75.5 102.5t22.5 111v602h242v-1040h-230l-6 133q-38 -90 -100 -121.5t-127 -31.5q-69 0 -115 25t-72 63v-482h-241z"/>
<glyph unicode="¶" horiz-adv-x="1274" d="M487 -215v819q-97 8 -174.5 40t-132 84.5t-83.5 124t-29 157.5q0 100 34 177t98 129.5t154.5 79.5t204.5 27h537v-1638h-195v1462h-219v-1462h-195z"/>
<glyph unicode="·" horiz-adv-x="547" d="M274 555q-52 0 -96 27.5t-58 62t-14 66.5q0 47 26 85.5t65.5 54t74.5 15.5q53 0 93 -25t57.5 -61.5t17.5 -68.5q0 -47 -27.5 -86.5t-65 -54.5t-73.5 -15z"/>
<glyph unicode="¸" horiz-adv-x="856" d="M195 -375l178 273h286l-221 -273h-243z"/>
<glyph unicode="¹" horiz-adv-x="965" d="M231 616v154h183v553q-22 -7 -106.5 -28t-94.5 -25v157l227 78h176v-735h181v-154h-566z"/>
<glyph unicode="º" horiz-adv-x="813" d="M406 825q-79 0 -140 27.5t-103 75t-63.5 111.5t-21.5 137q0 76 20.5 140t61 110.5t102 73t144.5 26.5q117 0 195 -55.5t105 -137t27 -157.5q0 -73 -21.5 -137t-62.5 -111.5t-102.5 -75t-140.5 -27.5zM406 958q60 0 97.5 34t47.5 85t10 99q0 71 -19.5 123t-57 74t-78.5 22 q-60 0 -98 -35t-48 -85.5t-10 -98.5t8.5 -88t27 -69t48.5 -45t72 -16z"/>
<glyph unicode="»" horiz-adv-x="1104" d="M68 111l278 411l-278 412h243l269 -412l-267 -411h-245zM522 111l277 411l-277 412h244l268 -412l-268 -411h-244z"/>
<glyph unicode="¼" horiz-adv-x="2095" d="M516 0l889 1505h227l-889 -1505h-227zM1645 0v184h-474v160q112 149 230.5 286t236.5 259h197v-551h104v-154h-104v-184h-190zM1354 338h291v354q-53 -59 -148 -173.5t-143 -180.5zM190 616v154h185v553q-22 -7 -108 -28t-95 -25v157l227 78h176v-735h183v-154h-568z"/>
<glyph unicode="½" horiz-adv-x="2095" d="M492 0l888 1505h228l-889 -1505h-227zM1262 0v156q6 6 70 61.5t109.5 94t78.5 67.5q87 78 114.5 105.5t50.5 68.5t23 76q0 51 -34.5 79.5t-114.5 28.5q-58 0 -113.5 -18.5t-88 -36.5t-38.5 -23v179q71 33 142 49t138 16q165 0 246.5 -65t81.5 -193q0 -78 -43 -146.5 t-98 -118.5t-98 -87q-4 -4 -72 -61t-76 -64h418v-168h-696zM190 616v154h185v553q-22 -7 -108 -28t-95 -25v157l227 78h176v-735h183v-154h-568z"/>
<glyph unicode="¾" horiz-adv-x="2095" d="M520 0l889 1505h227l-888 -1505h-228zM1645 0v184h-474v160q112 149 230.5 286t236.5 259h197v-551h104v-154h-104v-184h-190zM1354 338h291v354q-53 -59 -148 -173.5t-143 -180.5zM473 604q-65 0 -116 7.5t-90 17t-65.5 19.5t-41.5 16l55 151q45 -22 108.5 -35.5 t120.5 -13.5q61 0 108.5 15t65 45t17.5 63q0 41 -25.5 69t-77 38t-114.5 10h-60v153h64q94 0 138 29t44 82q0 42 -34 68t-115 26q-80 0 -140 -20t-106 -46v166q39 16 72 27t94 20t123 9q81 0 142 -17t101 -46.5t60 -69.5t20 -87q0 -59 -26.5 -104t-60 -66t-56.5 -32 q54 -16 95.5 -46t62 -76.5t20.5 -96.5q0 -58 -25 -108t-73.5 -87t-120 -58.5t-164.5 -21.5z"/>
<glyph unicode="¿" horiz-adv-x="1047" d="M561 -20q-103 0 -183 24.5t-135.5 70t-84.5 111t-29 146.5q0 101 40.5 174.5t86.5 109.5t76 58q60 46 93 84.5t42.5 77.5t9.5 75v56h238v-86q0 -98 -28 -163t-70 -103t-82 -66q-30 -21 -57.5 -41t-48.5 -43t-33.5 -52t-12.5 -69q0 -58 28 -96.5t77 -53t106 -14.5 q102 0 179.5 29t160.5 80v-226q-108 -49 -196.5 -66t-176.5 -17zM600 1137q-36 0 -67 12t-53.5 32.5t-35 48.5t-12.5 60q0 47 25.5 85t65 54.5t75.5 16.5q51 0 92.5 -26t58.5 -61.5t17 -66.5q0 -49 -27 -87t-65.5 -53t-73.5 -15z"/>
<glyph unicode="À" horiz-adv-x="1284" d="M14 0q53 195 110 381.5t129.5 391.5t142 369.5t128.5 280.5h236q48 -96 97 -209t96 -235t91.5 -250.5t85 -254.5t76 -246.5t64.5 -227.5h-256q-20 75 -42 159.5t-48 178.5h-576q-12 -44 -90 -338h-244zM410 535h452q-117 358 -227 643q-152 -412 -225 -643zM537 1528 l-229 282h286l180 -282h-237z"/>
<glyph unicode="Á" horiz-adv-x="1284" d="M14 0q53 195 110 381.5t129.5 391.5t142 369.5t128.5 280.5h236q48 -96 97 -209t96 -235t91.5 -250.5t85 -254.5t76 -246.5t64.5 -227.5h-256q-20 75 -42 159.5t-48 178.5h-576q-12 -44 -90 -338h-244zM410 535h452q-117 358 -227 643q-152 -412 -225 -643zM517 1528 l180 282h287l-228 -282h-239z"/>
<glyph unicode="Â" horiz-adv-x="1284" d="M14 0q53 195 110 381.5t129.5 391.5t142 369.5t128.5 280.5h236q48 -96 97 -209t96 -235t91.5 -250.5t85 -254.5t76 -246.5t64.5 -227.5h-256q-20 75 -42 159.5t-48 178.5h-576q-12 -44 -90 -338h-244zM410 535h452q-117 358 -227 643q-152 -412 -225 -643zM299 1528 l252 282h208l252 -282h-235l-125 145l-123 -145h-229z"/>
<glyph unicode="Ã" horiz-adv-x="1284" d="M14 0q53 195 110 381.5t129.5 391.5t142 369.5t128.5 280.5h236q48 -96 97 -209t96 -235t91.5 -250.5t85 -254.5t76 -246.5t64.5 -227.5h-256q-20 75 -42 159.5t-48 178.5h-576q-12 -44 -90 -338h-244zM410 535h452q-117 358 -227 643q-152 -412 -225 -643zM792 1528 q-45 0 -87 18t-81 41q-82 51 -112 51q-25 0 -42.5 -11.5t-28 -33.5t-19.5 -51l-129 49q34 117 88 168t127 51q38 0 76.5 -11.5t89.5 -45.5q55 -38 76.5 -45.5t41.5 -7.5q28 0 49.5 18.5t36.5 75.5l133 -39q-27 -96 -64 -147.5t-78 -65.5t-77 -14z"/>
<glyph unicode="Ä" horiz-adv-x="1284" d="M14 0q53 195 110 381.5t129.5 391.5t142 369.5t128.5 280.5h236q48 -96 97 -209t96 -235t91.5 -250.5t85 -254.5t76 -246.5t64.5 -227.5h-256q-20 75 -42 159.5t-48 178.5h-576q-12 -44 -90 -338h-244zM410 535h452q-117 358 -227 643q-152 -412 -225 -643zM440 1544 q-30 0 -55 9.5t-43.5 26t-28.5 39.5t-10 50q0 39 21 71t52.5 45t61.5 13q62 0 100.5 -36.5t38.5 -92.5q0 -39 -23 -71.5t-53 -43t-61 -10.5zM846 1544q-30 0 -55 9.5t-43.5 26t-28.5 39.5t-10 50q0 39 21 71t53 45t61 13q62 0 100.5 -36.5t38.5 -92.5q0 -39 -23 -71.5 t-53.5 -43t-60.5 -10.5z"/>
<glyph unicode="Å" horiz-adv-x="1284" d="M14 0q66 250 162 546.5t176 494t142 323.5q-39 32 -61.5 78t-22.5 102q0 72 39 130.5t92.5 82t101.5 23.5q72 0 129.5 -39t82 -93.5t24.5 -103.5q0 -56 -24 -103t-64 -79q85 -179 173 -413.5t168.5 -485.5t137.5 -463h-256q-20 75 -42 159.5t-48 178.5h-576 q-12 -44 -90 -338h-244zM410 535h452q-117 358 -227 643q-152 -412 -225 -643zM643 1425q37 0 64.5 19.5t39 47.5t11.5 52q0 37 -18.5 66t-45 42t-51.5 13q-36 0 -64.5 -21t-39.5 -48t-11 -52q0 -24 9 -45.5t25 -38t36.5 -26t44.5 -9.5z"/>
<glyph unicode="Æ" horiz-adv-x="1890" d="M0 0q87 196 183 393t198 387q92 172 186.5 331.5t194.5 311.5h1010v-202h-607v-363h518v-203h-518v-452h641v-203h-888v383h-488q-116 -238 -176 -383h-254zM528 584h390v651h-17q-65 -99 -141 -230t-152 -272q-18 -35 -39 -73t-41 -76z"/>
<glyph unicode="Ç" horiz-adv-x="1202" d="M768 -20q-159 0 -279.5 49.5t-202 143t-122.5 229t-41 307.5t43 308.5t125.5 231.5t203.5 145t277 50q106 0 202.5 -19.5t137.5 -40.5v-219q-61 25 -97 37t-97 22.5t-115 10.5q-97 0 -168 -28t-121 -79q-69 -71 -98 -178.5t-29 -244.5q0 -133 27.5 -229.5t80 -158.5 t128 -92t170.5 -30q96 0 168.5 15t132.5 40l73 -189q-77 -35 -179 -58t-220 -23zM412 -375l178 273h286l-221 -273h-243z"/>
<glyph unicode="È" horiz-adv-x="1155" d="M182 0v1423h854v-202h-604v-363h516v-203h-516v-452h639v-203h-889zM557 1528l-229 282h286l180 -282h-237z"/>
<glyph unicode="É" horiz-adv-x="1155" d="M182 0v1423h854v-202h-604v-363h516v-203h-516v-452h639v-203h-889zM471 1528l180 282h287l-228 -282h-239z"/>
<glyph unicode="Ê" horiz-adv-x="1155" d="M182 0v1423h854v-202h-604v-363h516v-203h-516v-452h639v-203h-889zM248 1528l252 282h208l252 -282h-235l-125 145l-123 -145h-229z"/>
<glyph unicode="Ë" horiz-adv-x="1155" d="M182 0v1423h854v-202h-604v-363h516v-203h-516v-452h639v-203h-889zM415 1544q-30 0 -55 9.5t-43.5 26t-28.5 39.5t-10 50q0 39 21 71t52.5 45t61.5 13q62 0 100.5 -36.5t38.5 -92.5q0 -39 -23 -71.5t-53 -43t-61 -10.5zM821 1544q-30 0 -55 9.5t-43.5 26t-28.5 39.5 t-10 50q0 39 21 71t53 45t61 13q62 0 100.5 -36.5t38.5 -92.5q0 -39 -23 -71.5t-53.5 -43t-60.5 -10.5z"/>
<glyph unicode="Ì" horiz-adv-x="614" d="M182 0v1423h250v-1423h-250zM200 1528l-229 282h286l180 -282h-237z"/>
<glyph unicode="Í" horiz-adv-x="614" d="M182 0v1423h250v-1423h-250zM182 1528l180 282h287l-228 -282h-239z"/>
<glyph unicode="Î" horiz-adv-x="614" d="M182 0v1423h250v-1423h-250zM-48 1528l252 282h208l252 -282h-235l-125 145l-123 -145h-229z"/>
<glyph unicode="Ï" horiz-adv-x="614" d="M182 0v1423h250v-1423h-250zM105 1544q-30 0 -55 9.5t-43.5 26t-28.5 39.5t-10 50q0 39 21 71t52.5 45t61.5 13q62 0 100.5 -36.5t38.5 -92.5q0 -39 -23 -71.5t-53 -43t-61 -10.5zM511 1544q-30 0 -55 9.5t-43.5 26t-28.5 39.5t-10 50q0 39 21 71t53 45t61 13 q62 0 100.5 -36.5t38.5 -92.5q0 -39 -23 -71.5t-53.5 -43t-60.5 -10.5z"/>
<glyph unicode="Ð" horiz-adv-x="1405" d="M184 0v649h-129v166h127v608h439q156 0 278.5 -44.5t207.5 -133.5t130 -222.5t45 -311.5q0 -177 -45 -310.5t-130 -222.5t-207.5 -133.5t-276.5 -44.5h-439zM430 203h193q90 0 163 30t124 92.5t78.5 158t27.5 227.5q0 191 -58.5 310.5t-151 159.5t-181.5 40h-195v-406 h244v-166h-244v-446z"/>
<glyph unicode="Ñ" horiz-adv-x="1417" d="M182 0v1423h230q37 -51 83.5 -117.5t97 -144t104 -163t106 -172.5t101 -173.5t89.5 -165.5v936h242v-1423h-219q-140 272 -286.5 536.5t-305.5 516.5v-1053h-242zM862 1528q-45 0 -87 18t-81 41q-82 51 -112 51q-25 0 -42.5 -11.5t-28 -33.5t-19.5 -51l-129 49 q34 117 88 168t127 51q38 0 76.5 -11.5t89.5 -45.5q55 -38 76.5 -45.5t41.5 -7.5q28 0 49.5 18.5t36.5 75.5l133 -39q-27 -96 -64 -147.5t-78 -65.5t-77 -14z"/>
<glyph unicode="Ò" horiz-adv-x="1458" d="M729 -29q-140 0 -252 50t-191 145t-121 232.5t-42 312.5t42 312.5t120.5 233t190.5 145.5t251 50q140 0 252.5 -50t191.5 -145.5t121.5 -233t42.5 -312.5t-42.5 -312.5t-121.5 -232.5t-191 -145t-251 -50zM727 172q80 0 143.5 34t108 101.5t68.5 168.5t24 235 q0 201 -51.5 327t-131.5 169.5t-159 43.5q-80 0 -143.5 -33.5t-107.5 -101t-67.5 -168.5t-23.5 -237q0 -268 90 -403.5t250 -135.5zM660 1528l-229 282h286l180 -282h-237z"/>
<glyph unicode="Ó" horiz-adv-x="1458" d="M729 -29q-140 0 -252 50t-191 145t-121 232.5t-42 312.5t42 312.5t120.5 233t190.5 145.5t251 50q140 0 252.5 -50t191.5 -145.5t121.5 -233t42.5 -312.5t-42.5 -312.5t-121.5 -232.5t-191 -145t-251 -50zM727 172q80 0 143.5 34t108 101.5t68.5 168.5t24 235 q0 201 -51.5 327t-131.5 169.5t-159 43.5q-80 0 -143.5 -33.5t-107.5 -101t-67.5 -168.5t-23.5 -237q0 -268 90 -403.5t250 -135.5zM586 1528l180 282h287l-228 -282h-239z"/>
<glyph unicode="Ô" horiz-adv-x="1458" d="M729 -29q-140 0 -252 50t-191 145t-121 232.5t-42 312.5t42 312.5t120.5 233t190.5 145.5t251 50q140 0 252.5 -50t191.5 -145.5t121.5 -233t42.5 -312.5t-42.5 -312.5t-121.5 -232.5t-191 -145t-251 -50zM727 172q80 0 143.5 34t108 101.5t68.5 168.5t24 235 q0 201 -51.5 327t-131.5 169.5t-159 43.5q-80 0 -143.5 -33.5t-107.5 -101t-67.5 -168.5t-23.5 -237q0 -268 90 -403.5t250 -135.5zM381 1528l252 282h208l252 -282h-235l-125 145l-123 -145h-229z"/>
<glyph unicode="Õ" horiz-adv-x="1458" d="M729 -29q-140 0 -252 50t-191 145t-121 232.5t-42 312.5t42 312.5t120.5 233t190.5 145.5t251 50q140 0 252.5 -50t191.5 -145.5t121.5 -233t42.5 -312.5t-42.5 -312.5t-121.5 -232.5t-191 -145t-251 -50zM727 172q80 0 143.5 34t108 101.5t68.5 168.5t24 235 q0 201 -51.5 327t-131.5 169.5t-159 43.5q-80 0 -143.5 -33.5t-107.5 -101t-67.5 -168.5t-23.5 -237q0 -268 90 -403.5t250 -135.5zM886 1528q-45 0 -87 18t-81 41q-82 51 -112 51q-25 0 -42.5 -11.5t-28 -33.5t-19.5 -51l-129 49q34 117 88 168t127 51q38 0 76.5 -11.5 t89.5 -45.5q55 -38 76.5 -45.5t41.5 -7.5q28 0 49.5 18.5t36.5 75.5l133 -39q-27 -96 -64 -147.5t-78 -65.5t-77 -14z"/>
<glyph unicode="Ö" horiz-adv-x="1458" d="M729 -29q-140 0 -252 50t-191 145t-121 232.5t-42 312.5t42 312.5t120.5 233t190.5 145.5t251 50q140 0 252.5 -50t191.5 -145.5t121.5 -233t42.5 -312.5t-42.5 -312.5t-121.5 -232.5t-191 -145t-251 -50zM727 172q80 0 143.5 34t108 101.5t68.5 168.5t24 235 q0 201 -51.5 327t-131.5 169.5t-159 43.5q-80 0 -143.5 -33.5t-107.5 -101t-67.5 -168.5t-23.5 -237q0 -268 90 -403.5t250 -135.5zM530 1544q-30 0 -55 9.5t-43.5 26t-28.5 39.5t-10 50q0 39 21 71t52.5 45t61.5 13q62 0 100.5 -36.5t38.5 -92.5q0 -39 -23 -71.5t-53 -43 t-61 -10.5zM936 1544q-30 0 -55 9.5t-43.5 26t-28.5 39.5t-10 50q0 39 21 71t53 45t61 13q62 0 100.5 -36.5t38.5 -92.5q0 -39 -23 -71.5t-53.5 -43t-60.5 -10.5z"/>
<glyph unicode="×" d="M864 287l-272 274l-273 -272l-149 149l272 273l-272 272l149 150l273 -273l272 275l150 -150l-273 -274l273 -275z"/>
<glyph unicode="Ø" horiz-adv-x="1458" d="M342 -137l-133 71l108 197q-94 94 -144 239.5t-50 340.5q0 175 42 312.5t120.5 233t190.5 145.5t251 50q159 0 285 -66l102 189l135 -72l-114 -207q96 -94 148 -241.5t52 -343.5q0 -175 -42.5 -312.5t-121.5 -232.5t-191 -145t-251 -50q-162 0 -289 68zM727 172 q80 0 143.5 34t108 101.5t68.5 168.5t24 235q0 112 -16 202t-47 156l-461 -838q37 -29 81.5 -44t98.5 -15zM446 365l459 833q-74 53 -176 53q-80 0 -143.5 -33.5t-107.5 -101t-67.5 -168.5t-23.5 -237q0 -109 15 -195t44 -151z"/>
<glyph unicode="Ù" horiz-adv-x="1393" d="M696 -25q-114 0 -210 31.5t-166.5 95.5t-110 162t-39.5 230v929h250v-923q0 -84 21 -143t57.5 -96t87 -54t110.5 -17q96 0 160.5 39.5t90.5 112.5t26 158v923h250v-929q0 -132 -39.5 -229.5t-109.5 -162t-167 -96t-211 -31.5zM619 1528l-229 282h286l180 -282h-237z"/>
<glyph unicode="Ú" horiz-adv-x="1393" d="M696 -25q-114 0 -210 31.5t-166.5 95.5t-110 162t-39.5 230v929h250v-923q0 -84 21 -143t57.5 -96t87 -54t110.5 -17q96 0 160.5 39.5t90.5 112.5t26 158v923h250v-929q0 -132 -39.5 -229.5t-109.5 -162t-167 -96t-211 -31.5zM545 1528l180 282h287l-228 -282h-239z"/>
<glyph unicode="Û" horiz-adv-x="1393" d="M696 -25q-114 0 -210 31.5t-166.5 95.5t-110 162t-39.5 230v929h250v-923q0 -84 21 -143t57.5 -96t87 -54t110.5 -17q96 0 160.5 39.5t90.5 112.5t26 158v923h250v-929q0 -132 -39.5 -229.5t-109.5 -162t-167 -96t-211 -31.5zM328 1528l252 282h208l252 -282h-235 l-125 145l-123 -145h-229z"/>
<glyph unicode="Ü" horiz-adv-x="1393" d="M696 -25q-114 0 -210 31.5t-166.5 95.5t-110 162t-39.5 230v929h250v-923q0 -84 21 -143t57.5 -96t87 -54t110.5 -17q96 0 160.5 39.5t90.5 112.5t26 158v923h250v-929q0 -132 -39.5 -229.5t-109.5 -162t-167 -96t-211 -31.5zM479 1544q-30 0 -55 9.5t-43.5 26 t-28.5 39.5t-10 50q0 39 21 71t52.5 45t61.5 13q62 0 100.5 -36.5t38.5 -92.5q0 -39 -23 -71.5t-53 -43t-61 -10.5zM885 1544q-30 0 -55 9.5t-43.5 26t-28.5 39.5t-10 50q0 39 21 71t53 45t61 13q62 0 100.5 -36.5t38.5 -92.5q0 -39 -23 -71.5t-53.5 -43t-60.5 -10.5z"/>
<glyph unicode="Ý" horiz-adv-x="1253" d="M502 0v635q-57 75 -120.5 167t-127.5 194.5t-125.5 211t-114.5 215.5h262q57 -110 141.5 -255t213.5 -324q106 152 194.5 300.5t155.5 278.5h258q-99 -201 -232.5 -413.5t-254.5 -372.5v-637h-250zM504 1528l180 282h287l-228 -282h-239z"/>
<glyph unicode="Þ" horiz-adv-x="1217" d="M182 0v1423h244v-213h207q175 0 291.5 -58.5t159 -154.5t42.5 -200q0 -81 -27 -162t-88 -146t-159.5 -106t-241.5 -41h-184v-342h-244zM426 543h164q145 0 211.5 64.5t66.5 176.5q0 120 -66.5 174t-207.5 54h-168v-469z"/>
<glyph unicode="ß" horiz-adv-x="1280" d="M793 -20q-56 0 -101 6t-80 14.5t-59 18.5t-37 18l62 174q17 -13 69 -30t119 -17q91 0 136.5 45.5t45.5 116.5q0 58 -41 105t-129 97q-43 25 -83.5 53t-72 62t-50.5 75.5t-19 92.5q0 55 18 99t46 74.5t55 55.5q69 66 88.5 103t19.5 76q0 41 -22 72.5t-62 47t-86 15.5 q-60 0 -100 -19t-64 -52.5t-33.5 -79t-9.5 -97.5v-1106h-241v1092q0 89 21.5 166t81 143.5t154.5 95.5t199 29q111 0 189 -23.5t127.5 -64t72.5 -94.5t23 -115q0 -82 -35.5 -137.5t-99.5 -114.5q-86 -79 -86 -131q0 -43 37 -75t137 -93q83 -53 128.5 -102.5t65 -112 t19.5 -131.5q0 -81 -29.5 -146.5t-82.5 -111t-127 -70t-164 -24.5z"/>
<glyph unicode="à" horiz-adv-x="1087" d="M412 -20q-65 0 -123.5 17t-102.5 54.5t-70 97t-26 144.5q0 127 60 206t169 119q56 20 121.5 30t143.5 14q8 0 23 0.5t31 0.5q17 0 32.5 0.5t23.5 0.5v47q0 69 -27.5 107.5t-80.5 52.5t-117 14q-75 0 -147.5 -16t-149.5 -44v189q98 25 172.5 36t173.5 11q106 0 184 -20 t129 -62.5t76 -108.5t25 -159v-711h-227l-7 82q-29 -28 -76.5 -53t-103 -37t-106.5 -12zM479 160q34 0 66 6.5t60 18t51 26t38 29.5v256h-59q-163 0 -235 -45t-72 -142q0 -29 7.5 -55.5t25 -47.5t46.5 -33.5t72 -12.5zM461 1141l-229 282h286l180 -282h-237z"/>
<glyph unicode="á" horiz-adv-x="1087" d="M412 -20q-65 0 -123.5 17t-102.5 54.5t-70 97t-26 144.5q0 127 60 206t169 119q56 20 121.5 30t143.5 14q8 0 23 0.5t31 0.5q17 0 32.5 0.5t23.5 0.5v47q0 69 -27.5 107.5t-80.5 52.5t-117 14q-75 0 -147.5 -16t-149.5 -44v189q98 25 172.5 36t173.5 11q106 0 184 -20 t129 -62.5t76 -108.5t25 -159v-711h-227l-7 82q-29 -28 -76.5 -53t-103 -37t-106.5 -12zM479 160q34 0 66 6.5t60 18t51 26t38 29.5v256h-59q-163 0 -235 -45t-72 -142q0 -29 7.5 -55.5t25 -47.5t46.5 -33.5t72 -12.5zM383 1141l180 282h287l-228 -282h-239z"/>
<glyph unicode="â" horiz-adv-x="1087" d="M412 -20q-65 0 -123.5 17t-102.5 54.5t-70 97t-26 144.5q0 127 60 206t169 119q56 20 121.5 30t143.5 14q8 0 23 0.5t31 0.5q17 0 32.5 0.5t23.5 0.5v47q0 69 -27.5 107.5t-80.5 52.5t-117 14q-75 0 -147.5 -16t-149.5 -44v189q98 25 172.5 36t173.5 11q106 0 184 -20 t129 -62.5t76 -108.5t25 -159v-711h-227l-7 82q-29 -28 -76.5 -53t-103 -37t-106.5 -12zM479 160q34 0 66 6.5t60 18t51 26t38 29.5v256h-59q-163 0 -235 -45t-72 -142q0 -29 7.5 -55.5t25 -47.5t46.5 -33.5t72 -12.5zM181 1141l252 282h208l252 -282h-235l-125 145 l-123 -145h-229z"/>
<glyph unicode="ã" horiz-adv-x="1087" d="M412 -20q-65 0 -123.5 17t-102.5 54.5t-70 97t-26 144.5q0 127 60 206t169 119q56 20 121.5 30t143.5 14q8 0 23 0.5t31 0.5q17 0 32.5 0.5t23.5 0.5v47q0 69 -27.5 107.5t-80.5 52.5t-117 14q-75 0 -147.5 -16t-149.5 -44v189q98 25 172.5 36t173.5 11q106 0 184 -20 t129 -62.5t76 -108.5t25 -159v-711h-227l-7 82q-29 -28 -76.5 -53t-103 -37t-106.5 -12zM479 160q34 0 66 6.5t60 18t51 26t38 29.5v256h-59q-163 0 -235 -45t-72 -142q0 -29 7.5 -55.5t25 -47.5t46.5 -33.5t72 -12.5zM680 1141q-45 0 -87 18t-81 41q-82 51 -112 51 q-25 0 -42.5 -11.5t-28 -33.5t-19.5 -51l-129 49q34 117 88 168t127 51q38 0 76.5 -11.5t89.5 -45.5q55 -38 76.5 -45.5t41.5 -7.5q28 0 49.5 18.5t36.5 75.5l133 -39q-27 -96 -64 -147.5t-78 -65.5t-77 -14z"/>
<glyph unicode="ä" horiz-adv-x="1087" d="M412 -20q-65 0 -123.5 17t-102.5 54.5t-70 97t-26 144.5q0 127 60 206t169 119q56 20 121.5 30t143.5 14q8 0 23 0.5t31 0.5q17 0 32.5 0.5t23.5 0.5v47q0 69 -27.5 107.5t-80.5 52.5t-117 14q-75 0 -147.5 -16t-149.5 -44v189q98 25 172.5 36t173.5 11q106 0 184 -20 t129 -62.5t76 -108.5t25 -159v-711h-227l-7 82q-29 -28 -76.5 -53t-103 -37t-106.5 -12zM479 160q34 0 66 6.5t60 18t51 26t38 29.5v256h-59q-163 0 -235 -45t-72 -142q0 -29 7.5 -55.5t25 -47.5t46.5 -33.5t72 -12.5zM327 1157q-30 0 -55 9.5t-43.5 26t-28.5 39.5t-10 50 q0 39 21 71t52.5 45t61.5 13q62 0 100.5 -36.5t38.5 -92.5q0 -39 -23 -71.5t-53 -43t-61 -10.5zM733 1157q-30 0 -55 9.5t-43.5 26t-28.5 39.5t-10 50q0 39 21 71t53 45t61 13q62 0 100.5 -36.5t38.5 -92.5q0 -39 -23 -71.5t-53.5 -43t-60.5 -10.5z"/>
<glyph unicode="å" horiz-adv-x="1087" d="M412 -20q-65 0 -123.5 17t-102.5 54.5t-70 97t-26 144.5q0 127 60 206t169 119q56 20 121.5 30t143.5 14q8 0 23 0.5t31 0.5q17 0 32.5 0.5t23.5 0.5v47q0 69 -27.5 107.5t-80.5 52.5t-117 14q-75 0 -147.5 -16t-149.5 -44v189q98 25 172.5 36t173.5 11q106 0 184 -20 t129 -62.5t76 -108.5t25 -159v-711h-227l-7 82q-29 -28 -76.5 -53t-103 -37t-106.5 -12zM479 160q34 0 66 6.5t60 18t51 26t38 29.5v256h-59q-163 0 -235 -45t-72 -142q0 -29 7.5 -55.5t25 -47.5t46.5 -33.5t72 -12.5zM541 1141q-48 0 -91 18.5t-75 50t-50.5 74t-18.5 90.5 q0 72 39 130t92.5 82t103.5 24q71 0 129.5 -40t82.5 -93t24 -101q0 -49 -18.5 -92t-50.5 -74.5t-75 -50t-92 -18.5zM541 1255q35 0 61.5 19t40 48t13.5 54q0 38 -20 66.5t-46 41.5t-49 13q-34 0 -63.5 -20.5t-40.5 -48t-11 -52.5t9.5 -47t25 -38.5t36.5 -26t44 -9.5z"/>
<glyph unicode="æ" horiz-adv-x="1683" d="M1184 -25q-121 0 -215.5 38t-151.5 104q-69 -60 -161 -98.5t-203 -38.5q-81 0 -147.5 18t-114.5 56.5t-74.5 98.5t-26.5 144q0 126 58 202t159 113q82 31 181.5 41.5t205.5 10.5v47q0 90 -51 132t-174 42q-75 0 -147.5 -16t-149.5 -44v189q98 25 172.5 36t173.5 11 q118 0 202 -33t126 -98q60 74 147 104.5t166 30.5q204 0 312 -124t108 -370q0 -34 -1 -67t-1 -58h-647q12 -140 83.5 -211t211.5 -71q72 0 137.5 10.5t110.5 24.5l45 -179q-74 -21 -153.5 -33t-180.5 -12zM489 162q59 0 120.5 18t123.5 68q-16 26 -28.5 82t-15.5 90.5 t-3 64.5v11h-51q-163 0 -235 -45t-72 -142q0 -29 8.5 -55.5t27.5 -46.5t50 -32.5t75 -12.5zM924 612h409v39q0 119 -47 180.5t-141 61.5q-102 0 -159 -72t-62 -209z"/>
<glyph unicode="ç" horiz-adv-x="969" d="M614 -16q-120 0 -212.5 37t-156.5 106t-97 168t-33 223t34 223.5t98.5 169.5t159 108t216.5 38q80 0 156 -13.5t106 -23.5v-193q-48 13 -108 23t-103 10q-148 0 -225.5 -80t-77.5 -260q0 -171 70.5 -254.5t207.5 -83.5q71 0 126 11t95 26l56 -182q-60 -22 -136.5 -37.5 t-175.5 -15.5zM265 -375l178 273h286l-221 -273h-243z"/>
<glyph unicode="è" horiz-adv-x="1122" d="M623 -25q-121 0 -215.5 38.5t-159.5 110t-99 171.5t-34 223q0 120 30.5 220.5t90 173t148 113t204.5 40.5q213 0 321.5 -126.5t108.5 -367.5q0 -75 -4 -125h-645q13 -140 84 -211t213 -71q64 0 129.5 9.5t115.5 25.5l47 -181q-75 -21 -155 -32t-180 -11zM362 612h410v39 q0 119 -47 180.5t-143 61.5q-50 0 -89.5 -19.5t-67.5 -56t-44 -88.5t-19 -117zM537 1141l-229 282h286l180 -282h-237z"/>
<glyph unicode="é" horiz-adv-x="1122" d="M623 -25q-121 0 -215.5 38.5t-159.5 110t-99 171.5t-34 223q0 120 30.5 220.5t90 173t148 113t204.5 40.5q213 0 321.5 -126.5t108.5 -367.5q0 -75 -4 -125h-645q13 -140 84 -211t213 -71q64 0 129.5 9.5t115.5 25.5l47 -181q-75 -21 -155 -32t-180 -11zM362 612h410v39 q0 119 -47 180.5t-143 61.5q-50 0 -89.5 -19.5t-67.5 -56t-44 -88.5t-19 -117zM447 1141l180 282h287l-228 -282h-239z"/>
<glyph unicode="ê" horiz-adv-x="1122" d="M623 -25q-121 0 -215.5 38.5t-159.5 110t-99 171.5t-34 223q0 120 30.5 220.5t90 173t148 113t204.5 40.5q213 0 321.5 -126.5t108.5 -367.5q0 -75 -4 -125h-645q13 -140 84 -211t213 -71q64 0 129.5 9.5t115.5 25.5l47 -181q-75 -21 -155 -32t-180 -11zM362 612h410v39 q0 119 -47 180.5t-143 61.5q-50 0 -89.5 -19.5t-67.5 -56t-44 -88.5t-19 -117zM238 1141l252 282h208l252 -282h-235l-125 145l-123 -145h-229z"/>
<glyph unicode="ë" horiz-adv-x="1122" d="M623 -25q-121 0 -215.5 38.5t-159.5 110t-99 171.5t-34 223q0 120 30.5 220.5t90 173t148 113t204.5 40.5q213 0 321.5 -126.5t108.5 -367.5q0 -75 -4 -125h-645q13 -140 84 -211t213 -71q64 0 129.5 9.5t115.5 25.5l47 -181q-75 -21 -155 -32t-180 -11zM362 612h410v39 q0 119 -47 180.5t-143 61.5q-50 0 -89.5 -19.5t-67.5 -56t-44 -88.5t-19 -117zM395 1157q-30 0 -55 9.5t-43.5 26t-28.5 39.5t-10 50q0 39 21 71t52.5 45t61.5 13q62 0 100.5 -36.5t38.5 -92.5q0 -39 -23 -71.5t-53 -43t-61 -10.5zM801 1157q-30 0 -55 9.5t-43.5 26 t-28.5 39.5t-10 50q0 39 21 71t53 45t61 13q62 0 100.5 -36.5t38.5 -92.5q0 -39 -23 -71.5t-53.5 -43t-60.5 -10.5z"/>
<glyph unicode="ì" horiz-adv-x="604" d="M186 0v868q-71 12 -133 17v155h375v-1040h-242zM175 1141l-229 282h286l180 -282h-237z"/>
<glyph unicode="í" horiz-adv-x="604" d="M186 0v868q-71 12 -133 17v155h375v-1040h-242zM137 1141l180 282h287l-228 -282h-239z"/>
<glyph unicode="î" horiz-adv-x="604" d="M186 0v868q-71 12 -133 17v155h375v-1040h-242zM-93 1141l252 282h208l252 -282h-235l-125 145l-123 -145h-229z"/>
<glyph unicode="ï" horiz-adv-x="604" d="M186 0v868q-71 12 -133 17v155h375v-1040h-242zM66 1157q-30 0 -55 9.5t-43.5 26t-28.5 39.5t-10 50q0 39 21 71t52.5 45t61.5 13q62 0 100.5 -36.5t38.5 -92.5q0 -39 -23 -71.5t-53 -43t-61 -10.5zM472 1157q-30 0 -55 9.5t-43.5 26t-28.5 39.5t-10 50q0 39 21 71t53 45 t61 13q62 0 100.5 -36.5t38.5 -92.5q0 -39 -23 -71.5t-53.5 -43t-60.5 -10.5z"/>
<glyph unicode="ð" horiz-adv-x="1200" d="M600 -25q-117 0 -207.5 38t-152 105.5t-93.5 160t-32 200.5q0 111 30 204t86.5 159.5t136.5 103.5t181 37q60 0 108.5 -14.5t80 -35.5t42.5 -36q-23 87 -74.5 169.5t-132.5 152.5l-141 -121l-90 96l125 109q-88 52 -166 79l64 144q71 -20 132.5 -45.5t116.5 -57.5 l121 103l90 -99l-96 -81q141 -111 226 -266.5t107.5 -293t22.5 -231.5q0 -128 -32 -235t-94 -183.5t-152 -119t-207 -42.5zM600 162q86 0 140.5 49.5t71.5 124.5t17 143q0 107 -29.5 180.5t-84 105.5t-115.5 32t-104 -24.5t-70.5 -67t-40 -101t-12.5 -125.5 q0 -108 30 -183.5t82.5 -104.5t114.5 -29z"/>
<glyph unicode="ñ" horiz-adv-x="1208" d="M162 0v1040h229l6 -133q34 52 87.5 88t113.5 51t113 15q122 0 202.5 -51t110 -131t29.5 -160v-719h-242v655q0 107 -45.5 155t-130.5 48q-48 0 -90 -20.5t-73.5 -55.5t-50 -81.5t-18.5 -98.5v-602h-241zM741 1141q-45 0 -87 18t-81 41q-82 51 -112 51q-25 0 -42.5 -11.5 t-28 -33.5t-19.5 -51l-129 49q34 117 88 168t127 51q38 0 76.5 -11.5t89.5 -45.5q55 -38 76.5 -45.5t41.5 -7.5q28 0 49.5 18.5t36.5 75.5l133 -39q-27 -96 -64 -147.5t-78 -65.5t-77 -14z"/>
<glyph unicode="ò" horiz-adv-x="1200" d="M600 -25q-116 0 -206 42t-152 115.5t-94.5 173t-32.5 214.5q0 119 31 219t92 172.5t151.5 113t210.5 40.5t211 -40t151.5 -112.5t91.5 -172.5t31 -220q0 -114 -32 -213.5t-94 -173t-152 -116t-207 -42.5zM600 162q87 0 141.5 56t71 139.5t16.5 162.5q0 122 -29.5 206 t-84 118.5t-115.5 34.5q-88 0 -142 -56t-70.5 -140.5t-16.5 -162.5t12.5 -144t40.5 -113.5t71 -74t105 -26.5zM537 1141l-229 282h286l180 -282h-237z"/>
<glyph unicode="ó" horiz-adv-x="1200" d="M600 -25q-116 0 -206 42t-152 115.5t-94.5 173t-32.5 214.5q0 119 31 219t92 172.5t151.5 113t210.5 40.5t211 -40t151.5 -112.5t91.5 -172.5t31 -220q0 -114 -32 -213.5t-94 -173t-152 -116t-207 -42.5zM600 162q87 0 141.5 56t71 139.5t16.5 162.5q0 122 -29.5 206 t-84 118.5t-115.5 34.5q-88 0 -142 -56t-70.5 -140.5t-16.5 -162.5t12.5 -144t40.5 -113.5t71 -74t105 -26.5zM447 1141l180 282h287l-228 -282h-239z"/>
<glyph unicode="ô" horiz-adv-x="1200" d="M600 -25q-116 0 -206 42t-152 115.5t-94.5 173t-32.5 214.5q0 119 31 219t92 172.5t151.5 113t210.5 40.5t211 -40t151.5 -112.5t91.5 -172.5t31 -220q0 -114 -32 -213.5t-94 -173t-152 -116t-207 -42.5zM600 162q87 0 141.5 56t71 139.5t16.5 162.5q0 122 -29.5 206 t-84 118.5t-115.5 34.5q-88 0 -142 -56t-70.5 -140.5t-16.5 -162.5t12.5 -144t40.5 -113.5t71 -74t105 -26.5zM246 1141l252 282h208l252 -282h-235l-125 145l-123 -145h-229z"/>
<glyph unicode="õ" horiz-adv-x="1200" d="M600 -25q-116 0 -206 42t-152 115.5t-94.5 173t-32.5 214.5q0 119 31 219t92 172.5t151.5 113t210.5 40.5t211 -40t151.5 -112.5t91.5 -172.5t31 -220q0 -114 -32 -213.5t-94 -173t-152 -116t-207 -42.5zM600 162q87 0 141.5 56t71 139.5t16.5 162.5q0 122 -29.5 206 t-84 118.5t-115.5 34.5q-88 0 -142 -56t-70.5 -140.5t-16.5 -162.5t12.5 -144t40.5 -113.5t71 -74t105 -26.5zM741 1141q-45 0 -87 18t-81 41q-82 51 -112 51q-25 0 -42.5 -11.5t-28 -33.5t-19.5 -51l-129 49q34 117 88 168t127 51q38 0 76.5 -11.5t89.5 -45.5 q55 -38 76.5 -45.5t41.5 -7.5q28 0 49.5 18.5t36.5 75.5l133 -39q-27 -96 -64 -147.5t-78 -65.5t-77 -14z"/>
<glyph unicode="ö" horiz-adv-x="1200" d="M600 -25q-116 0 -206 42t-152 115.5t-94.5 173t-32.5 214.5q0 119 31 219t92 172.5t151.5 113t210.5 40.5t211 -40t151.5 -112.5t91.5 -172.5t31 -220q0 -114 -32 -213.5t-94 -173t-152 -116t-207 -42.5zM600 162q87 0 141.5 56t71 139.5t16.5 162.5q0 122 -29.5 206 t-84 118.5t-115.5 34.5q-88 0 -142 -56t-70.5 -140.5t-16.5 -162.5t12.5 -144t40.5 -113.5t71 -74t105 -26.5zM397 1157q-30 0 -55 9.5t-43.5 26t-28.5 39.5t-10 50q0 39 21 71t52.5 45t61.5 13q62 0 100.5 -36.5t38.5 -92.5q0 -39 -23 -71.5t-53 -43t-61 -10.5zM803 1157 q-30 0 -55 9.5t-43.5 26t-28.5 39.5t-10 50q0 39 21 71t53 45t61 13q62 0 100.5 -36.5t38.5 -92.5q0 -39 -23 -71.5t-53.5 -43t-60.5 -10.5z"/>
<glyph unicode="÷" d="M588 195q-34 0 -63 11.5t-50 32t-33 47t-12 56.5q0 47 27 84t62 51.5t69 14.5q48 0 88.5 -25t56 -59.5t15.5 -65.5q0 -46 -28 -83.5t-63 -50.5t-69 -13zM100 610v209h979v-209h-979zM588 938q-49 0 -89 25.5t-54.5 58.5t-14.5 63q0 47 27 84t62 51.5t69 14.5 q48 0 88.5 -25t56 -59.5t15.5 -65.5q0 -46 -26.5 -81.5t-63.5 -50.5t-70 -15z"/>
<glyph unicode="ø" horiz-adv-x="1200" d="M293 -111l-109 56l90 151q-78 75 -118.5 184t-40.5 240q0 119 31 219t92 172.5t151.5 113t210.5 40.5q127 0 223 -47l84 141l109 -55l-90 -154q80 -72 119.5 -181t39.5 -249q0 -114 -32 -213.5t-94 -173t-152 -116t-207 -42.5q-63 0 -120 13.5t-105 38.5zM600 160 q91 0 146 56.5t71.5 140t16.5 163.5q0 65 -8.5 120.5t-26.5 100.5l-322 -544q49 -37 123 -37zM399 307l322 539q-25 17 -54.5 26t-66.5 9q-62 0 -106 -26.5t-72 -74.5t-40.5 -114.5t-12.5 -145.5q0 -62 7.5 -115.5t22.5 -97.5z"/>
<glyph unicode="ù" horiz-adv-x="1208" d="M496 -20q-164 0 -252 85t-88 252v723h241v-667q0 -103 44 -147t130 -44q73 0 131 44t80.5 102t22.5 110v602h242v-1040h-230l-6 133q-43 -68 -125 -110.5t-190 -42.5zM524 1141l-229 282h286l180 -282h-237z"/>
<glyph unicode="ú" horiz-adv-x="1208" d="M496 -20q-164 0 -252 85t-88 252v723h241v-667q0 -103 44 -147t130 -44q73 0 131 44t80.5 102t22.5 110v602h242v-1040h-230l-6 133q-43 -68 -125 -110.5t-190 -42.5zM463 1141l180 282h287l-228 -282h-239z"/>
<glyph unicode="û" horiz-adv-x="1208" d="M496 -20q-164 0 -252 85t-88 252v723h241v-667q0 -103 44 -147t130 -44q73 0 131 44t80.5 102t22.5 110v602h242v-1040h-230l-6 133q-43 -68 -125 -110.5t-190 -42.5zM246 1141l252 282h208l252 -282h-235l-125 145l-123 -145h-229z"/>
<glyph unicode="ü" horiz-adv-x="1208" d="M496 -20q-164 0 -252 85t-88 252v723h241v-667q0 -103 44 -147t130 -44q73 0 131 44t80.5 102t22.5 110v602h242v-1040h-230l-6 133q-43 -68 -125 -110.5t-190 -42.5zM397 1157q-30 0 -55 9.5t-43.5 26t-28.5 39.5t-10 50q0 39 21 71t52.5 45t61.5 13q62 0 100.5 -36.5 t38.5 -92.5q0 -39 -23 -71.5t-53 -43t-61 -10.5zM803 1157q-30 0 -55 9.5t-43.5 26t-28.5 39.5t-10 50q0 39 21 71t53 45t61 13q62 0 100.5 -36.5t38.5 -92.5q0 -39 -23 -71.5t-53.5 -43t-60.5 -10.5z"/>
<glyph unicode="ý" horiz-adv-x="1075" d="M172 -434q-77 0 -129.5 14t-75.5 27l47 176q17 -6 50.5 -14.5t76.5 -8.5q66 0 113.5 31.5t80 82.5t54.5 99l49 109q-93 163 -182.5 358.5t-146 338.5t-97.5 261h258q35 -115 88.5 -254.5t107.5 -258.5t99 -210q78 193 139 377.5t103 345.5h254q-112 -355 -218 -625 t-184 -429q-47 -96 -92 -173.5t-100.5 -132.5t-126.5 -84.5t-168 -29.5zM404 1141l180 282h287l-228 -282h-239z"/>
<glyph unicode="þ" horiz-adv-x="1214" d="M162 -414v1919h235v-602q24 48 67 84t104.5 55t125.5 19q142 0 238.5 -77t132 -200t35.5 -249q0 -130 -29.5 -233.5t-87 -175.5t-141.5 -110.5t-193 -38.5q-86 0 -147 23t-99 55v-469h-241zM598 172q79 0 135.5 39t82.5 124.5t26 194.5q0 75 -12 136t-37.5 104t-66 66.5 t-97.5 23.5q-76 0 -131 -53.5t-75 -135.5t-20 -163v-252q39 -38 87.5 -61t107.5 -23z"/>
<glyph unicode="ÿ" horiz-adv-x="1075" d="M172 -434q-77 0 -129.5 14t-75.5 27l47 176q17 -6 50.5 -14.5t76.5 -8.5q66 0 113.5 31.5t80 82.5t54.5 99l49 109q-93 163 -182.5 358.5t-146 338.5t-97.5 261h258q35 -115 88.5 -254.5t107.5 -258.5t99 -210q78 193 139 377.5t103 345.5h254q-112 -355 -218 -625 t-184 -429q-47 -96 -92 -173.5t-100.5 -132.5t-126.5 -84.5t-168 -29.5zM342 1157q-30 0 -55 9.5t-43.5 26t-28.5 39.5t-10 50q0 39 21 71t52.5 45t61.5 13q62 0 100.5 -36.5t38.5 -92.5q0 -39 -23 -71.5t-53 -43t-61 -10.5zM748 1157q-30 0 -55 9.5t-43.5 26t-28.5 39.5 t-10 50q0 39 21 71t53 45t61 13q62 0 100.5 -36.5t38.5 -92.5q0 -39 -23 -71.5t-53.5 -43t-60.5 -10.5z"/>
<glyph unicode="Ā" horiz-adv-x="1284" d="M14 0q53 195 110 381.5t129.5 391.5t142 369.5t128.5 280.5h236q48 -96 97 -209t96 -235t91.5 -250.5t85 -254.5t76 -246.5t64.5 -227.5h-256q-20 75 -42 159.5t-48 178.5h-576q-12 -44 -90 -338h-244zM410 535h452q-117 358 -227 643q-152 -412 -225 -643zM283 1581v174 h688v-172z"/>
<glyph unicode="ā" horiz-adv-x="1087" d="M412 -20q-65 0 -123.5 17t-102.5 54.5t-70 97t-26 144.5q0 127 60 206t169 119q56 20 121.5 30t143.5 14q8 0 23 0.5t31 0.5q17 0 32.5 0.5t23.5 0.5v47q0 69 -27.5 107.5t-80.5 52.5t-117 14q-75 0 -147.5 -16t-149.5 -44v189q98 25 172.5 36t173.5 11q106 0 184 -20 t129 -62.5t76 -108.5t25 -159v-711h-227l-7 82q-29 -28 -76.5 -53t-103 -37t-106.5 -12zM479 160q34 0 66 6.5t60 18t51 26t38 29.5v256h-59q-163 0 -235 -45t-72 -142q0 -29 7.5 -55.5t25 -47.5t46.5 -33.5t72 -12.5zM217 1194v174h688v-172z"/>
<glyph unicode="Ă" horiz-adv-x="1284" d="M14 0q53 195 110 381.5t129.5 391.5t142 369.5t128.5 280.5h236q48 -96 97 -209t96 -235t91.5 -250.5t85 -254.5t76 -246.5t64.5 -227.5h-256q-20 75 -42 159.5t-48 178.5h-576q-12 -44 -90 -338h-244zM410 535h452q-117 358 -227 643q-152 -412 -225 -643zM637 1544 q-80 0 -135 20.5t-90.5 55t-52.5 80t-21 94.5h164q9 -48 40.5 -76t94.5 -28q62 0 93.5 27t39.5 77h166q-7 -85 -47 -143.5t-106 -82.5t-146 -24z"/>
<glyph unicode="ă" horiz-adv-x="1087" d="M412 -20q-65 0 -123.5 17t-102.5 54.5t-70 97t-26 144.5q0 127 60 206t169 119q56 20 121.5 30t143.5 14q8 0 23 0.5t31 0.5q17 0 32.5 0.5t23.5 0.5v47q0 69 -27.5 107.5t-80.5 52.5t-117 14q-75 0 -147.5 -16t-149.5 -44v189q98 25 172.5 36t173.5 11q106 0 184 -20 t129 -62.5t76 -108.5t25 -159v-711h-227l-7 82q-29 -28 -76.5 -53t-103 -37t-106.5 -12zM479 160q34 0 66 6.5t60 18t51 26t38 29.5v256h-59q-163 0 -235 -45t-72 -142q0 -29 7.5 -55.5t25 -47.5t46.5 -33.5t72 -12.5zM565 1157q-80 0 -135 20.5t-90.5 55t-52.5 80t-21 94.5 h164q9 -48 40.5 -76t94.5 -28q62 0 93.5 27t39.5 77h166q-7 -85 -47 -143.5t-106 -82.5t-146 -24z"/>
<glyph unicode="Ą" horiz-adv-x="1284" d="M14 0q53 195 110 381.5t129.5 391.5t142 369.5t128.5 280.5h236q48 -96 97 -209t96 -235t91.5 -250.5t85 -254.5t76 -246.5t64.5 -227.5h-256q-20 75 -42 159.5t-48 178.5h-576q-12 -44 -90 -338h-244zM410 535h452q-117 358 -227 643q-152 -412 -225 -643zM1087 -414 q-93 0 -149.5 31t-73 72t-16.5 75q0 49 15.5 87.5t42 67t61.5 48.5t73 33h226q-58 -17 -100 -39.5t-69 -47t-40 -51t-13 -50.5q0 -32 17 -51t37.5 -24t38.5 -5q29 0 58 5.5t54 14.5l41 -127q-38 -15 -89 -27t-114 -12z"/>
<glyph unicode="ą" horiz-adv-x="1087" d="M412 -20q-65 0 -123.5 17t-102.5 54.5t-70 97t-26 144.5q0 127 60 206t169 119q56 20 121.5 30t143.5 14q8 0 23 0.5t31 0.5q17 0 32.5 0.5t23.5 0.5v47q0 69 -27.5 107.5t-80.5 52.5t-117 14q-75 0 -147.5 -16t-149.5 -44v189q98 25 172.5 36t173.5 11q106 0 184 -20 t129 -62.5t76 -108.5t25 -159v-711h-227l-7 82q-29 -28 -76.5 -53t-103 -37t-106.5 -12zM479 160q34 0 66 6.5t60 18t51 26t38 29.5v256h-59q-163 0 -235 -45t-72 -142q0 -29 7.5 -55.5t25 -47.5t46.5 -33.5t72 -12.5zM751 -414q-93 0 -149.5 31t-73 72t-16.5 75 q0 49 15.5 87.5t42 67t61.5 48.5t73 33h226q-58 -17 -100 -39.5t-69 -47t-40 -51t-13 -50.5q0 -32 17 -51t37.5 -24t38.5 -5q29 0 58 5.5t54 14.5l41 -127q-38 -15 -89 -27t-114 -12z"/>
<glyph unicode="Ć" horiz-adv-x="1202" d="M768 -20q-159 0 -279.5 49.5t-202 143t-122.5 229t-41 307.5t43 308.5t125.5 231.5t203.5 145t277 50q106 0 202.5 -19.5t137.5 -40.5v-219q-61 25 -97 37t-97 22.5t-115 10.5q-97 0 -168 -28t-121 -79q-69 -71 -98 -178.5t-29 -244.5q0 -133 27.5 -229.5t80 -158.5 t128 -92t170.5 -30q96 0 168.5 15t132.5 40l73 -189q-77 -35 -179 -58t-220 -23zM607 1528l180 282h287l-228 -282h-239z"/>
<glyph unicode="ć" horiz-adv-x="969" d="M614 -16q-120 0 -212.5 37t-156.5 106t-97 168t-33 223t34 223.5t98.5 169.5t159 108t216.5 38q80 0 156 -13.5t106 -23.5v-193q-48 13 -108 23t-103 10q-148 0 -225.5 -80t-77.5 -260q0 -171 70.5 -254.5t207.5 -83.5q71 0 126 11t95 26l56 -182q-60 -22 -136.5 -37.5 t-175.5 -15.5zM459 1141l180 282h287l-228 -282h-239z"/>
<glyph unicode="Ĉ" horiz-adv-x="1202" d="M768 -20q-159 0 -279.5 49.5t-202 143t-122.5 229t-41 307.5t43 308.5t125.5 231.5t203.5 145t277 50q106 0 202.5 -19.5t137.5 -40.5v-219q-61 25 -97 37t-97 22.5t-115 10.5q-97 0 -168 -28t-121 -79q-69 -71 -98 -178.5t-29 -244.5q0 -133 27.5 -229.5t80 -158.5 t128 -92t170.5 -30q96 0 168.5 15t132.5 40l73 -189q-77 -35 -179 -58t-220 -23zM391 1528l252 282h208l252 -282h-235l-125 145l-123 -145h-229z"/>
<glyph unicode="ĉ" horiz-adv-x="969" d="M614 -16q-120 0 -212.5 37t-156.5 106t-97 168t-33 223t34 223.5t98.5 169.5t159 108t216.5 38q80 0 156 -13.5t106 -23.5v-193q-48 13 -108 23t-103 10q-148 0 -225.5 -80t-77.5 -260q0 -171 70.5 -254.5t207.5 -83.5q71 0 126 11t95 26l56 -182q-60 -22 -136.5 -37.5 t-175.5 -15.5zM240 1141l252 282h208l252 -282h-235l-125 145l-123 -145h-229z"/>
<glyph unicode="Č" horiz-adv-x="1202" d="M768 -20q-159 0 -279.5 49.5t-202 143t-122.5 229t-41 307.5t43 308.5t125.5 231.5t203.5 145t277 50q106 0 202.5 -19.5t137.5 -40.5v-219q-61 25 -97 37t-97 22.5t-115 10.5q-97 0 -168 -28t-121 -79q-69 -71 -98 -178.5t-29 -244.5q0 -133 27.5 -229.5t80 -158.5 t128 -92t170.5 -30q96 0 168.5 15t132.5 40l73 -189q-77 -35 -179 -58t-220 -23zM670 1528l-252 282h237l123 -145l123 145h229l-252 -282h-208z"/>
<glyph unicode="č" horiz-adv-x="969" d="M614 -16q-120 0 -212.5 37t-156.5 106t-97 168t-33 223t34 223.5t98.5 169.5t159 108t216.5 38q80 0 156 -13.5t106 -23.5v-193q-48 13 -108 23t-103 10q-148 0 -225.5 -80t-77.5 -260q0 -171 70.5 -254.5t207.5 -83.5q71 0 126 11t95 26l56 -182q-60 -22 -136.5 -37.5 t-175.5 -15.5zM523 1141l-252 282h237l123 -145l123 145h229l-252 -282h-208z"/>
<glyph unicode="Ď" horiz-adv-x="1405" d="M182 0v1423h439q156 0 278.5 -44.5t207.5 -133.5t130 -222.5t45 -311.5q0 -177 -45 -310.5t-130 -222.5t-207.5 -133.5t-276.5 -44.5h-441zM432 203h191q90 0 163 30t124 92.5t78.5 158t27.5 227.5q0 191 -58.5 310.5t-151 159.5t-181.5 40h-193v-1018zM566 1528 l-252 282h237l123 -145l123 145h229l-252 -282h-208z"/>
<glyph unicode="ď" horiz-adv-x="1210" d="M530 -20q-89 0 -165 30.5t-131.5 95t-87 164.5t-31.5 240q0 135 34 238t92.5 172.5t137.5 105t168 35.5t155.5 -26.5t104.5 -63.5v534h242v-1505h-230l-6 109q-51 -65 -118.5 -97t-164.5 -32zM586 172q103 0 162 75t59 224v307q-55 49 -102 65.5t-93 16.5q-51 0 -95 -22 t-76 -65.5t-50 -108.5t-18 -152q0 -75 10.5 -137.5t35 -107.5t65.5 -70t102 -25zM1180 1141v364h234l-39 -364h-195z"/>
<glyph unicode="Đ" horiz-adv-x="1405" d="M184 0v649h-129v166h127v608h439q156 0 278.5 -44.5t207.5 -133.5t130 -222.5t45 -311.5q0 -177 -45 -310.5t-130 -222.5t-207.5 -133.5t-276.5 -44.5h-439zM430 203h193q90 0 163 30t124 92.5t78.5 158t27.5 227.5q0 191 -58.5 310.5t-151 159.5t-181.5 40h-195v-406 h244v-166h-244v-446z"/>
<glyph unicode="đ" horiz-adv-x="1210" d="M530 -20q-89 0 -165 30.5t-131.5 95t-87 164.5t-31.5 240q0 135 34 238t92.5 172.5t137.5 105t168 35.5t155.5 -26.5t104.5 -63.5v223h-299v172h299v139h242v-139h145v-172h-145v-1194h-230l-6 109q-51 -65 -118.5 -97t-164.5 -32zM586 172q103 0 162 75t59 224v307 q-55 49 -102 65.5t-93 16.5q-51 0 -95 -22t-76 -65.5t-50 -108.5t-18 -152q0 -75 10.5 -137.5t35 -107.5t65.5 -70t102 -25z"/>
<glyph unicode="Ē" horiz-adv-x="1155" d="M182 0v1423h854v-202h-604v-363h516v-203h-516v-452h639v-203h-889zM281 1581v174h688v-172z"/>
<glyph unicode="ē" horiz-adv-x="1122" d="M623 -25q-121 0 -215.5 38.5t-159.5 110t-99 171.5t-34 223q0 120 30.5 220.5t90 173t148 113t204.5 40.5q213 0 321.5 -126.5t108.5 -367.5q0 -75 -4 -125h-645q13 -140 84 -211t213 -71q64 0 129.5 9.5t115.5 25.5l47 -181q-75 -21 -155 -32t-180 -11zM362 612h410v39 q0 119 -47 180.5t-143 61.5q-50 0 -89.5 -19.5t-67.5 -56t-44 -88.5t-19 -117zM254 1194v174h688v-172z"/>
<glyph unicode="Ė" horiz-adv-x="1155" d="M182 0v1423h854v-202h-604v-363h516v-203h-516v-452h639v-203h-889zM639 1538q-46 0 -80.5 21.5t-47.5 51t-13 58.5q0 42 21.5 74.5t54 46.5t63.5 14q46 0 80 -21t48.5 -53.5t14.5 -60.5q0 -40 -21.5 -72.5t-55 -45.5t-64.5 -13z"/>
<glyph unicode="ė" horiz-adv-x="1122" d="M623 -25q-121 0 -215.5 38.5t-159.5 110t-99 171.5t-34 223q0 120 30.5 220.5t90 173t148 113t204.5 40.5q213 0 321.5 -126.5t108.5 -367.5q0 -75 -4 -125h-645q13 -140 84 -211t213 -71q64 0 129.5 9.5t115.5 25.5l47 -181q-75 -21 -155 -32t-180 -11zM362 612h410v39 q0 119 -47 180.5t-143 61.5q-50 0 -89.5 -19.5t-67.5 -56t-44 -88.5t-19 -117zM616 1151q-46 0 -80.5 21.5t-47.5 51t-13 58.5q0 42 21.5 74.5t54 46.5t63.5 14q46 0 80 -21t48.5 -53.5t14.5 -60.5q0 -40 -21.5 -72.5t-55 -45.5t-64.5 -13z"/>
<glyph unicode="Ę" horiz-adv-x="1155" d="M182 0v1423h854v-202h-604v-363h516v-203h-516v-452h639v-203h-889zM886 -414q-93 0 -149.5 31t-73 72t-16.5 75q0 49 15.5 87.5t42 67t61.5 48.5t73 33h226q-58 -17 -100 -39.5t-69 -47t-40 -51t-13 -50.5q0 -32 17 -51t37.5 -24t38.5 -5q29 0 58 5.5t54 14.5l41 -127 q-38 -15 -89 -27t-114 -12z"/>
<glyph unicode="ę" horiz-adv-x="1122" d="M580 -414q-94 0 -150.5 31t-73 72t-16.5 75q0 44 12.5 79t34.5 62.5t51 47.5t62 35q-92 18 -164 63.5t-121 114t-74.5 157.5t-25.5 195q0 120 30.5 220.5t90 173t148 113t204.5 40.5q213 0 321.5 -126.5t108.5 -367.5q0 -75 -4 -125h-645q13 -140 84 -211t213 -71 q64 0 129.5 9.5t115.5 25.5l47 -181q-61 -17 -125.5 -27t-140.5 -14q-80 -35 -117.5 -79t-37.5 -86q0 -32 17 -51t37.5 -24t37.5 -5q29 0 58.5 5.5t53.5 14.5l41 -127q-38 -15 -88.5 -27t-113.5 -12zM362 612h410v39q0 119 -47 180.5t-143 61.5q-50 0 -89.5 -19.5t-67.5 -56 t-44 -88.5t-19 -117z"/>
<glyph unicode="Ě" horiz-adv-x="1155" d="M182 0v1423h854v-202h-604v-363h516v-203h-516v-452h639v-203h-889zM543 1528l-252 282h237l123 -145l123 145h229l-252 -282h-208z"/>
<glyph unicode="ě" horiz-adv-x="1122" d="M623 -25q-121 0 -215.5 38.5t-159.5 110t-99 171.5t-34 223q0 120 30.5 220.5t90 173t148 113t204.5 40.5q213 0 321.5 -126.5t108.5 -367.5q0 -75 -4 -125h-645q13 -140 84 -211t213 -71q64 0 129.5 9.5t115.5 25.5l47 -181q-75 -21 -155 -32t-180 -11zM362 612h410v39 q0 119 -47 180.5t-143 61.5q-50 0 -89.5 -19.5t-67.5 -56t-44 -88.5t-19 -117zM506 1141l-252 282h237l123 -145l123 145h229l-252 -282h-208z"/>
<glyph unicode="Ğ" horiz-adv-x="1346" d="M813 -18q-343 0 -516.5 187.5t-173.5 543.5q0 167 44.5 303t130 232t210 148t285.5 52q108 0 198 -17.5t164 -41.5v-220q-24 9 -59 21.5t-78.5 23t-95 18t-107.5 7.5q-206 0 -317 -130t-111 -398t110 -393t328 -125q78 0 140 6v393h-234v209h475v-801q-213 -18 -393 -18z M776 1544q-80 0 -135 20.5t-90.5 55t-52.5 80t-21 94.5h164q9 -48 40.5 -76t94.5 -28q62 0 93.5 27t39.5 77h166q-7 -85 -47 -143.5t-106 -82.5t-146 -24z"/>
<glyph unicode="ğ" horiz-adv-x="1210" d="M569 -434q-130 0 -214.5 14t-125.5 27l37 174q139 -33 250 -33q114 0 180.5 32.5t88.5 94t22 127.5v125q-48 -62 -115.5 -94.5t-161.5 -32.5q-89 0 -165 29t-131.5 91.5t-87 161.5t-31.5 240q0 190 70.5 319t167.5 174.5t184 45.5q75 0 132.5 -17t91 -42.5t52.5 -45.5 l6 84h230v-1020q0 -121 -29.5 -201t-83.5 -134q-63 -62 -155.5 -90.5t-211.5 -28.5zM590 193q72 0 124.5 43t72.5 109.5t20 135.5v297q-55 49 -102 65.5t-93 16.5q-51 0 -95 -21.5t-76 -64.5t-50 -106t-18 -146q0 -69 10.5 -129t35 -104.5t66.5 -70t105 -25.5zM633 1157 q-80 0 -135 20.5t-90.5 55t-52.5 80t-21 94.5h164q9 -48 40.5 -76t94.5 -28q62 0 93.5 27t39.5 77h166q-7 -85 -47 -143.5t-106 -82.5t-146 -24z"/>
<glyph unicode="Ģ" horiz-adv-x="1346" d="M813 -18q-343 0 -516.5 187.5t-173.5 543.5q0 167 44.5 303t130 232t210 148t285.5 52q108 0 198 -17.5t164 -41.5v-220q-24 9 -59 21.5t-78.5 23t-95 18t-107.5 7.5q-206 0 -317 -130t-111 -398t110 -393t328 -125q78 0 140 6v393h-234v209h475v-801q-213 -18 -393 -18z M424 -375l178 273h286l-221 -273h-243z"/>
<glyph unicode="ģ" horiz-adv-x="1210" d="M569 -434q-130 0 -214.5 14t-125.5 27l37 174q139 -33 250 -33q114 0 180.5 32.5t88.5 94t22 127.5v125q-48 -62 -115.5 -94.5t-161.5 -32.5q-89 0 -165 29t-131.5 91.5t-87 161.5t-31.5 240q0 190 70.5 319t167.5 174.5t184 45.5q75 0 132.5 -17t91 -42.5t52.5 -45.5 l6 84h230v-1020q0 -121 -29.5 -201t-83.5 -134q-63 -62 -155.5 -90.5t-211.5 -28.5zM590 193q72 0 124.5 43t72.5 109.5t20 135.5v297q-55 49 -102 65.5t-93 16.5q-51 0 -95 -21.5t-76 -64.5t-50 -106t-18 -146q0 -69 10.5 -129t35 -104.5t66.5 -70t105 -25.5zM519 1145 l178 273h286l-221 -273h-243z"/>
<glyph unicode="Ī" horiz-adv-x="614" d="M182 0v1423h250v-1423h-250zM-38 1581v174h688v-172z"/>
<glyph unicode="ī" horiz-adv-x="606" d="M186 0v868q-71 12 -133 17v155h375v-1040h-242zM-40 1194v174h688v-172z"/>
<glyph unicode="Į" horiz-adv-x="614" d="M182 0v1423h250v-1423h-250zM242 -414q-93 0 -149.5 31t-73 72t-16.5 75q0 49 15.5 87.5t42 67t61.5 48.5t73 33h226q-58 -17 -100 -39.5t-69 -47t-40 -51t-13 -50.5q0 -32 17 -51t37.5 -24t38.5 -5q29 0 58 5.5t54 14.5l41 -127q-38 -15 -89 -27t-114 -12z"/>
<glyph unicode="į" horiz-adv-x="606" d="M186 0v868q-71 12 -133 17v155h375v-1040h-242zM283 1227q-47 0 -85.5 24t-52.5 55t-14 60q0 42 24 77t59 49.5t67 14.5q44 0 82.5 -23t53.5 -55.5t15 -62.5q0 -42 -26 -77t-59.5 -48.5t-63.5 -13.5zM238 -414q-93 0 -149.5 31t-73 72t-16.5 75q0 49 15.5 87.5t42 67 t61.5 48.5t73 33h226q-58 -17 -100 -39.5t-69 -47t-40 -51t-13 -50.5q0 -32 17 -51t37.5 -24t38.5 -5q29 0 58 5.5t54 14.5l41 -127q-38 -15 -89 -27t-114 -12z"/>
<glyph unicode="İ" horiz-adv-x="614" d="M182 0v1423h250v-1423h-250zM308 1538q-46 0 -80.5 21.5t-47.5 51t-13 58.5q0 42 21.5 74.5t54 46.5t63.5 14q46 0 80 -21t48.5 -53.5t14.5 -60.5q0 -40 -21.5 -72.5t-55 -45.5t-64.5 -13z"/>
<glyph unicode="ı" horiz-adv-x="606" d="M186 0v868q-71 12 -133 17v155h375v-1040h-242z"/>
<glyph unicode="Ķ" horiz-adv-x="1305" d="M182 0v1423h250v-573l504 573h303l-588 -649q122 -104 247.5 -246t228.5 -285.5t165 -242.5h-305q-51 79 -113.5 163.5t-133.5 169t-149 168t-159 161.5v-662h-250zM390 -375l178 273h286l-221 -273h-243z"/>
<glyph unicode="ķ" horiz-adv-x="1092" d="M162 0v1505h241v-862l357 397h291l-420 -450q113 -109 235.5 -273t223.5 -317h-299q-78 116 -181.5 250.5t-206.5 251.5v-502h-241zM314 -375l178 273h286l-221 -273h-243z"/>
<glyph unicode="Ĺ" horiz-adv-x="1051" d="M182 0v1423h250v-1220h586v-203h-836zM195 1528l180 282h287l-228 -282h-239z"/>
<glyph unicode="ĺ" horiz-adv-x="578" d="M174 0v1335q-12 1 -28.5 3.5t-35 4.5t-36.5 4t-33 3v155h375v-1505h-242zM133 1610l180 282h287l-228 -282h-239z"/>
<glyph unicode="Ļ" horiz-adv-x="1051" d="M182 0v1423h250v-1220h586v-203h-836zM322 -375l178 273h286l-221 -273h-243z"/>
<glyph unicode="ļ" horiz-adv-x="578" d="M174 0v1335q-12 1 -28.5 3.5t-35 4.5t-36.5 4t-33 3v155h375v-1505h-242zM-23 -375l178 273h286l-221 -273h-243z"/>
<glyph unicode="Ľ" horiz-adv-x="1051" d="M182 0v1423h250v-1220h586v-203h-836zM623 1141v364h234l-39 -364h-195z"/>
<glyph unicode="ľ" horiz-adv-x="578" d="M174 0v1335q-12 1 -28.5 3.5t-35 4.5t-36.5 4t-33 3v155h375v-1505h-242zM522 1141v364h234l-39 -364h-195z"/>
<glyph unicode="Ł" horiz-adv-x="1051" d="M184 0v506l-147 -119v209l145 119v708h248v-510l195 156v-211l-195 -156v-499h588v-203h-834z"/>
<glyph unicode="ł" horiz-adv-x="578" d="M174 0v594l-129 -102v190l129 104v549q-12 1 -28.5 3.5t-35 4.5t-36.5 4t-33 3v155h373v-528l137 108v-194l-135 -109v-782h-242z"/>
<glyph unicode="Ń" horiz-adv-x="1417" d="M182 0v1423h230q37 -51 83.5 -117.5t97 -144t104 -163t106 -172.5t101 -173.5t89.5 -165.5v936h242v-1423h-219q-140 272 -286.5 536.5t-305.5 516.5v-1053h-242zM590 1528l180 282h287l-228 -282h-239z"/>
<glyph unicode="ń" horiz-adv-x="1208" d="M162 0v1040h229l6 -133q34 52 87.5 88t113.5 51t113 15q122 0 202.5 -51t110 -131t29.5 -160v-719h-242v655q0 107 -45.5 155t-130.5 48q-48 0 -90 -20.5t-73.5 -55.5t-50 -81.5t-18.5 -98.5v-602h-241zM506 1141l180 282h287l-228 -282h-239z"/>
<glyph unicode="Ņ" horiz-adv-x="1417" d="M182 0v1423h230q37 -51 83.5 -117.5t97 -144t104 -163t106 -172.5t101 -173.5t89.5 -165.5v936h242v-1423h-219q-140 272 -286.5 536.5t-305.5 516.5v-1053h-242zM424 -375l178 273h286l-221 -273h-243z"/>
<glyph unicode="ņ" horiz-adv-x="1208" d="M162 0v1040h229l6 -133q34 52 87.5 88t113.5 51t113 15q122 0 202.5 -51t110 -131t29.5 -160v-719h-242v655q0 107 -45.5 155t-130.5 48q-48 0 -90 -20.5t-73.5 -55.5t-50 -81.5t-18.5 -98.5v-602h-241zM304 -375l178 273h286l-221 -273h-243z"/>
<glyph unicode="Ň" horiz-adv-x="1417" d="M182 0v1423h230q37 -51 83.5 -117.5t97 -144t104 -163t106 -172.5t101 -173.5t89.5 -165.5v936h242v-1423h-219q-140 272 -286.5 536.5t-305.5 516.5v-1053h-242zM627 1528l-252 282h237l123 -145l123 145h229l-252 -282h-208z"/>
<glyph unicode="ň" horiz-adv-x="1208" d="M162 0v1040h229l6 -133q34 52 87.5 88t113.5 51t113 15q122 0 202.5 -51t110 -131t29.5 -160v-719h-242v655q0 107 -45.5 155t-130.5 48q-48 0 -90 -20.5t-73.5 -55.5t-50 -81.5t-18.5 -98.5v-602h-241zM508 1141l-252 282h237l123 -145l123 145h229l-252 -282h-208z"/>
<glyph unicode="Ō" horiz-adv-x="1458" d="M729 -29q-140 0 -252 50t-191 145t-121 232.5t-42 312.5t42 312.5t120.5 233t190.5 145.5t251 50q140 0 252.5 -50t191.5 -145.5t121.5 -233t42.5 -312.5t-42.5 -312.5t-121.5 -232.5t-191 -145t-251 -50zM727 172q80 0 143.5 34t108 101.5t68.5 168.5t24 235 q0 201 -51.5 327t-131.5 169.5t-159 43.5q-80 0 -143.5 -33.5t-107.5 -101t-67.5 -168.5t-23.5 -237q0 -268 90 -403.5t250 -135.5zM401 1581v174h688v-172z"/>
<glyph unicode="ō" horiz-adv-x="1200" d="M600 -25q-116 0 -206 42t-152 115.5t-94.5 173t-32.5 214.5q0 119 31 219t92 172.5t151.5 113t210.5 40.5t211 -40t151.5 -112.5t91.5 -172.5t31 -220q0 -114 -32 -213.5t-94 -173t-152 -116t-207 -42.5zM600 162q87 0 141.5 56t71 139.5t16.5 162.5q0 122 -29.5 206 t-84 118.5t-115.5 34.5q-88 0 -142 -56t-70.5 -140.5t-16.5 -162.5t12.5 -144t40.5 -113.5t71 -74t105 -26.5zM270 1194v174h688v-172z"/>
<glyph unicode="Ő" horiz-adv-x="1442" d="M729 -29q-140 0 -252 50t-191 145t-121 232.5t-42 312.5t42 312.5t120.5 233t190.5 145.5t251 50q140 0 252.5 -50t191.5 -145.5t121.5 -233t42.5 -312.5t-42.5 -312.5t-121.5 -232.5t-191 -145t-251 -50zM727 172q80 0 143.5 34t108 101.5t68.5 168.5t24 235 q0 201 -51.5 327t-131.5 169.5t-159 43.5q-80 0 -143.5 -33.5t-107.5 -101t-67.5 -168.5t-23.5 -237q0 -268 90 -403.5t250 -135.5zM435 1528l153 282h258l-196 -282h-215zM832 1528l155 282h259l-199 -282h-215z"/>
<glyph unicode="ő" horiz-adv-x="1200" d="M600 -25q-116 0 -206 42t-152 115.5t-94.5 173t-32.5 214.5q0 119 31 219t92 172.5t151.5 113t210.5 40.5t211 -40t151.5 -112.5t91.5 -172.5t31 -220q0 -114 -32 -213.5t-94 -173t-152 -116t-207 -42.5zM600 162q87 0 141.5 56t71 139.5t16.5 162.5q0 122 -29.5 206 t-84 118.5t-115.5 34.5q-88 0 -142 -56t-70.5 -140.5t-16.5 -162.5t12.5 -144t40.5 -113.5t71 -74t105 -26.5zM299 1141l153 282h258l-196 -282h-215zM696 1141l155 282h259l-199 -282h-215z"/>
<glyph unicode="Œ" horiz-adv-x="2044" d="M709 -29q-132 0 -240.5 49.5t-185 144.5t-118.5 232.5t-42 313.5t42 313.5t119 232.5t185.5 145t241.5 50q91 0 166.5 -22.5t124.5 -62.5t73 -81v137h850v-202h-610v-363h522v-203h-522v-452h645v-203h-883v137q-60 -78 -156.5 -122t-211.5 -44zM729 172q80 0 143.5 34 t107.5 101.5t67.5 168.5t23.5 235q0 201 -51.5 327t-131.5 169.5t-159 43.5t-142.5 -33.5t-107.5 -101t-68 -168.5t-24 -237q0 -134 23.5 -235t67.5 -168.5t107.5 -101.5t143.5 -34z"/>
<glyph unicode="œ" horiz-adv-x="1823" d="M582 -25q-109 0 -195.5 40.5t-147 112.5t-92.5 170.5t-32 213.5q0 122 31 224t91 175t149 113.5t206 40.5q121 0 208.5 -41t149.5 -129q59 88 144.5 129t205.5 41q204 0 311 -126.5t107 -367.5q0 -34 -1 -67t-1 -58h-647q12 -140 83.5 -211t205.5 -71q73 0 138.5 9.5 t115.5 25.5l47 -181q-74 -21 -154 -32t-182 -11q-121 0 -215.5 42.5t-157.5 136.5q-51 -79 -144.5 -129t-223.5 -50zM600 162q87 0 141.5 56t71 139.5t16.5 162.5q0 122 -29.5 206t-84 118.5t-115.5 34.5q-88 0 -142 -56t-70.5 -140.5t-16.5 -162.5t12.5 -144t40.5 -113.5 t71 -74t105 -26.5zM1063 612h410v39q0 119 -47.5 180.5t-141.5 61.5q-102 0 -157 -72t-64 -209z"/>
<glyph unicode="Ŕ" horiz-adv-x="1339" d="M182 0v1423h430q121 0 214 -26.5t156.5 -77.5t96.5 -125.5t33 -171.5q0 -86 -30 -164t-81.5 -128.5t-111.5 -82.5q111 -127 209 -289.5t188 -357.5h-282q-34 66 -77.5 144t-91.5 156t-99 149.5t-99 123.5h-211v-573h-244zM426 772h137q113 0 180 38t87 92.5t20 105.5 q0 86 -34.5 135t-98 65.5t-137.5 16.5h-154v-453zM488 1528l180 282h287l-228 -282h-239z"/>
<glyph unicode="ŕ" horiz-adv-x="791" d="M162 0v1040h229l6 -192q47 94 119.5 148.5t165.5 54.5q45 0 86 -11v-223q-48 8 -90 8q-94 0 -162.5 -53t-90.5 -117.5t-22 -111.5v-543h-241zM345 1141l180 282h287l-228 -282h-239z"/>
<glyph unicode="Ŗ" horiz-adv-x="1339" d="M182 0v1423h430q121 0 214 -26.5t156.5 -77.5t96.5 -125.5t33 -171.5q0 -86 -30 -164t-81.5 -128.5t-111.5 -82.5q111 -127 209 -289.5t188 -357.5h-282q-34 66 -77.5 144t-91.5 156t-99 149.5t-99 123.5h-211v-573h-244zM426 772h137q113 0 180 38t87 92.5t20 105.5 q0 86 -34.5 135t-98 65.5t-137.5 16.5h-154v-453zM388 -375l178 273h286l-221 -273h-243z"/>
<glyph unicode="ŗ" horiz-adv-x="791" d="M162 0v1040h229l6 -192q47 94 119.5 148.5t165.5 54.5q45 0 86 -11v-223q-48 8 -90 8q-94 0 -162.5 -53t-90.5 -117.5t-22 -111.5v-543h-241zM-25 -375l178 273h286l-221 -273h-243z"/>
<glyph unicode="Ř" horiz-adv-x="1339" d="M182 0v1423h430q121 0 214 -26.5t156.5 -77.5t96.5 -125.5t33 -171.5q0 -86 -30 -164t-81.5 -128.5t-111.5 -82.5q111 -127 209 -289.5t188 -357.5h-282q-34 66 -77.5 144t-91.5 156t-99 149.5t-99 123.5h-211v-573h-244zM426 772h137q113 0 180 38t87 92.5t20 105.5 q0 86 -34.5 135t-98 65.5t-137.5 16.5h-154v-453zM527 1528l-252 282h237l123 -145l123 145h229l-252 -282h-208z"/>
<glyph unicode="ř" horiz-adv-x="791" d="M162 0v1040h229l6 -192q47 94 119.5 148.5t165.5 54.5q45 0 86 -11v-223q-48 8 -90 8q-94 0 -162.5 -53t-90.5 -117.5t-22 -111.5v-543h-241zM351 1141l-252 282h237l123 -145l123 145h229l-252 -282h-208z"/>
<glyph unicode="Ś" horiz-adv-x="1135" d="M522 -25q-124 0 -235.5 21t-163.5 40t-68 27l64 203q63 -34 174.5 -59t195.5 -25q123 0 192.5 33t87 83t17.5 93q0 126 -325 254q-36 14 -77 30.5t-81.5 38.5t-78 51.5t-66 69t-45.5 91t-17 118.5q0 94 36 168.5t102 127t159.5 80.5t208.5 28q110 0 204 -16.5t161 -36.5 v-215q-59 19 -105 31t-121.5 23t-132.5 11q-134 0 -200 -49t-66 -139q0 -66 50.5 -109.5t126.5 -71.5t140 -51q72 -25 141.5 -56t125 -78.5t89.5 -118t34 -175.5q0 -101 -35 -179.5t-102.5 -132.5t-165.5 -82t-224 -28zM451 1528l180 282h287l-228 -282h-239z"/>
<glyph unicode="ś" horiz-adv-x="1004" d="M469 -20q-72 0 -133.5 7.5t-110.5 19t-85 24t-58 22.5l63 183q87 -37 157.5 -51.5t152.5 -14.5q115 0 163 30t48 87q0 35 -21.5 58t-58.5 40t-85 31.5t-100 32.5q-62 21 -114 45t-90 58t-59 81t-21 112q0 78 29.5 137.5t82.5 99t126.5 59.5t160.5 20q103 0 182.5 -11.5 t145.5 -31.5v-197q-75 25 -151 39t-163 14q-73 0 -113 -16.5t-51.5 -42t-11.5 -49.5q0 -70 250 -148q65 -20 121 -44t97 -60t64 -86.5t23 -122.5q0 -84 -32 -145t-90.5 -101t-139.5 -59.5t-178 -19.5zM400 1141l180 282h287l-228 -282h-239z"/>
<glyph unicode="Ş" horiz-adv-x="1135" d="M522 -25q-124 0 -235.5 21t-163.5 40t-68 27l64 203q63 -34 174.5 -59t195.5 -25q123 0 192.5 33t87 83t17.5 93q0 126 -325 254q-36 14 -77 30.5t-81.5 38.5t-78 51.5t-66 69t-45.5 91t-17 118.5q0 94 36 168.5t102 127t159.5 80.5t208.5 28q110 0 204 -16.5t161 -36.5 v-215q-59 19 -105 31t-121.5 23t-132.5 11q-134 0 -200 -49t-66 -139q0 -66 50.5 -109.5t126.5 -71.5t140 -51q72 -25 141.5 -56t125 -78.5t89.5 -118t34 -175.5q0 -101 -35 -179.5t-102.5 -132.5t-165.5 -82t-224 -28zM224 -375l178 273h286l-221 -273h-243z"/>
<glyph unicode="ş" horiz-adv-x="1004" d="M469 -20q-72 0 -133.5 7.5t-110.5 19t-85 24t-58 22.5l63 183q87 -37 157.5 -51.5t152.5 -14.5q115 0 163 30t48 87q0 35 -21.5 58t-58.5 40t-85 31.5t-100 32.5q-62 21 -114 45t-90 58t-59 81t-21 112q0 78 29.5 137.5t82.5 99t126.5 59.5t160.5 20q103 0 182.5 -11.5 t145.5 -31.5v-197q-75 25 -151 39t-163 14q-73 0 -113 -16.5t-51.5 -42t-11.5 -49.5q0 -70 250 -148q65 -20 121 -44t97 -60t64 -86.5t23 -122.5q0 -84 -32 -145t-90.5 -101t-139.5 -59.5t-178 -19.5zM173 -375l178 273h286l-221 -273h-243z"/>
<glyph unicode="Š" horiz-adv-x="1135" d="M522 -25q-124 0 -235.5 21t-163.5 40t-68 27l64 203q63 -34 174.5 -59t195.5 -25q123 0 192.5 33t87 83t17.5 93q0 126 -325 254q-36 14 -77 30.5t-81.5 38.5t-78 51.5t-66 69t-45.5 91t-17 118.5q0 94 36 168.5t102 127t159.5 80.5t208.5 28q110 0 204 -16.5t161 -36.5 v-215q-59 19 -105 31t-121.5 23t-132.5 11q-134 0 -200 -49t-66 -139q0 -66 50.5 -109.5t126.5 -71.5t140 -51q72 -25 141.5 -56t125 -78.5t89.5 -118t34 -175.5q0 -101 -35 -179.5t-102.5 -132.5t-165.5 -82t-224 -28zM463 1528l-252 282h237l123 -145l123 145h229 l-252 -282h-208z"/>
<glyph unicode="š" horiz-adv-x="1004" d="M469 -20q-72 0 -133.5 7.5t-110.5 19t-85 24t-58 22.5l63 183q87 -37 157.5 -51.5t152.5 -14.5q115 0 163 30t48 87q0 35 -21.5 58t-58.5 40t-85 31.5t-100 32.5q-62 21 -114 45t-90 58t-59 81t-21 112q0 78 29.5 137.5t82.5 99t126.5 59.5t160.5 20q103 0 182.5 -11.5 t145.5 -31.5v-197q-75 25 -151 39t-163 14q-73 0 -113 -16.5t-51.5 -42t-11.5 -49.5q0 -70 250 -148q65 -20 121 -44t97 -60t64 -86.5t23 -122.5q0 -84 -32 -145t-90.5 -101t-139.5 -59.5t-178 -19.5zM392 1141l-252 282h237l123 -145l123 145h229l-252 -282h-208z"/>
<glyph unicode="Ţ" horiz-adv-x="1112" d="M432 0v1214h-401v209h1050v-209h-399v-1214h-250zM238 -375l178 273h286l-221 -273h-243z"/>
<glyph unicode="ţ" horiz-adv-x="762" d="M496 -20q-81 0 -138.5 22t-94 63t-53.5 98.5t-17 129.5v559h-158v188h158v226q51 18 114.5 46t126.5 60v-332h266v-188h-266v-530q0 -82 30.5 -117t98.5 -35q40 0 81 6t63 14l43 -176q-59 -15 -122.5 -24.5t-131.5 -9.5zM178 -375l178 273h286l-221 -273h-243z"/>
<glyph unicode="Ť" horiz-adv-x="1112" d="M432 0v1214h-401v209h1050v-209h-399v-1214h-250zM471 1528l-252 282h237l123 -145l123 145h229l-252 -282h-208z"/>
<glyph unicode="ť" horiz-adv-x="762" d="M496 -20q-81 0 -138.5 22t-94 63t-53.5 98.5t-17 129.5v559h-158v188h158v226q51 18 114.5 46t126.5 60v-332h266v-188h-266v-530q0 -82 30.5 -117t98.5 -35q40 0 81 6t63 14l43 -176q-59 -15 -122.5 -24.5t-131.5 -9.5zM557 1141v364h234l-39 -364h-195z"/>
<glyph unicode="Ū" horiz-adv-x="1393" d="M696 -25q-114 0 -210 31.5t-166.5 95.5t-110 162t-39.5 230v929h250v-923q0 -84 21 -143t57.5 -96t87 -54t110.5 -17q96 0 160.5 39.5t90.5 112.5t26 158v923h250v-929q0 -132 -39.5 -229.5t-109.5 -162t-167 -96t-211 -31.5zM363 1581v174h688v-172z"/>
<glyph unicode="ū" horiz-adv-x="1208" d="M496 -20q-164 0 -252 85t-88 252v723h241v-667q0 -103 44 -147t130 -44q73 0 131 44t80.5 102t22.5 110v602h242v-1040h-230l-6 133q-43 -68 -125 -110.5t-190 -42.5zM256 1194v174h688v-172z"/>
<glyph unicode="Ů" horiz-adv-x="1393" d="M696 -25q-114 0 -210 31.5t-166.5 95.5t-110 162t-39.5 230v929h250v-923q0 -84 21 -143t57.5 -96t87 -54t110.5 -17q96 0 160.5 39.5t90.5 112.5t26 158v923h250v-929q0 -132 -39.5 -229.5t-109.5 -162t-167 -96t-211 -31.5zM709 1528q-48 0 -91 18.5t-75 50t-50.5 74 t-18.5 90.5q0 72 39 130t92.5 82t103.5 24q71 0 129.5 -40t82.5 -93t24 -101q0 -49 -18.5 -92t-50.5 -74.5t-75 -50t-92 -18.5zM709 1642q35 0 61.5 19t40 48t13.5 54q0 38 -20 66.5t-46 41.5t-49 13q-34 0 -63.5 -20.5t-40.5 -48t-11 -52.5t9.5 -47t25 -38.5t36.5 -26 t44 -9.5z"/>
<glyph unicode="ů" horiz-adv-x="1208" d="M496 -20q-164 0 -252 85t-88 252v723h241v-667q0 -103 44 -147t130 -44q73 0 131 44t80.5 102t22.5 110v602h242v-1040h-230l-6 133q-43 -68 -125 -110.5t-190 -42.5zM610 1141q-48 0 -91 18.5t-75 50t-50.5 74t-18.5 90.5q0 72 39 130t92.5 82t103.5 24q71 0 129.5 -40 t82.5 -93t24 -101q0 -49 -18.5 -92t-50.5 -74.5t-75 -50t-92 -18.5zM610 1255q35 0 61.5 19t40 48t13.5 54q0 38 -20 66.5t-46 41.5t-49 13q-34 0 -63.5 -20.5t-40.5 -48t-11 -52.5t9.5 -47t25 -38.5t36.5 -26t44 -9.5z"/>
<glyph unicode="Ű" horiz-adv-x="1393" d="M696 -25q-114 0 -210 31.5t-166.5 95.5t-110 162t-39.5 230v929h250v-923q0 -84 21 -143t57.5 -96t87 -54t110.5 -17q96 0 160.5 39.5t90.5 112.5t26 158v923h250v-929q0 -132 -39.5 -229.5t-109.5 -162t-167 -96t-211 -31.5zM392 1528l153 282h258l-196 -282h-215z M789 1528l155 282h259l-199 -282h-215z"/>
<glyph unicode="ű" horiz-adv-x="1208" d="M496 -20q-164 0 -252 85t-88 252v723h241v-667q0 -103 44 -147t130 -44q73 0 131 44t80.5 102t22.5 110v602h242v-1040h-230l-6 133q-43 -68 -125 -110.5t-190 -42.5zM293 1141l153 282h258l-196 -282h-215zM690 1141l155 282h259l-199 -282h-215z"/>
<glyph unicode="Ų" horiz-adv-x="1393" d="M668 -414q-94 0 -150.5 31t-73 72t-16.5 75q0 42 12 76.5t32.5 61.5t48 47t59.5 35q-91 15 -166.5 53.5t-129.5 101.5t-84 151.5t-30 203.5v929h250v-923q0 -84 20.5 -143t57 -96t86.5 -54t110 -17q61 0 112 16.5t88 53.5t58 96t21 144v923h250v-929q0 -118 -31.5 -208 t-88.5 -153.5t-136.5 -101t-175.5 -49.5q-87 -36 -126.5 -81.5t-39.5 -88.5q0 -32 17 -51t37.5 -24t37.5 -5q29 0 58.5 5.5t53.5 14.5l41 -127q-38 -15 -88.5 -27t-113.5 -12z"/>
<glyph unicode="ų" horiz-adv-x="1208" d="M496 -20q-164 0 -252 85t-88 252v723h241v-667q0 -103 44 -147t130 -44q73 0 131 44t80.5 102t22.5 110v602h242v-1040h-230l-6 133q-43 -68 -125 -110.5t-190 -42.5zM866 -414q-93 0 -149.5 31t-73 72t-16.5 75q0 49 15.5 87.5t42 67t61.5 48.5t73 33h226 q-58 -17 -100 -39.5t-69 -47t-40 -51t-13 -50.5q0 -32 17 -51t37.5 -24t38.5 -5q29 0 58 5.5t54 14.5l41 -127q-38 -15 -89 -27t-114 -12z"/>
<glyph unicode="Ÿ" horiz-adv-x="1253" d="M502 0v635q-57 75 -120.5 167t-127.5 194.5t-125.5 211t-114.5 215.5h262q57 -110 141.5 -255t213.5 -324q106 152 194.5 300.5t155.5 278.5h258q-99 -201 -232.5 -413.5t-254.5 -372.5v-637h-250zM434 1544q-30 0 -55 9.5t-43.5 26t-28.5 39.5t-10 50q0 39 21 71 t52.5 45t61.5 13q62 0 100.5 -36.5t38.5 -92.5q0 -39 -23 -71.5t-53 -43t-61 -10.5zM840 1544q-30 0 -55 9.5t-43.5 26t-28.5 39.5t-10 50q0 39 21 71t53 45t61 13q62 0 100.5 -36.5t38.5 -92.5q0 -39 -23 -71.5t-53.5 -43t-60.5 -10.5z"/>
<glyph unicode="Ź" horiz-adv-x="1139" d="M57 0v199q56 93 173 272.5t223 333.5q89 132 301 416h-670v202h965v-198q-61 -75 -157.5 -205t-219.5 -305q-93 -134 -179 -266t-157 -246h745v-203h-1024zM453 1528l180 282h287l-228 -282h-239z"/>
<glyph unicode="ź" horiz-adv-x="989" d="M68 0v184q53 81 288 379q99 122 248 289h-516v188h811v-184q-153 -169 -285 -324q-162 -192 -274 -344h580v-188h-852zM375 1141l180 282h287l-228 -282h-239z"/>
<glyph unicode="Ż" horiz-adv-x="1139" d="M57 0v199q56 93 173 272.5t223 333.5q89 132 301 416h-670v202h965v-198q-61 -75 -157.5 -205t-219.5 -305q-93 -134 -179 -266t-157 -246h745v-203h-1024zM565 1538q-46 0 -80.5 21.5t-47.5 51t-13 58.5q0 42 21.5 74.5t54 46.5t63.5 14q46 0 80 -21t48.5 -53.5 t14.5 -60.5q0 -40 -21.5 -72.5t-55 -45.5t-64.5 -13z"/>
<glyph unicode="ż" horiz-adv-x="989" d="M68 0v184q53 81 288 379q99 122 248 289h-516v188h811v-184q-153 -169 -285 -324q-162 -192 -274 -344h580v-188h-852zM508 1151q-46 0 -80.5 21.5t-47.5 51t-13 58.5q0 42 21.5 74.5t54 46.5t63.5 14q46 0 80 -21t48.5 -53.5t14.5 -60.5q0 -40 -21.5 -72.5t-55 -45.5 t-64.5 -13z"/>
<glyph unicode="ƒ" horiz-adv-x="985" d="M55 -434q-54 0 -99.5 10.5t-96.5 30.5l53 182q21 -9 54.5 -18t56.5 -9q77 0 105 44t40 108l151 907h-131l31 189h129l35 200q19 113 81.5 188t145 101.5t160.5 26.5q74 0 129.5 -10t106.5 -25l-43 -184q-104 26 -154 26q-78 0 -122.5 -38.5t-61.5 -129.5l-29 -155h240 l-31 -189h-238l-155 -938q-22 -130 -80 -202.5t-133.5 -93.5t-143.5 -21z"/>
<glyph unicode="ˆ" horiz-adv-x="856" d="M72 1141l252 282h208l252 -282h-235l-125 145l-123 -145h-229z"/>
<glyph unicode="ˇ" horiz-adv-x="856" d="M324 1141l-252 282h237l123 -145l123 145h229l-252 -282h-208z"/>
<glyph unicode="˘" horiz-adv-x="856" d="M428 1157q-80 0 -135 20.5t-90.5 55t-52.5 80t-21 94.5h164q9 -48 40.5 -76t94.5 -28q62 0 93.5 27t39.5 77h166q-7 -85 -47 -143.5t-106 -82.5t-146 -24z"/>
<glyph unicode="˙" horiz-adv-x="856" d="M428 1151q-46 0 -80.5 21.5t-47.5 51t-13 58.5q0 42 21.5 74.5t54 46.5t63.5 14q46 0 80 -21t48.5 -53.5t14.5 -60.5q0 -40 -21.5 -72.5t-55 -45.5t-64.5 -13z"/>
<glyph unicode="˚" horiz-adv-x="856" d="M428 1141q-48 0 -91 18.5t-75 50t-50.5 74t-18.5 90.5q0 72 39 130t92.5 82t103.5 24q71 0 129.5 -40t82.5 -93t24 -101q0 -49 -18.5 -92t-50.5 -74.5t-75 -50t-92 -18.5zM428 1255q35 0 61.5 19t40 48t13.5 54q0 38 -20 66.5t-46 41.5t-49 13q-34 0 -63.5 -20.5 t-40.5 -48t-11 -52.5t9.5 -47t25 -38.5t36.5 -26t44 -9.5z"/>
<glyph unicode="˛" horiz-adv-x="856" d="M446 -414q-93 0 -149.5 31t-73 72t-16.5 75q0 49 15.5 87.5t42 67t61.5 48.5t73 33h226q-58 -17 -100 -39.5t-69 -47t-40 -51t-13 -50.5q0 -32 17 -51t37.5 -24t38.5 -5q29 0 58 5.5t54 14.5l41 -127q-38 -15 -89 -27t-114 -12z"/>
<glyph unicode="˜" horiz-adv-x="856" d="M567 1141q-45 0 -87 18t-81 41q-82 51 -112 51q-25 0 -42.5 -11.5t-28 -33.5t-19.5 -51l-129 49q34 117 88 168t127 51q38 0 76.5 -11.5t89.5 -45.5q55 -38 76.5 -45.5t41.5 -7.5q28 0 49.5 18.5t36.5 75.5l133 -39q-27 -96 -64 -147.5t-78 -65.5t-77 -14z"/>
<glyph unicode="˝" horiz-adv-x="856" d="M23 1141l153 282h258l-196 -282h-215zM420 1141l155 282h259l-199 -282h-215z"/>
<glyph unicode="Δ" horiz-adv-x="1305" d="M6 0l543 1423h205l544 -1423h-1292zM336 205h614l-303 874z"/>
<glyph unicode="Ω" horiz-adv-x="1450" d="M94 0v199h240q-99 88 -157 229t-58 328q0 166 44.5 295.5t124.5 218.5t191.5 135.5t245.5 46.5t245.5 -46.5t191.5 -135t124.5 -217.5t44.5 -295q0 -189 -57.5 -330t-159.5 -227h242v-201h-549v180q126 58 193 194.5t67 362.5q0 129 -24 225.5t-68 160.5t-107.5 96 t-142.5 32t-142.5 -32t-107.5 -96t-68 -160t-24 -224q0 -227 66 -363t194 -194v-182h-549z"/>
<glyph unicode="π" horiz-adv-x="1212" d="M199 0v852h-123v188h1059v-188h-119v-852h-242v852h-334v-852h-241z"/>
<glyph unicode="–" horiz-adv-x="1024" d="M0 436v191h1024v-191h-1024z"/>
<glyph unicode="—" horiz-adv-x="2048" d="M0 436v191h2048v-191h-2048z"/>
<glyph unicode="‘" horiz-adv-x="524" d="M147 973q-14 28 -23 70t-9 87q0 92 37 181t77.5 141.5t61.5 73.5l125 -86q-41 -51 -64.5 -114t-23.5 -116q0 -48 15.5 -84t57.5 -59l-16 -94h-238z"/>
<glyph unicode="’" horiz-adv-x="524" d="M231 952l-122 86q44 62 66 124t22 106q0 48 -16.5 84t-59.5 59l18 94h238q14 -28 23.5 -70t9.5 -87q0 -92 -37 -179t-79 -142t-63 -75z"/>
<glyph unicode="‚" horiz-adv-x="547" d="M252 -262l-133 94q24 39 40 72t27 73t11 76q0 47 -18 83.5t-58 58.5l16 98h275q14 -35 21 -78t7 -78q0 -68 -19.5 -130t-48 -113.5t-61 -91.5t-59.5 -64z"/>
<glyph unicode="“" horiz-adv-x="911" d="M133 973q-14 28 -23.5 70t-9.5 87q0 92 37.5 182t78.5 141.5t63 72.5l122 -86q-42 -57 -64 -117.5t-22 -112.5q0 -48 15.5 -84t58.5 -59l-18 -94h-238zM551 973q-14 28 -23.5 70t-9.5 87q0 92 36.5 179.5t78.5 142t63 74.5l123 -86q-42 -57 -64 -117.5t-22 -112.5 q0 -48 15.5 -84t58.5 -59l-19 -94h-237z"/>
<glyph unicode="”" horiz-adv-x="911" d="M215 952l-123 86q20 25 42 68.5t33 84t11 77.5q0 48 -15 84t-59 59l19 94h237q14 -28 23.5 -70t9.5 -87q0 -92 -37.5 -180.5t-79 -142.5t-61.5 -73zM633 952l-123 86q40 55 63 118.5t23 111.5t-15 84t-59 59l19 94h237q14 -28 23.5 -70t9.5 -87q0 -92 -37.5 -180.5 t-78.5 -142t-62 -73.5z"/>
<glyph unicode="„" horiz-adv-x="911" d="M215 -260l-123 86q40 51 63 116t23 113t-15 84.5t-59 59.5l19 94h237q14 -28 23.5 -70.5t9.5 -87.5q0 -92 -37 -179t-79 -141.5t-62 -74.5zM633 -260l-123 86q40 58 63 123t23 106q0 48 -15 84.5t-59 59.5l19 94h237q14 -28 23.5 -70.5t9.5 -87.5q0 -92 -37 -179 t-78.5 -141t-62.5 -75z"/>
<glyph unicode="†" horiz-adv-x="1012" d="M387 0v948h-309v197h307v360h240v-360h309v-195h-307v-950h-240z"/>
<glyph unicode="‡" horiz-adv-x="989" d="M375 0v340h-297v197h297v432h-297v194h295v342h241v-340h297v-196h-297v-432h297v-195h-295v-342h-241z"/>
<glyph unicode="•" horiz-adv-x="879" d="M440 340q-73 0 -137 27.5t-112 75.5t-75.5 111.5t-27.5 135.5q0 107 58 193t139 121.5t153 35.5q107 0 193 -58.5t121.5 -139.5t35.5 -152q0 -72 -27 -135.5t-74.5 -111.5t-111 -75.5t-135.5 -27.5z"/>
<glyph unicode="…" horiz-adv-x="2048" d="M344 -20q-36 0 -67 12t-53.5 33t-35 49.5t-12.5 60.5q0 46 26 84.5t65 54t75 15.5q52 0 93 -25.5t58 -61t17 -67.5q0 -49 -27.5 -87t-65 -53t-73.5 -15zM1024 -20q-36 0 -67 12t-53.5 33t-35 49.5t-12.5 60.5q0 46 26 84.5t65.5 54t74.5 15.5q52 0 93 -25.5t58 -61 t17 -67.5q0 -49 -27.5 -87t-65 -53t-73.5 -15zM1706 -20q-36 0 -67 12t-53.5 33t-35 49.5t-12.5 60.5q0 46 26 84.5t65.5 54t74.5 15.5q52 0 93 -25.5t58 -61t17 -67.5q0 -49 -27.5 -87t-65 -53t-73.5 -15z"/>
<glyph unicode="‰" horiz-adv-x="2933" d="M1561 -18q-89 0 -158 31t-116 89.5t-72 143.5t-25 192t24.5 192.5t71.5 145t115.5 91.5t157.5 32t158 -31.5t116.5 -91t72.5 -145t25 -193.5q0 -107 -25 -191.5t-72 -143t-116 -90t-157 -31.5zM2433 -18q-88 0 -157 31t-116.5 89.5t-72.5 143.5t-25 192t24.5 192.5 t71.5 145t115.5 91.5t157.5 32q132 0 220.5 -69.5t120.5 -176.5t32 -215q0 -107 -25 -191.5t-72 -143t-116.5 -90t-157.5 -31.5zM530 0l775 1505h225l-774 -1505h-226zM1559 152q50 0 85.5 35.5t50.5 103.5t15 147q0 118 -23.5 184.5t-58.5 87.5t-67 21t-60 -15.5t-48.5 -50 t-32 -90.5t-11.5 -137q0 -78 11.5 -132.5t31.5 -88.5t47.5 -49.5t59.5 -15.5zM2431 152q51 0 86.5 35.5t50.5 103.5t15 147q0 115 -24 183t-59 89t-67 21t-60 -15.5t-48.5 -50t-32 -90.5t-11.5 -137q0 -78 11.5 -132.5t31.5 -88.5t47.5 -49.5t59.5 -15.5zM500 606 q-89 0 -158 31t-116 90t-72 143.5t-25 192.5q0 107 24.5 192.5t71.5 145t115.5 91.5t157.5 32t158 -31.5t116.5 -91t72.5 -145t25 -193.5q0 -107 -25 -191.5t-72 -143.5t-116 -90.5t-157 -31.5zM498 776q50 0 85.5 35.5t50.5 104t15 147.5q0 118 -23.5 184.5t-59 87.5 t-66.5 21q-32 0 -60 -15.5t-48.5 -50t-32 -90.5t-11.5 -137q0 -78 11.5 -133t31.5 -89t47.5 -49.5t59.5 -15.5z"/>
<glyph unicode="‹" horiz-adv-x="649" d="M338 111l-270 411l268 412h246l-279 -412l279 -411h-244z"/>
<glyph unicode="›" horiz-adv-x="649" d="M68 111l278 411l-278 412h243l271 -412l-269 -411h-245z"/>
<glyph unicode="⁄" horiz-adv-x="137" d="M-489 0l888 1505h228l-889 -1505h-227z"/>
<glyph unicode="€" horiz-adv-x="1217" d="M823 -20q-104 0 -199 30.5t-172 96.5t-131 170.5t-77 252.5h-185l31 121h139q-2 22 -2 45v49q0 53 6 109h-174l31 121h164q29 125 88.5 214t138 145.5t170.5 83t187 26.5q114 0 208 -23.5t136 -44.5l-66 -194q-63 25 -130 40t-126 15q-90 0 -164 -31t-121 -92t-71 -139 h534l-32 -121h-525q-8 -59 -8 -104q0 -69 4 -99h451l-33 -121h-401q16 -98 51 -162.5t83 -102.5t105.5 -54t118.5 -16q96 0 163.5 15.5t104.5 29.5l68 -195q-79 -35 -183 -50t-182 -15z"/>
<glyph unicode="™" horiz-adv-x="1860" d="M307 592v680h-254v151h674v-151h-248v-680h-172zM805 592q0 140 7 336.5t15 303.5t17 191h186l207 -532l205 532h182q6 -56 11 -124t9.5 -142.5t8 -151.5t6 -150.5t4 -140.5t2.5 -120l-162 -2q0 123 -12 561l-191 -496h-133l-188 490q-12 -402 -12 -555h-162z"/>
<glyph unicode="∂" horiz-adv-x="1200" d="M590 -25q-119 0 -208.5 40.5t-148.5 110.5t-88.5 164t-29.5 202q0 113 30 207.5t86.5 162.5t138 106t185.5 38q109 0 167 -31.5t89 -61.5q-19 166 -68 265.5t-107.5 131t-107.5 31.5q-68 0 -114.5 -23.5t-89.5 -68.5l-119 148q37 37 81 64t112 46t139 19q134 0 236.5 -63 t171.5 -178t104.5 -277.5t35.5 -360.5q0 -161 -31.5 -286t-94 -210.5t-155 -130.5t-214.5 -45zM598 162q94 0 147.5 53.5t67.5 130.5t14 146q0 68 -11.5 128t-38 104.5t-70 70.5t-107.5 26q-63 0 -106.5 -26t-70 -71t-38.5 -105t-12 -127q0 -69 12 -129.5t38.5 -105 t69.5 -70t105 -25.5z"/>
<glyph unicode="∏" horiz-adv-x="1427" d="M188 -266v1485h-141v204h1333v-202h-139v-1487h-250v1487h-553v-1487h-250z"/>
<glyph unicode="∑" horiz-adv-x="1268" d="M61 -266v188l506 666l-491 647v188h1132v-202h-837l485 -629l-504 -655h903v-203h-1194z"/>
<glyph unicode="−" d="M102 610v209h977v-209h-977z"/>
<glyph unicode="√" horiz-adv-x="1262" d="M709 0l-424 848l-181 -84l-88 180l394 182l348 -718l239 1474l217 -33l-307 -1849h-198z"/>
<glyph unicode="∞" horiz-adv-x="1542" d="M401 326q-71 0 -132.5 24.5t-106.5 69t-70.5 106t-25.5 136.5q0 112 55 193t130.5 112.5t147.5 31.5q50 0 92 -8t84 -30t89 -60t106 -98q84 86 150 131t118.5 55t102.5 10q70 0 131.5 -24.5t107 -69t71.5 -106t26 -135.5q0 -109 -55 -192t-132.5 -114.5t-148.5 -31.5 q-49 0 -90.5 8t-84 30t-89.5 60t-107 98q-59 -59 -106 -97t-89 -60t-83.5 -30.5t-90.5 -8.5zM403 512q64 0 111 33.5t123 116.5q-52 60 -86.5 90.5t-72 46.5t-72.5 16q-49 0 -85 -25.5t-48.5 -59.5t-12.5 -66t10 -60t28.5 -48.5t45 -32t59.5 -11.5zM1137 512q50 0 83 24 t47.5 60t14.5 68q0 45 -22 82.5t-56 53t-67 15.5q-67 0 -116.5 -37t-117.5 -114q30 -34 57 -62t54.5 -48t57 -31t65.5 -11z"/>
<glyph unicode="∫" horiz-adv-x="836" d="M229 -434q-60 0 -114 15t-109 38l53 180q71 -24 88 -28t39 -4q76 0 100 45t23 102l-39 1262q-2 84 19 149.5t62.5 110t101.5 67.5t135 23q77 0 129 -13t90 -30v-195q-26 13 -71.5 28t-96.5 15q-135 0 -129 -168l41 -1257q2 -81 -19 -144.5t-62.5 -107t-102 -66 t-138.5 -22.5z"/>
<glyph unicode="≈" horiz-adv-x="1399" d="M276 233l-180 93q31 78 68.5 140.5t83.5 106t100.5 66.5t120.5 23q60 0 122.5 -24t121.5 -56q115 -66 150 -78t69 -12q62 0 105.5 49t82.5 135l183 -92q-52 -125 -112 -201t-127.5 -104.5t-133.5 -28.5q-63 0 -129 24t-133 60q-154 84 -205 84q-35 0 -67 -20.5t-62.5 -65 t-57.5 -99.5zM276 745l-180 93q31 78 68.5 140.5t83.5 106t100.5 66.5t120.5 23q60 0 122.5 -24t121.5 -56q158 -88 219 -88q37 0 70 18.5t62.5 62.5t55.5 103l183 -92q-53 -129 -113 -203t-127 -102.5t-133 -28.5t-133 25t-129 59q-154 84 -205 84q-36 0 -69.5 -23t-62 -66 t-55.5 -98z"/>
<glyph unicode="≠" d="M352 94l-149 80l110 203h-211v211h324l139 252h-463v211h574l153 280l150 -80l-111 -200h211v-209h-321l-142 -254h463v-209h-573z"/>
<glyph unicode="≤" d="M100 25v211h979v-211h-979zM1079 336l-979 332v209l979 331v-227l-702 -207l702 -209v-229z"/>
<glyph unicode="≥" d="M100 25v211h979v-211h-979zM100 336v227l703 209l-703 209v227l979 -329v-209z"/>
<glyph unicode="◊" horiz-adv-x="1190" d="M596 -29l-498 742l496 739l498 -739zM594 324l252 389l-250 387l-252 -387z"/>
<glyph unicode="◼" horiz-adv-x="1040" d="M0 1040h1040v-1040h-1040v1040z"/>
<glyph unicode="" horiz-adv-x="1176" d="M162 0v852h-125v188h125v88q0 196 107 297t325 101q64 0 150 -11.5t149 -27.5v-187q-42 10 -122.5 23.5t-154.5 13.5q-88 0 -138 -28.5t-63.5 -77t-13.5 -101.5v-90h613v-1040h-242v852h-369v-852h-241z"/>
<glyph unicode="" horiz-adv-x="1190" d="M164 0v852h-127v188h125v76q0 118 38 197t100.5 126.5t142 67t163.5 19.5q110 0 205.5 -21.5t149.5 -44.5t67 -28v-1432h-242v1298q-38 16 -50.5 20.5t-57 13.5t-78.5 9q-80 0 -124.5 -29t-59.5 -83t-15 -117v-72h222v-188h-220v-852h-239z"/>
<glyph horiz-adv-x="524" d="M90 1141v364h234l-39 -364h-195z"/>
</font>
</defs>
</svg>
